<svg width="24" height="25" viewBox="0 0 24 25" fill="none" xmlns="http://www.w3.org/2000/svg">
<path fill-rule="evenodd" clip-rule="evenodd" d="M6 2.39746H16C16.7956 2.39746 17.5587 2.71353 18.1213 3.27614C18.6839 3.83875 19 4.60181 19 5.39746C19 6.19311 18.6839 6.95617 18.1213 7.51878C17.5587 8.08139 16.7956 8.39746 16 8.39746H6C5.20435 8.39746 4.44129 8.08139 3.87868 7.51878C3.31607 6.95617 3 6.19311 3 5.39746C3 4.60181 3.31607 3.83875 3.87868 3.27614C4.44129 2.71353 5.20435 2.39746 6 2.39746V2.39746ZM6 4.39746C5.73478 4.39746 5.48043 4.50282 5.29289 4.69035C5.10536 4.87789 5 5.13224 5 5.39746C5 5.66268 5.10536 5.91703 5.29289 6.10457C5.48043 6.2921 5.73478 6.39746 6 6.39746H16C16.2652 6.39746 16.5196 6.2921 16.7071 6.10457C16.8946 5.91703 17 5.66268 17 5.39746C17 5.13224 16.8946 4.87789 16.7071 4.69035C16.5196 4.50282 16.2652 4.39746 16 4.39746H6ZM10 9.39746H18C18.7956 9.39746 19.5587 9.71353 20.1213 10.2761C20.6839 10.8387 21 11.6018 21 12.3975C21 13.1931 20.6839 13.9562 20.1213 14.5188C19.5587 15.0814 18.7956 15.3975 18 15.3975H10C9.20435 15.3975 8.44129 15.0814 7.87868 14.5188C7.31607 13.9562 7 13.1931 7 12.3975C7 11.6018 7.31607 10.8387 7.87868 10.2761C8.44129 9.71353 9.20435 9.39746 10 9.39746V9.39746ZM10 11.3975C9.73478 11.3975 9.48043 11.5028 9.29289 11.6904C9.10536 11.8779 9 12.1322 9 12.3975C9 12.6627 9.10536 12.917 9.29289 13.1046C9.48043 13.2921 9.73478 13.3975 10 13.3975H18C18.2652 13.3975 18.5196 13.2921 18.7071 13.1046C18.8946 12.917 19 12.6627 19 12.3975C19 12.1322 18.8946 11.8779 18.7071 11.6904C18.5196 11.5028 18.2652 11.3975 18 11.3975H10ZM6 16.3975H12C12.7956 16.3975 13.5587 16.7135 14.1213 17.2761C14.6839 17.8387 15 18.6018 15 19.3975C15 20.1931 14.6839 20.9562 14.1213 21.5188C13.5587 22.0814 12.7956 22.3975 12 22.3975H6C5.20435 22.3975 4.44129 22.0814 3.87868 21.5188C3.31607 20.9562 3 20.1931 3 19.3975C3 18.6018 3.31607 17.8387 3.87868 17.2761C4.44129 16.7135 5.20435 16.3975 6 16.3975V16.3975ZM6 18.3975C5.73478 18.3975 5.48043 18.5028 5.29289 18.6904C5.10536 18.8779 5 19.1322 5 19.3975C5 19.6627 5.10536 19.917 5.29289 20.1046C5.48043 20.2921 5.73478 20.3975 6 20.3975H12C12.2652 20.3975 12.5196 20.2921 12.7071 20.1046C12.8946 19.917 13 19.6627 13 19.3975C13 19.1322 12.8946 18.8779 12.7071 18.6904C12.5196 18.5028 12.2652 18.3975 12 18.3975H6Z" fill="#44546F"/>
</svg>
