<svg width="24" height="25" viewBox="0 0 24 25" fill="none" xmlns="http://www.w3.org/2000/svg">
<path fill-rule="evenodd" clip-rule="evenodd" d="M22 12.3975C22 17.9203 17.5228 22.3975 12 22.3975C6.47715 22.3975 2 17.9203 2 12.3975C2 6.87461 6.47715 2.39746 12 2.39746C17.5228 2.39746 22 6.87461 22 12.3975ZM14.8284 7.55743C15.3505 8.07691 15.7181 8.73126 15.89 9.44745C16.1223 10.4055 15.9918 11.4156 15.5235 12.2831C15.0552 13.1506 14.2824 13.814 13.354 14.1455C13.149 14.2185 13.004 14.4005 13.004 14.6175V15.3995C13.004 15.6652 12.8984 15.9201 12.7105 16.108C12.5226 16.2959 12.2677 16.4015 12.002 16.4015C11.7363 16.4015 11.4814 16.2959 11.2935 16.108C11.1056 15.9201 11 15.6652 11 15.3995V13.3855C11.0034 13.1225 11.1103 12.8715 11.2975 12.6867C11.4846 12.502 11.7369 12.3985 11.9998 12.3985H11.993C13.098 12.3985 13.996 11.5005 13.996 10.3985C13.984 9.87485 13.7676 9.37673 13.3929 9.01073C13.0183 8.64473 12.5153 8.43994 11.9915 8.44021C11.4678 8.44047 10.9649 8.64576 10.5907 9.01213C10.2164 9.3785 10.0004 9.87684 9.989 10.4005C9.987 10.9515 9.539 11.3985 8.987 11.3985C8.74019 11.3969 8.50281 11.3035 8.32123 11.1363C8.13964 10.9691 8.02689 10.7403 8.005 10.4945L8 10.3475C8.017 7.84345 10.321 5.91145 12.933 6.50545C13.6501 6.67374 14.3063 7.03794 14.8284 7.55743ZM13 18.3975C13 18.9497 12.5523 19.3975 12 19.3975C11.4477 19.3975 11 18.9497 11 18.3975C11 17.8452 11.4477 17.3975 12 17.3975C12.5523 17.3975 13 17.8452 13 18.3975Z" fill="#626F86"/>
</svg>
