<svg width="24" height="25" viewBox="0 0 24 25" fill="none" xmlns="http://www.w3.org/2000/svg">
<path fill-rule="evenodd" clip-rule="evenodd" d="M8.126 10.3975H4C2.887 10.3975 2 11.2925 2 12.3975V16.1275C2 17.4375 3.874 18.1805 6 18.3575V15.3935C6.00159 14.5987 6.3183 13.837 6.88068 13.2753C7.44306 12.7137 8.2052 12.398 9 12.3975H9.354C8.7539 11.8686 8.32615 11.1719 8.126 10.3975ZM15.874 10.3975H20C21.105 10.3975 22 11.2825 22 12.3975V16.1275C22 17.4375 20.126 18.1805 18 18.3575V15.3935C17.9989 14.5985 17.6824 13.8365 17.1199 13.2747C16.5574 12.713 15.795 12.3975 15 12.3975H14.646C15.2461 11.8686 15.6738 11.1719 15.874 10.3975ZM9.967 5.95147C9.87498 5.34052 9.59657 4.77288 9.16981 4.32611C8.74304 3.87934 8.18875 3.57523 7.58265 3.45533C6.97656 3.33543 6.34823 3.40559 5.7835 3.65622C5.21878 3.90685 4.74521 4.32572 4.4275 4.85562C4.10979 5.38551 3.96343 6.00058 4.00843 6.61678C4.05342 7.23298 4.28758 7.82026 4.67889 8.29838C5.07021 8.7765 5.59961 9.12214 6.19475 9.28808C6.78989 9.45401 7.42175 9.43215 8.004 9.22547C8.03235 8.55937 8.22679 7.91092 8.56962 7.33912C8.91246 6.76732 9.39282 6.29031 9.967 5.95147ZM15.997 9.22547C16.5792 9.43206 17.2109 9.45388 17.806 9.28797C18.401 9.12205 18.9304 8.77649 19.3217 8.29848C19.713 7.82046 19.9471 7.23331 19.9922 6.61721C20.0373 6.00111 19.8911 5.38611 19.5736 4.85621C19.2561 4.32631 18.7828 3.90735 18.2182 3.65656C17.6537 3.40576 17.0255 3.33536 16.4194 3.45496C15.8133 3.57457 15.259 3.87836 14.832 4.32482C14.4051 4.77129 14.1264 5.33867 14.034 5.94947C14.6088 6.28814 15.0895 6.76539 15.4324 7.33764C15.7753 7.90989 15.9694 8.55892 15.997 9.22547Z" fill="#626F86"/>
<path fill-rule="evenodd" clip-rule="evenodd" d="M7 15.3975C7 14.2925 7.887 13.3975 9 13.3975H15C16.105 13.3975 17 14.2825 17 15.3975V19.1275C17 22.1545 7 22.1545 7 19.1275V15.3975Z" fill="#626F86"/>
<path d="M12 12.3975C13.6569 12.3975 15 11.0543 15 9.39747C15 7.74062 13.6569 6.39747 12 6.39747C10.3431 6.39747 9 7.74062 9 9.39747C9 11.0543 10.3431 12.3975 12 12.3975Z" fill="#626F86"/>
</svg>
