<svg width="192" height="41" viewBox="0 0 192 41" fill="none" xmlns="http://www.w3.org/2000/svg">
<path d="M25.3367 27.5459V28.0198C25.3357 28.0232 25.3352 28.0267 25.335 28.0302C25.3352 28.034 25.3357 28.0377 25.3367 28.0414C25.3416 28.1589 25.4373 28.2522 25.5549 28.2542C25.5549 28.2542 25.5576 28.2542 25.5593 28.2542H25.5647H31.1226C31.1226 28.2542 31.1256 28.2542 31.1273 28.2542H31.1324C31.2536 28.2519 31.3508 28.1532 31.3513 28.0319C31.3511 28.0314 31.3511 28.0308 31.3513 28.0302V27.4926C34.4792 26.4673 36.8226 23.9322 37.338 20.8427C37.338 20.836 37.34 20.8299 37.341 20.8242C37.3429 20.8139 37.3439 20.8036 37.3441 20.7932C37.3442 20.7336 37.3205 20.6764 37.2784 20.6342C37.2362 20.5921 37.179 20.5684 37.1194 20.5685H19.4089C19.3492 20.5683 19.2919 20.5919 19.2496 20.6341C19.2073 20.6762 19.1836 20.7335 19.1836 20.7932L19.1954 20.8942C19.7367 24.0131 22.1441 26.5623 25.3367 27.5459Z" fill="#44546F"/>
<path d="M31.3449 13.0104C31.2718 13.1142 29.5596 15.5775 31.383 17.5693C32.2187 18.4835 32.1463 19.2899 31.9078 19.8345H33.0766C33.3124 19.0305 33.2154 18.0216 32.2682 16.9848C30.9255 15.5169 32.2854 13.5332 32.3059 13.5026C32.4663 13.2762 32.3804 12.9845 32.1163 12.8484C31.8522 12.7123 31.5076 12.7854 31.3466 13.0104" fill="#44546F"/>
<path d="M28.3847 19.8345H29.5539C29.7897 19.0302 29.6924 18.0217 28.7435 16.9849C27.4002 15.5169 28.759 13.5339 28.7805 13.5016C28.9399 13.2762 28.8556 12.9849 28.5906 12.8484C28.3255 12.712 27.9822 12.7851 27.8219 13.0105C27.7485 13.1139 26.0366 15.5775 27.8599 17.5693C28.6956 18.4835 28.6226 19.2902 28.3847 19.8345Z" fill="#44546F"/>
<path d="M24.2982 13.0105C24.2241 13.1142 22.5129 15.5775 24.3359 17.5693C25.1719 18.4838 25.0995 19.2902 24.8614 19.8345H26.0302C26.266 19.0308 26.169 18.022 25.2191 16.9849C23.8761 15.5169 25.2359 13.5332 25.2575 13.5019C25.4162 13.2762 25.3316 12.9845 25.0665 12.8484C24.8014 12.7124 24.4585 12.7851 24.2982 13.0105Z" fill="#44546F"/>
<path d="M54.156 24.2914H58.916V25.3974H52.644V24.3894L57.376 16.7454H52.7V15.6394H58.888V16.6474L54.156 24.2914ZM67.6522 21.2674C67.6522 21.5101 67.6382 21.7667 67.6102 22.0374H61.4782C61.5249 22.7934 61.7816 23.3861 62.2482 23.8154C62.7242 24.2354 63.2982 24.4454 63.9702 24.4454C64.5209 24.4454 64.9782 24.3194 65.3422 24.0674C65.7156 23.8061 65.9769 23.4607 66.1262 23.0314H67.4982C67.2929 23.7687 66.8822 24.3707 66.2662 24.8374C65.6502 25.2947 64.8849 25.5234 63.9702 25.5234C63.2422 25.5234 62.5889 25.3601 62.0102 25.0334C61.4409 24.7067 60.9929 24.2447 60.6662 23.6474C60.3396 23.0407 60.1762 22.3407 60.1762 21.5474C60.1762 20.7541 60.3349 20.0587 60.6522 19.4614C60.9696 18.8641 61.4129 18.4067 61.9822 18.0894C62.5609 17.7627 63.2236 17.5994 63.9702 17.5994C64.6982 17.5994 65.3422 17.7581 65.9022 18.0754C66.4622 18.3927 66.8916 18.8314 67.1902 19.3914C67.4982 19.9421 67.6522 20.5674 67.6522 21.2674ZM66.3362 21.0014C66.3362 20.5161 66.2289 20.1007 66.0142 19.7554C65.7996 19.4007 65.5056 19.1347 65.1322 18.9574C64.7682 18.7707 64.3622 18.6774 63.9142 18.6774C63.2702 18.6774 62.7196 18.8827 62.2622 19.2934C61.8142 19.7041 61.5576 20.2734 61.4922 21.0014H66.3362ZM70.6079 18.9714C70.8319 18.5327 71.1492 18.1921 71.5599 17.9494C71.9799 17.7067 72.4885 17.5854 73.0859 17.5854V18.9014H72.7499C71.3219 18.9014 70.6079 19.6761 70.6079 21.2254V25.3974H69.3339V17.7254H70.6079V18.9714ZM77.9025 25.5234C77.1838 25.5234 76.5305 25.3601 75.9425 25.0334C75.3638 24.7067 74.9065 24.2447 74.5705 23.6474C74.2438 23.0407 74.0805 22.3407 74.0805 21.5474C74.0805 20.7634 74.2485 20.0727 74.5845 19.4754C74.9298 18.8687 75.3965 18.4067 75.9845 18.0894C76.5725 17.7627 77.2305 17.5994 77.9585 17.5994C78.6865 17.5994 79.3445 17.7627 79.9325 18.0894C80.5205 18.4067 80.9825 18.8641 81.3185 19.4614C81.6638 20.0587 81.8365 20.7541 81.8365 21.5474C81.8365 22.3407 81.6592 23.0407 81.3045 23.6474C80.9592 24.2447 80.4878 24.7067 79.8905 25.0334C79.2932 25.3601 78.6305 25.5234 77.9025 25.5234ZM77.9025 24.4034C78.3598 24.4034 78.7892 24.2961 79.1905 24.0814C79.5918 23.8667 79.9138 23.5447 80.1565 23.1154C80.4085 22.6861 80.5345 22.1634 80.5345 21.5474C80.5345 20.9314 80.4132 20.4087 80.1705 19.9794C79.9278 19.5501 79.6105 19.2327 79.2185 19.0274C78.8265 18.8127 78.4018 18.7054 77.9445 18.7054C77.4778 18.7054 77.0485 18.8127 76.6565 19.0274C76.2738 19.2327 75.9658 19.5501 75.7325 19.9794C75.4992 20.4087 75.3825 20.9314 75.3825 21.5474C75.3825 22.1727 75.4945 22.7001 75.7185 23.1294C75.9518 23.5587 76.2598 23.8807 76.6425 24.0954C77.0252 24.3007 77.4452 24.4034 77.9025 24.4034ZM94.762 15.6394V25.3974H93.488V20.9734H88.518V25.3974H87.244V15.6394H88.518V19.9234H93.488V15.6394H94.762ZM103.741 17.7254V25.3974H102.467V24.2634C102.225 24.6554 101.884 24.9634 101.445 25.1874C101.016 25.4021 100.54 25.5094 100.017 25.5094C99.42 25.5094 98.8834 25.3881 98.4074 25.1454C97.9314 24.8934 97.5534 24.5201 97.2734 24.0254C97.0027 23.5307 96.8674 22.9287 96.8674 22.2194V17.7254H98.1274V22.0514C98.1274 22.8074 98.3187 23.3907 98.7014 23.8014C99.084 24.2027 99.6067 24.4034 100.269 24.4034C100.951 24.4034 101.487 24.1934 101.879 23.7734C102.271 23.3534 102.467 22.7421 102.467 21.9394V17.7254H103.741ZM109.63 17.5854C110.564 17.5854 111.32 17.8701 111.898 18.4394C112.477 18.9994 112.766 19.8114 112.766 20.8754V25.3974H111.506V21.0574C111.506 20.2921 111.315 19.7087 110.932 19.3074C110.55 18.8967 110.027 18.6914 109.364 18.6914C108.692 18.6914 108.156 18.9014 107.754 19.3214C107.362 19.7414 107.166 20.3527 107.166 21.1554V25.3974H105.892V17.7254H107.166V18.8174C107.418 18.4254 107.759 18.1221 108.188 17.9074C108.627 17.6927 109.108 17.5854 109.63 17.5854ZM118.012 17.5994C118.674 17.5994 119.253 17.7441 119.748 18.0334C120.252 18.3227 120.625 18.6867 120.868 19.1254V17.7254H122.156V25.5654C122.156 26.2654 122.006 26.8861 121.708 27.4274C121.409 27.9781 120.98 28.4074 120.42 28.7154C119.869 29.0234 119.225 29.1774 118.488 29.1774C117.48 29.1774 116.64 28.9394 115.968 28.4634C115.296 27.9874 114.899 27.3387 114.778 26.5174H116.038C116.178 26.9841 116.467 27.3574 116.906 27.6374C117.344 27.9267 117.872 28.0714 118.488 28.0714C119.188 28.0714 119.757 27.8521 120.196 27.4134C120.644 26.9747 120.868 26.3587 120.868 25.5654V23.9554C120.616 24.4034 120.242 24.7767 119.748 25.0754C119.253 25.3741 118.674 25.5234 118.012 25.5234C117.33 25.5234 116.71 25.3554 116.15 25.0194C115.599 24.6834 115.165 24.2121 114.848 23.6054C114.53 22.9987 114.372 22.3081 114.372 21.5334C114.372 20.7494 114.53 20.0634 114.848 19.4754C115.165 18.8781 115.599 18.4161 116.15 18.0894C116.71 17.7627 117.33 17.5994 118.012 17.5994ZM120.868 21.5474C120.868 20.9687 120.751 20.4647 120.518 20.0354C120.284 19.6061 119.967 19.2794 119.566 19.0554C119.174 18.8221 118.74 18.7054 118.264 18.7054C117.788 18.7054 117.354 18.8174 116.962 19.0414C116.57 19.2654 116.257 19.5921 116.024 20.0214C115.79 20.4507 115.674 20.9547 115.674 21.5334C115.674 22.1214 115.79 22.6347 116.024 23.0734C116.257 23.5027 116.57 23.8341 116.962 24.0674C117.354 24.2914 117.788 24.4034 118.264 24.4034C118.74 24.4034 119.174 24.2914 119.566 24.0674C119.967 23.8341 120.284 23.5027 120.518 23.0734C120.751 22.6347 120.868 22.1261 120.868 21.5474ZM131.308 21.2674C131.308 21.5101 131.294 21.7667 131.266 22.0374H125.134C125.181 22.7934 125.438 23.3861 125.904 23.8154C126.38 24.2354 126.954 24.4454 127.626 24.4454C128.177 24.4454 128.634 24.3194 128.998 24.0674C129.372 23.8061 129.633 23.4607 129.782 23.0314H131.154C130.949 23.7687 130.538 24.3707 129.922 24.8374C129.306 25.2947 128.541 25.5234 127.626 25.5234C126.898 25.5234 126.245 25.3601 125.666 25.0334C125.097 24.7067 124.649 24.2447 124.322 23.6474C123.996 23.0407 123.832 22.3407 123.832 21.5474C123.832 20.7541 123.991 20.0587 124.308 19.4614C124.626 18.8641 125.069 18.4067 125.638 18.0894C126.217 17.7627 126.88 17.5994 127.626 17.5994C128.354 17.5994 128.998 17.7581 129.558 18.0754C130.118 18.3927 130.548 18.8314 130.846 19.3914C131.154 19.9421 131.308 20.5674 131.308 21.2674ZM129.992 21.0014C129.992 20.5161 129.885 20.1007 129.67 19.7554C129.456 19.4007 129.162 19.1347 128.788 18.9574C128.424 18.7707 128.018 18.6774 127.57 18.6774C126.926 18.6774 126.376 18.8827 125.918 19.2934C125.47 19.7041 125.214 20.2734 125.148 21.0014H129.992ZM134.264 18.9714C134.488 18.5327 134.805 18.1921 135.216 17.9494C135.636 17.7067 136.145 17.5854 136.742 17.5854V18.9014H136.406C134.978 18.9014 134.264 19.6761 134.264 21.2254V25.3974H132.99V17.7254H134.264V18.9714Z" fill="#44546F"/>
</svg>
