<svg width="27" height="25" viewBox="0 0 27 25" fill="none" xmlns="http://www.w3.org/2000/svg">
<path d="M22.9759 7.75478C22.9763 7.23106 23.401 6.80671 23.9247 6.80678C24.4484 6.80684 24.873 7.23129 24.8733 7.75501C24.8735 8.27873 24.4493 8.70358 23.9256 8.70415C23.4012 8.70415 22.9761 8.27916 22.9759 7.75478Z" fill="#44546F"/>
<path d="M25.0337 9.06998C25.6849 9.13007 26.1829 9.67669 26.1823 10.3307V12.9631C26.1823 13.1663 26.0176 13.331 25.8144 13.331C25.6112 13.331 25.4465 13.1663 25.4465 12.9631V10.702C25.4465 10.6169 25.4222 10.5024 25.2672 10.5024C25.1599 10.5024 25.1376 10.6159 25.1338 10.6883V17.4611C25.1338 17.7532 24.897 17.9901 24.6048 17.9901C24.3126 17.9901 24.0758 17.7532 24.0758 17.4611V13.5583C24.0758 13.5151 24.06 13.4033 23.9256 13.4033C23.7909 13.4033 23.7744 13.5151 23.773 13.5583V17.4611C23.7779 17.6531 23.6783 17.8327 23.5127 17.9301C23.3472 18.0276 23.1418 18.0276 22.9763 17.9301C22.8108 17.8327 22.7111 17.6531 22.716 17.4611V10.6883C22.7126 10.6159 22.6893 10.5024 22.583 10.5024C22.4273 10.5024 22.4037 10.6169 22.4037 10.702V12.9631C22.3952 13.1599 22.2331 13.3151 22.0361 13.3151C21.8391 13.3151 21.6771 13.1599 21.6686 12.9631V10.3307C21.6683 9.67622 22.1671 9.12955 22.8189 9.06998C22.8416 9.06653 22.8645 9.06458 22.8874 9.06415H24.96C24.9842 9.06453 25.0084 9.06648 25.0324 9.06998" fill="#44546F"/>
<path d="M17.3315 8.25329C17.3313 7.8898 17.1122 7.56219 16.7763 7.42325C16.4404 7.2843 16.0539 7.3614 15.797 7.61857C15.5402 7.87575 15.4635 8.26235 15.6028 8.59808C15.7422 8.93381 16.07 9.15254 16.4335 9.15226C16.9297 9.15188 17.3317 8.74945 17.3315 8.25329Z" fill="#44546F"/>
<path d="M14.6222 10.2888L13.8751 12.7231C13.8751 12.7231 13.7421 13.1688 14.1202 13.2803C14.4984 13.3917 14.6109 12.9566 14.6109 12.9566L15.2133 10.9265C15.2133 10.9265 15.2476 10.7702 15.3635 10.8041C15.4793 10.8381 15.4368 11.0047 15.4368 11.0047L14.3884 14.8104H15.3635V17.5351C15.3703 17.7888 15.5779 17.9908 15.8316 17.9908C16.0853 17.9908 16.2929 17.7888 16.2998 17.5351V14.8073H16.5659V17.532C16.5727 17.7859 16.7805 17.988 17.0344 17.988C17.2883 17.988 17.496 17.7859 17.5029 17.532V14.8073H18.4776L17.4299 11.0016C17.4299 11.0016 17.3856 10.8374 17.5029 10.8031C17.6201 10.7688 17.6531 10.9255 17.6531 10.9255L18.2555 12.9556C18.2555 12.9556 18.37 13.3907 18.7457 13.2792C19.1215 13.1678 18.9909 12.7231 18.9909 12.7231L18.2438 10.2888C18.2438 10.2888 17.9771 9.58563 17.3867 9.58563H15.4811C14.89 9.58563 14.6239 10.2888 14.6239 10.2888" fill="#44546F"/>
<path d="M11.9482 8.25328C11.948 7.75698 11.5456 7.35481 11.0493 7.355C10.553 7.35519 10.1508 7.75767 10.151 8.25397C10.1512 8.75027 10.5536 9.15245 11.0499 9.15226C11.5462 9.15188 11.9482 8.7495 11.9482 8.25328Z" fill="#44546F"/>
<path d="M9.23863 10.2888L8.49188 12.7231C8.49188 12.7231 8.35817 13.1688 8.73668 13.2803C9.1152 13.3917 9.22731 12.9566 9.22731 12.9566L9.82971 10.9265C9.82971 10.9265 9.86228 10.7702 9.97988 10.8041C10.0975 10.8381 10.0529 11.0047 10.0529 11.0047L9.0048 14.8104H9.97988V17.5351C9.97988 17.7938 10.1896 18.0035 10.4482 18.0035C10.7069 18.0035 10.9166 17.7938 10.9166 17.5351V14.8073H11.1826V17.532C11.1895 17.7857 11.3971 17.9877 11.6508 17.9877C11.9045 17.9877 12.1121 17.7857 12.119 17.532V14.8073H13.0944L12.0466 11.0016C12.0466 11.0016 12.0021 10.8347 12.119 10.8011C12.2359 10.7675 12.2695 10.9235 12.2695 10.9235L12.8715 12.9535C12.8715 12.9535 12.9861 13.3886 13.3622 13.2772C13.7383 13.1657 13.607 12.7231 13.607 12.7231L12.8599 10.2888C12.8599 10.2888 12.5935 9.58563 12.0027 9.58563H10.0975C9.50674 9.58563 9.23863 10.2888 9.23863 10.2888Z" fill="#44546F"/>
<path d="M20.3499 13.2837C20.763 13.2837 21.0979 12.9489 21.0981 12.5358C21.0982 12.1227 20.7635 11.7877 20.3504 11.7875C19.9373 11.7872 19.6022 12.1218 19.6018 12.5349C19.6015 12.7335 19.6802 12.924 19.8205 13.0645C19.9609 13.205 20.1514 13.2839 20.3499 13.2837Z" fill="#44546F"/>
<path d="M18.5565 15.6076C18.5198 15.695 18.49 15.8819 18.6655 15.9614C18.8712 16.056 18.9861 15.8586 18.9861 15.8586L19.3927 14.5615C19.3927 14.5615 19.4633 14.4748 19.4633 14.5646V17.6178H19.465C19.4712 17.8253 19.6413 17.9903 19.8489 17.9903C20.0565 17.9903 20.2265 17.8253 20.2327 17.6178V16.4112C20.2327 16.4112 20.2104 16.2398 20.3479 16.2398C20.4854 16.2398 20.4638 16.4112 20.4638 16.4112V17.6164C20.4638 17.8288 20.636 18.0011 20.8485 18.0011C21.0609 18.0011 21.2332 17.8288 21.2332 17.6164V14.5632C21.2332 14.4734 21.2805 14.5375 21.2805 14.5375L21.5993 15.4255C21.5993 15.4255 21.7365 15.8222 21.7804 15.8397C21.8498 15.8686 21.9279 15.8687 21.9975 15.84C22.067 15.8112 22.1222 15.756 22.151 15.6864C22.1899 15.5961 22.1784 15.4919 22.1208 15.4122L22.1236 15.4094C22.1143 15.3806 21.647 14.2348 21.5921 14.074C21.4234 13.5813 21.1162 13.5858 20.8207 13.5775C20.5252 13.5693 20.3479 13.5775 20.3479 13.5775C20.3479 13.5775 20.159 13.57 19.7685 13.5813C19.378 13.5926 19.2542 13.7935 18.8253 14.8999C18.7639 15.0594 18.5565 15.5747 18.5537 15.6055L18.5565 15.6076Z" fill="#44546F"/>
<path d="M2.9712 8.70414C3.35528 8.70456 3.70177 8.47351 3.84904 8.11879C3.99631 7.76407 3.91534 7.35556 3.6439 7.08383C3.37246 6.8121 2.96404 6.73069 2.60916 6.87757C2.25428 7.02445 2.02286 7.37069 2.02286 7.75477C2.02342 8.27846 2.44751 8.70301 2.9712 8.70414Z" fill="#44546F"/>
<path d="M4.08756 9.06516C4.06243 9.06005 4.03701 9.0565 4.01144 9.05453H1.93716C1.91407 9.05638 1.89115 9.05993 1.86858 9.06516C1.2164 9.12713 0.718669 9.67553 0.720013 10.3307V12.9631C0.719099 13.0985 0.793113 13.2233 0.912356 13.2875C0.906924 13.2976 0.902778 13.3085 0.900013 13.3197L0.0565846 17.7871C0.0491718 17.8234 0.0567154 17.8611 0.0775033 17.8917C0.0982911 17.9223 0.13056 17.9432 0.166985 17.9496C0.175456 17.9513 0.184069 17.9521 0.192699 17.952C0.259838 17.9523 0.317575 17.9046 0.329842 17.8385L1.17258 13.3711C1.17419 13.3537 1.17244 13.3361 1.16744 13.3193C1.32933 13.2773 1.44176 13.1304 1.44001 12.9631V10.702C1.44001 10.6169 1.4623 10.5024 1.61727 10.5024C1.72424 10.5024 1.74858 10.6159 1.74858 10.6883V17.4611C1.74858 17.7546 1.98651 17.9925 2.28001 17.9925C2.57351 17.9925 2.81144 17.7546 2.81144 17.4611V13.5583C2.81071 13.5166 2.82767 13.4766 2.85812 13.4481C2.88857 13.4196 2.92966 13.4053 2.97121 13.4088C3.10596 13.4088 3.11967 13.5151 3.11967 13.5583V17.4611C3.11967 17.7546 3.3576 17.9925 3.6511 17.9925C3.9446 17.9925 4.18253 17.7546 4.18253 17.4611V10.6883C4.18253 10.6159 4.2079 10.5024 4.31384 10.5024C4.46984 10.5024 4.4911 10.6169 4.4911 10.702V12.9631C4.4911 13.1714 4.65995 13.3403 4.86824 13.3403C5.07653 13.3403 5.24538 13.1714 5.24538 12.9631V10.3307C5.24226 9.67386 4.74149 9.12652 4.08756 9.06516Z" fill="#44546F"/>
<path d="M7.75407 14.52L8.44835 13.26C8.44835 13.26 8.53201 13.079 8.53201 13.0358C8.53006 12.915 8.44932 12.8097 8.33318 12.7765C8.21704 12.7433 8.09284 12.79 8.02732 12.8915H8.02424C8.0023 12.9103 7.65292 13.5302 7.53772 13.6457C7.41601 13.7688 7.30664 13.7534 7.30664 13.7534H6.40013C6.40013 13.7534 6.29041 13.7688 6.16904 13.6457C6.05247 13.5305 5.70481 12.9096 5.68253 12.8915L5.68013 12.8935C5.61432 12.7939 5.49167 12.7483 5.37679 12.7807C5.26191 12.8132 5.18119 12.9162 5.17715 13.0355C5.18107 13.0763 5.19005 13.1165 5.2039 13.1551L5.95647 14.52C5.98227 14.5768 5.99727 14.6378 6.0007 14.7V14.9688L5.60573 16.426H6.00001V17.626H6.00515C6.00722 17.8316 6.17455 17.9973 6.38024 17.9973C6.58467 17.9992 6.75204 17.8352 6.7543 17.6308V16.4743C6.74332 16.4608 6.73859 16.4432 6.74127 16.426H6.96412C6.96617 16.4422 6.96477 16.4587 6.96001 16.4743V17.6308C6.96001 17.8391 7.12886 18.0079 7.33715 18.0079C7.54544 18.0079 7.7143 17.8391 7.7143 17.6308V16.426H8.10138L7.7143 14.9603V14.7C7.71725 14.6382 7.7307 14.5773 7.75407 14.52Z" fill="#44546F"/>
<path d="M6.85303 13.2837C7.26616 13.2839 7.60123 12.9492 7.60149 12.536C7.60174 12.1229 7.26707 11.7878 6.85394 11.7875C6.44081 11.7871 6.10564 12.1218 6.10526 12.5349C6.10489 12.7334 6.18353 12.9239 6.32381 13.0644C6.46409 13.2049 6.6545 13.2838 6.85303 13.2837Z" fill="#44546F"/>
</svg>
