<svg width="24" height="25" viewBox="0 0 24 25" fill="none" xmlns="http://www.w3.org/2000/svg">
<path d="M14.5614 13.1803H9.06576C9.03104 13.1825 9.00453 13.2122 9.00623 13.247V14.8988C9.00436 14.9336 9.03091 14.9635 9.06576 14.9658H14.5614C14.5963 14.9635 14.6228 14.9336 14.621 14.8988V13.247C14.6227 13.2122 14.5962 13.1825 14.5614 13.1803Z" fill="#44546F"/>
<path d="M14.5614 9.66565H9.06578C9.03105 9.66788 9.00455 9.69757 9.00624 9.73233V11.3841C9.00421 11.419 9.03085 11.449 9.06578 11.4511H14.5614C14.5964 11.449 14.623 11.419 14.621 11.3841V9.73233C14.6227 9.69757 14.5962 9.66788 14.5614 9.66565Z" fill="#44546F"/>
<path d="M14.484 7.16905L11.846 4.53135C11.8282 4.5138 11.7996 4.5138 11.7817 4.53135L9.14375 7.16905C9.13077 7.18207 9.12689 7.20162 9.13392 7.21861C9.14095 7.2356 9.15751 7.24669 9.1759 7.24674H14.4519C14.4703 7.24669 14.4868 7.2356 14.4939 7.21861C14.5009 7.20162 14.497 7.18207 14.484 7.16905Z" fill="#44546F"/>
<path d="M16.9607 14.9859L19.5987 12.348C19.6073 12.3394 19.6121 12.3278 19.6121 12.3157C19.6121 12.3035 19.6073 12.2919 19.5987 12.2834L16.9607 9.64537C16.9477 9.63239 16.9281 9.62851 16.9111 9.63554C16.8941 9.64257 16.883 9.65913 16.883 9.67751V14.9538C16.883 14.9722 16.8941 14.9887 16.9111 14.9958C16.9281 15.0028 16.9477 14.9989 16.9607 14.9859Z" fill="#44546F"/>
<path d="M9.14377 17.4626L11.7818 20.0997C11.7903 20.1083 11.8018 20.1131 11.8139 20.1131C11.826 20.1131 11.8376 20.1083 11.8461 20.0997L14.4841 17.4617C14.4972 17.4487 14.5013 17.429 14.4942 17.4119C14.4871 17.3948 14.4704 17.3837 14.4519 17.3837H9.17592C9.157 17.3833 9.13976 17.3946 9.13261 17.4121C9.12547 17.4296 9.12991 17.4497 9.14377 17.4626Z" fill="#44546F"/>
<path d="M6.66711 9.64537L4.02912 12.2834C4.02052 12.2919 4.01569 12.3035 4.01569 12.3157C4.01569 12.3278 4.02052 12.3394 4.02912 12.348L6.66711 14.9859C6.68013 14.9989 6.69968 15.0028 6.71667 14.9958C6.73366 14.9887 6.74475 14.9722 6.7448 14.9538V9.67751C6.74475 9.65913 6.73366 9.64257 6.71667 9.63554C6.69968 9.62851 6.68013 9.63239 6.66711 9.64537Z" fill="#44546F"/>
</svg>
