<svg width="24" height="25" viewBox="0 0 24 25" fill="none" xmlns="http://www.w3.org/2000/svg">
<path d="M1.45712 15.7896H6.04013C6.08469 15.7899 6.12518 15.7637 6.14318 15.723C6.16118 15.6822 6.15326 15.6347 6.12303 15.6019L6.11663 15.5952L3.83579 12.6445L3.81354 12.6198C3.7923 12.5965 3.7622 12.5832 3.73065 12.5833C3.7034 12.5838 3.67724 12.5941 3.65689 12.6122L3.64318 12.6281L3.62154 12.6521L1.39678 15.572L1.36265 15.6138C1.35006 15.6323 1.34336 15.6542 1.34345 15.6766C1.34345 15.7067 1.35544 15.7355 1.37678 15.7567C1.39811 15.778 1.42703 15.7898 1.45712 15.7896Z" fill="#44546F"/>
<path d="M6.02611 16.2069H1.43274C1.40291 16.2069 1.37431 16.2188 1.35322 16.2398C1.33213 16.2609 1.32028 16.2895 1.32028 16.3194V19.9125C1.3202 19.9424 1.332 19.9711 1.35309 19.9923C1.37418 20.0135 1.40283 20.0255 1.43274 20.0256H2.91114V17.7639C2.91106 17.7341 2.92288 17.7054 2.94399 17.6843C2.9651 17.6632 2.99375 17.6514 3.0236 17.6515H4.39503C4.42488 17.6514 4.45353 17.6632 4.47463 17.6843C4.49574 17.7054 4.50756 17.7341 4.50748 17.7639V20.0256H6.0252C6.0551 20.0255 6.08375 20.0135 6.10484 19.9923C6.12593 19.9711 6.13773 19.9424 6.13765 19.9125V16.3181C6.13699 16.2569 6.08739 16.2074 6.02611 16.2069Z" fill="#44546F"/>
<path fill-rule="evenodd" clip-rule="evenodd" d="M21.9014 15.2646H17.3553C17.3262 15.2641 17.2981 15.2753 17.2772 15.2956C17.2563 15.3159 17.2444 15.3437 17.2441 15.3728V19.9634C17.2451 20.0239 17.2948 20.0722 17.3553 20.0713H21.9014C21.9305 20.0718 21.9586 20.0607 21.9796 20.0405C22.0005 20.0202 22.0125 19.9925 22.013 19.9634V15.3728C22.0127 15.3436 22.0007 15.3158 21.9798 15.2955C21.9588 15.2751 21.9306 15.264 21.9014 15.2646ZM19.414 18.2616C19.4137 18.2907 19.4018 18.3185 19.381 18.3388C19.3602 18.3592 19.3322 18.3704 19.3031 18.3701H17.9447C17.9156 18.3705 17.8874 18.3593 17.8665 18.3389C17.8456 18.3186 17.8336 18.2908 17.8332 18.2616V17.4363C17.8335 17.4071 17.8455 17.3792 17.8664 17.3588C17.8873 17.3385 17.9155 17.3273 17.9447 17.3278H19.3031C19.3322 17.3274 19.3603 17.3386 19.3811 17.359C19.4019 17.3793 19.4138 17.4072 19.414 17.4363V18.2616ZM19.381 16.8132C19.4018 16.7928 19.4137 16.765 19.414 16.7359V15.91C19.4136 15.881 19.4017 15.8533 19.3809 15.8331C19.3601 15.8129 19.3321 15.8017 19.3031 15.8022H17.9447C17.8842 15.8013 17.8344 15.8495 17.8332 15.91V16.7359C17.8336 16.7651 17.8456 16.7929 17.8665 16.8133C17.8874 16.8336 17.9156 16.8448 17.9447 16.8444H19.3031C19.3322 16.8448 19.3602 16.8335 19.381 16.8132ZM21.49 18.2616C21.4897 18.2908 21.4777 18.3187 21.4568 18.339C21.4358 18.3594 21.4076 18.3706 21.3784 18.3701H20.0207C19.9915 18.3706 19.9633 18.3594 19.9424 18.339C19.9215 18.3187 19.9095 18.2908 19.9092 18.2616V17.4363C19.9095 17.4071 19.9215 17.3792 19.9424 17.3588C19.9633 17.3385 19.9915 17.3273 20.0207 17.3278H21.3784C21.4076 17.3273 21.4358 17.3385 21.4568 17.3588C21.4777 17.3792 21.4897 17.4071 21.49 17.4363V18.2616ZM21.4568 16.8134C21.4777 16.793 21.4897 16.7651 21.49 16.7359V15.91C21.4895 15.8809 21.4775 15.8532 21.4566 15.833C21.4356 15.8128 21.4075 15.8017 21.3784 15.8022H20.0207C19.9916 15.8017 19.9635 15.8128 19.9426 15.833C19.9217 15.8532 19.9097 15.8809 19.9092 15.91V16.7359C19.9095 16.7651 19.9215 16.793 19.9424 16.8134C19.9633 16.8337 19.9915 16.8449 20.0207 16.8444H21.3784C21.4076 16.8449 21.4358 16.8337 21.4568 16.8134Z" fill="#44546F"/>
<path fill-rule="evenodd" clip-rule="evenodd" d="M11.3332 4.60889H6.88367C6.85482 4.60897 6.82718 4.62051 6.80683 4.64097C6.78648 4.66143 6.7751 4.68914 6.77518 4.71799V19.9226C6.77534 19.9825 6.82377 20.031 6.88367 20.0314H11.3332C11.3933 20.0312 11.4421 19.9827 11.4426 19.9226V4.71738C11.4424 4.65707 11.3935 4.60828 11.3332 4.60828V4.60889ZM8.68669 18.2991C8.68669 18.3146 8.68052 18.3295 8.66955 18.3405C8.65858 18.3514 8.64369 18.3576 8.62818 18.3576H7.60966C7.57734 18.3576 7.55115 18.3314 7.55115 18.2991V17.1642C7.55115 17.1487 7.55732 17.1338 7.5683 17.1229C7.57928 17.112 7.59417 17.1059 7.60966 17.106H8.62818C8.64367 17.1059 8.65855 17.112 8.66953 17.1229C8.68052 17.1338 8.68669 17.1487 8.68669 17.1642V18.2991ZM8.66937 15.7329C8.68035 15.7221 8.68656 15.7073 8.68664 15.6919V14.5572C8.68672 14.5417 8.68058 14.5268 8.66959 14.5158C8.6586 14.5048 8.64367 14.4986 8.62812 14.4987H7.61083C7.59529 14.4986 7.58036 14.5048 7.56937 14.5158C7.55837 14.5268 7.55224 14.5417 7.55232 14.5572V15.6919C7.55248 15.7235 7.57794 15.7493 7.60961 15.7498H8.62812C8.64356 15.7499 8.6584 15.7438 8.66937 15.7329ZM8.68669 13.0852C8.68669 13.1008 8.68052 13.1156 8.66955 13.1266C8.65858 13.1376 8.64369 13.1437 8.62818 13.1437H7.60966C7.57734 13.1437 7.55115 13.1176 7.55115 13.0852V11.9497C7.55131 11.9175 7.57746 11.8915 7.60966 11.8915H8.62818C8.66037 11.8915 8.68652 11.9175 8.68669 11.9497V13.0852ZM8.62813 10.5365C8.66044 10.5365 8.68664 10.5103 8.68664 10.478V9.34245C8.68656 9.32704 8.68034 9.3123 8.66936 9.30149C8.65838 9.29068 8.64354 9.28469 8.62813 9.28485H7.61083C7.59542 9.28469 7.58058 9.29068 7.5696 9.30149C7.55862 9.3123 7.5524 9.32704 7.55232 9.34245V10.4774C7.55198 10.5095 7.57753 10.5358 7.60961 10.5365H8.62813ZM8.68669 7.87137C8.68652 7.90356 8.66037 7.92958 8.62818 7.92958H7.60966C7.57746 7.92958 7.55131 7.90356 7.55115 7.87137V6.73582C7.55115 6.70351 7.57734 6.67731 7.60966 6.67731H8.62818C8.64369 6.67731 8.65858 6.68347 8.66955 6.69445C8.68052 6.70542 8.68669 6.7203 8.68669 6.73582V7.87137ZM10.6671 18.3406C10.6782 18.3296 10.6844 18.3147 10.6844 18.2991V17.1642C10.6844 17.1486 10.6782 17.1337 10.6671 17.1228C10.6561 17.1119 10.6411 17.1058 10.6256 17.106H9.60735C9.59186 17.1059 9.57697 17.112 9.56599 17.1229C9.55501 17.1338 9.54883 17.1487 9.54883 17.1642V18.2991C9.54875 18.3146 9.55489 18.3296 9.56588 18.3406C9.57687 18.3516 9.59181 18.3577 9.60735 18.3576H10.6256C10.6411 18.3577 10.6561 18.3516 10.6671 18.3406ZM10.6843 15.6919C10.6844 15.7075 10.6782 15.7224 10.6672 15.7334C10.6561 15.7444 10.6411 15.7505 10.6255 15.7504H9.60729C9.59173 15.7505 9.57675 15.7444 9.56574 15.7334C9.55473 15.7224 9.54862 15.7074 9.54878 15.6919V14.5572C9.54862 14.5417 9.55473 14.5267 9.56574 14.5157C9.57675 14.5047 9.59173 14.4986 9.60729 14.4987H10.6255C10.6411 14.4986 10.6561 14.5047 10.6672 14.5157C10.6782 14.5267 10.6844 14.5416 10.6843 14.5572V15.6919ZM10.6671 13.1267C10.6782 13.1157 10.6844 13.1008 10.6844 13.0852V11.9497C10.6843 11.9342 10.6781 11.9193 10.667 11.9084C10.656 11.8975 10.6411 11.8914 10.6256 11.8915H9.60735C9.59186 11.8914 9.57697 11.8975 9.56599 11.9084C9.55501 11.9193 9.54883 11.9342 9.54883 11.9497V13.0852C9.54875 13.1008 9.55489 13.1157 9.56588 13.1267C9.57687 13.1377 9.59181 13.1438 9.60735 13.1437H10.6256C10.6411 13.1438 10.6561 13.1377 10.6671 13.1267ZM10.6844 10.478C10.6844 10.4936 10.6782 10.5085 10.6671 10.5195C10.6561 10.5305 10.6411 10.5366 10.6256 10.5365H9.60735C9.59181 10.5366 9.57687 10.5305 9.56588 10.5195C9.55489 10.5085 9.54875 10.4935 9.54883 10.478V9.34246C9.54891 9.32705 9.55514 9.3123 9.56612 9.30149C9.5771 9.29068 9.59194 9.2847 9.60735 9.28486H10.6256C10.641 9.28461 10.6559 9.29056 10.667 9.30138C10.678 9.3122 10.6843 9.32699 10.6844 9.34246V10.478ZM10.667 7.91265C10.6781 7.90173 10.6843 7.88688 10.6844 7.87136V6.73582C10.6844 6.72025 10.6782 6.70532 10.6671 6.69434C10.6561 6.68336 10.6411 6.67723 10.6256 6.67731H9.60735C9.59181 6.67723 9.57687 6.68336 9.56588 6.69436C9.55489 6.70535 9.54875 6.72028 9.54883 6.73582V7.87136C9.54883 7.88685 9.55501 7.90171 9.56599 7.91263C9.57697 7.92356 9.59186 7.92965 9.60735 7.92957H10.6256C10.6411 7.92965 10.656 7.92357 10.667 7.91265Z" fill="#44546F"/>
<path d="M22.0079 14.8026C22.0079 14.8531 21.9669 14.894 21.9165 14.894H17.3405C17.29 14.894 17.249 14.8531 17.249 14.8026V13.8883C17.249 13.8378 17.29 13.7969 17.3405 13.7969H21.9165C21.9669 13.7969 22.0079 13.8378 22.0079 13.8883V14.8026Z" fill="#44546F"/>
<path fill-rule="evenodd" clip-rule="evenodd" d="M16.7074 7.48005C16.6931 7.43005 16.6476 7.39544 16.5956 7.39502C16.5727 7.39561 16.5506 7.40293 16.5319 7.41605L16.5236 7.42153L16.4861 7.46908L12.1134 13.0157L12.0933 13.0429C12.0698 13.0657 12.0562 13.0967 12.0552 13.1294V19.9454C12.0553 19.9743 12.0668 20.0019 12.0873 20.0223C12.1077 20.0426 12.1355 20.054 12.1643 20.0539H16.609C16.6378 20.054 16.6655 20.0426 16.6859 20.0222C16.7063 20.0019 16.7178 19.9742 16.7178 19.9454V7.52576C16.7175 7.50997 16.714 7.4944 16.7074 7.48005ZM14.8666 10.4923L14.8971 10.4533C15.1961 10.0693 15.7005 9.4476 15.9461 9.1471L15.9784 9.1087C16.0025 9.07945 16.0383 9.06247 16.0762 9.06238C16.136 9.06268 16.1872 9.10539 16.1981 9.16417V10.5688C16.1978 10.6365 16.1439 10.6918 16.0762 10.6938H16.0707H16.065H14.9736H14.9681H14.9626C14.895 10.6916 14.8412 10.6365 14.8407 10.5688C14.8408 10.5412 14.8499 10.5143 14.8666 10.4923ZM14.1431 18.3377C14.1635 18.3173 14.1749 18.2896 14.1748 18.2607L14.1745 17.4308C14.1745 17.402 14.1631 17.3744 14.1426 17.354C14.1222 17.3336 14.0946 17.3222 14.0657 17.3223H12.7397C12.7109 17.3222 12.6832 17.3336 12.6628 17.354C12.6424 17.3744 12.6309 17.402 12.6309 17.4308V18.2607C12.6308 18.2896 12.6423 18.3173 12.6627 18.3377C12.6831 18.3581 12.7108 18.3696 12.7397 18.3695H14.066C14.0949 18.3696 14.1226 18.3581 14.1431 18.3377ZM14.1748 16.7271C14.1749 16.756 14.1635 16.7837 14.1431 16.8041C14.1226 16.8246 14.0949 16.836 14.066 16.8359H12.7397C12.7108 16.836 12.6831 16.8246 12.6627 16.8041C12.6423 16.7837 12.6308 16.756 12.6309 16.7271V15.8973C12.6308 15.8683 12.6422 15.8406 12.6626 15.8201C12.683 15.7997 12.7108 15.7883 12.7397 15.7885H14.0657C14.0946 15.7883 14.1224 15.7997 14.1428 15.8201C14.1633 15.8406 14.1747 15.8683 14.1745 15.8973L14.1748 16.7271ZM14.143 15.2704C14.1634 15.25 14.1748 15.2224 14.1748 15.1936L14.1745 14.3634C14.1746 14.3345 14.1632 14.3068 14.1428 14.2864C14.1223 14.266 14.0946 14.2545 14.0657 14.2546H12.7397C12.7108 14.2545 12.6831 14.266 12.6627 14.2864C12.6423 14.3068 12.6308 14.3345 12.6309 14.3634V15.1936C12.6309 15.2224 12.6424 15.25 12.6628 15.2704C12.6832 15.2908 12.7109 15.3021 12.7397 15.3021H14.066C14.0949 15.3021 14.1225 15.2908 14.143 15.2704ZM14.1785 11.833V13.6615C14.1783 13.7215 14.1297 13.7702 14.0697 13.7703H12.744C12.715 13.7705 12.6872 13.7591 12.6666 13.7387C12.6461 13.7183 12.6346 13.6905 12.6346 13.6615V13.4314C12.6351 13.4176 12.6378 13.4039 12.6428 13.3909C12.6447 13.3865 12.6469 13.3822 12.6495 13.3781C12.6523 13.373 12.6555 13.3682 12.6592 13.3638C12.6612 13.3604 12.6641 13.3564 12.667 13.3524L12.6714 13.3461C12.8409 13.1023 13.6058 12.1612 13.9271 11.7674L13.9594 11.7284C13.9834 11.6992 14.0193 11.6823 14.0572 11.6824C14.1168 11.6828 14.1679 11.7253 14.1791 11.7839L14.1785 11.833ZM16.1696 18.3376C16.19 18.3172 16.2015 18.2895 16.2015 18.2607V17.4308C16.2013 17.3709 16.1526 17.3223 16.0927 17.3223H14.7669C14.738 17.3222 14.7102 17.3335 14.6897 17.3539C14.6692 17.3742 14.6576 17.4019 14.6575 17.4308V18.2607C14.6575 18.2897 14.6691 18.3174 14.6896 18.3378C14.7101 18.3583 14.738 18.3697 14.7669 18.3695H16.0927C16.1215 18.3695 16.1492 18.358 16.1696 18.3376ZM16.2014 16.7271C16.2014 16.7872 16.1527 16.8359 16.0926 16.8359H14.7669C14.738 16.8361 14.7101 16.8247 14.6896 16.8043C14.6691 16.7839 14.6575 16.7561 14.6575 16.7271V15.8973C14.6574 15.8683 14.669 15.8405 14.6895 15.82C14.7101 15.7996 14.7379 15.7882 14.7669 15.7885H16.0926C16.1527 15.7885 16.2014 15.8372 16.2014 15.8973V16.7271ZM16.0927 15.3021C16.1526 15.3019 16.2011 15.2535 16.2015 15.1936V14.3634C16.2015 14.3033 16.1527 14.2546 16.0927 14.2546H14.7669C14.738 14.2544 14.7101 14.2658 14.6896 14.2863C14.6691 14.3067 14.6575 14.3344 14.6575 14.3634V15.1936C14.6576 15.2225 14.6692 15.2502 14.6897 15.2705C14.7102 15.2909 14.738 15.3022 14.7669 15.3021H16.0927ZM16.2015 13.6597C16.2013 13.7197 16.1526 13.7682 16.0927 13.7682H14.7669C14.738 13.7684 14.7102 13.757 14.6897 13.7367C14.6692 13.7163 14.6576 13.6886 14.6575 13.6597V12.8298C14.6575 12.8009 14.6691 12.7731 14.6896 12.7527C14.7101 12.7323 14.738 12.7209 14.7669 12.721H16.0927C16.1527 12.721 16.2015 12.7698 16.2015 12.8298V13.6597ZM16.1696 12.2028C16.19 12.1824 16.2014 12.1547 16.2014 12.1258V11.296C16.2015 11.2671 16.1901 11.2393 16.1697 11.2188C16.1493 11.1984 16.1216 11.1869 16.0926 11.1869H14.7669C14.7379 11.1867 14.71 11.1981 14.6895 11.2186C14.6689 11.2391 14.6574 11.267 14.6575 11.296V12.1258C14.6575 12.1548 14.6691 12.1826 14.6896 12.203C14.7101 12.2234 14.738 12.2348 14.7669 12.2346H16.0926C16.1215 12.2346 16.1492 12.2232 16.1696 12.2028Z" fill="#44546F"/>
</svg>
