<svg width="24" height="25" viewBox="0 0 24 25" fill="none" xmlns="http://www.w3.org/2000/svg">
<path d="M9.41415 13.6333C9.43291 13.6333 9.45089 13.6408 9.46416 13.654C9.47742 13.6673 9.48487 13.6853 9.48487 13.704V16.0343C9.48496 16.053 9.47753 16.0711 9.46425 16.0844C9.45097 16.0976 9.43293 16.1051 9.41415 16.105H8.47143C8.45262 16.1051 8.43455 16.0977 8.42122 16.0844C8.40789 16.0711 8.40039 16.0531 8.40039 16.0343V13.704C8.40039 13.6852 8.40789 13.6672 8.42122 13.6539C8.43455 13.6406 8.45262 13.6332 8.47143 13.6333H9.41415Z" fill="#44546F"/>
<path d="M19.7696 17.1052H4.23007C4.1904 17.1063 4.15884 17.1388 4.15903 17.1785V18.1283C4.15955 18.1671 4.19126 18.1982 4.23007 18.198H19.7696C19.8083 18.1979 19.8399 18.167 19.8409 18.1283V17.1785C19.8408 17.1388 19.8092 17.1064 19.7696 17.1052Z" fill="#44546F"/>
<path d="M19.7696 18.9929H4.23008C4.1916 18.9934 4.16052 19.0245 4.16 19.063V20.0156C4.1607 20.0544 4.19225 20.0856 4.23104 20.0857H19.7696C19.8084 20.0854 19.8399 20.0544 19.841 20.0156V19.063C19.8401 19.0242 19.8084 18.9931 19.7696 18.9929" fill="#44546F"/>
<path d="M16.8125 11.054C16.6185 10.902 16.1001 10.5475 15.4685 10.5475C15.0166 10.5475 14.5965 10.7254 14.2205 11.0777C14.1942 11.1028 14.1792 11.1374 14.1789 11.1737V11.2614C14.1769 11.3017 14.1933 11.3407 14.2233 11.3676C14.2537 11.3931 14.2943 11.4026 14.3328 11.3932C14.3427 11.3916 14.3524 11.3892 14.3619 11.3859C14.3911 11.3753 14.4176 11.3585 14.4397 11.3366C14.5209 11.2819 14.7437 11.2086 15.0621 11.2086C15.391 11.2086 16.0381 11.2969 16.6621 11.8806L16.6765 11.8934C16.712 11.9296 16.7607 11.95 16.8115 11.9497C16.861 11.9499 16.9084 11.93 16.943 11.8947L16.9558 11.8815C17.5843 11.2979 18.2301 11.2095 18.559 11.2095C18.879 11.2095 19.103 11.2844 19.183 11.3375C19.2075 11.3612 19.2369 11.3791 19.2691 11.39C19.299 11.3972 19.3302 11.397 19.36 11.3894C19.4177 11.3736 19.4577 11.3212 19.4579 11.2614V11.1865C19.4575 11.1502 19.4425 11.1156 19.4163 11.0905C19.0368 10.7289 18.6121 10.5465 18.1533 10.5465C17.527 10.5465 17.0112 10.8956 16.8115 11.0537" fill="#44546F"/>
<path d="M15.8483 4.86142C15.8151 4.87782 15.7904 4.90762 15.7805 4.94334L15.7648 4.99518C15.7527 5.03515 15.7603 5.0785 15.7853 5.11198C15.8078 5.14295 15.843 5.16221 15.8813 5.16446C15.8877 5.16572 15.8943 5.16572 15.9008 5.16446C15.9269 5.16408 15.9526 5.1575 15.9757 5.14526C16.0071 5.13778 16.0393 5.13423 16.0717 5.1347C16.1411 5.1347 16.7677 5.15582 17.1817 5.85982L17.1872 5.87006C17.2077 5.90922 17.2437 5.938 17.2864 5.94942C17.3025 5.95417 17.3192 5.95675 17.336 5.9571C17.3633 5.95717 17.3902 5.95058 17.4144 5.9379L17.4246 5.93278C17.6391 5.82239 17.8765 5.76366 18.1177 5.76126C18.5104 5.76126 18.7667 5.92126 18.8265 5.98814C18.839 6.01061 18.8561 6.03015 18.8768 6.04542C18.893 6.05481 18.9099 6.06294 18.9273 6.06974C18.9349 6.07165 18.9426 6.07273 18.9504 6.07294C18.9549 6.07343 18.9596 6.07343 18.9641 6.07294C18.9856 6.07283 19.0068 6.06756 19.0259 6.05758C19.0578 6.04116 19.0817 6.01236 19.0918 5.9779L19.1049 5.93214C19.1087 5.91992 19.1106 5.90718 19.1104 5.89438C19.1106 5.87083 19.1042 5.84769 19.0921 5.8275C18.7904 5.30366 18.3526 5.19422 18.038 5.19422C17.8469 5.1966 17.6577 5.23211 17.4787 5.29918C17.3366 5.10718 16.9766 4.71198 16.4307 4.71198C16.2277 4.7147 16.0282 4.76513 15.8483 4.85918" fill="#44546F"/>
<path d="M12.5648 7.25146L12.5693 7.32154C12.5717 7.36131 12.5918 7.3979 12.6241 7.42121C12.6564 7.44453 12.6975 7.45211 12.736 7.44186C12.7437 7.44004 12.7513 7.43769 12.7587 7.43482C12.7848 7.42402 12.8079 7.40699 12.8259 7.38522C12.8918 7.33754 13.1046 7.2505 13.4185 7.2505C13.7203 7.2505 14.1792 7.33114 14.647 7.71546L14.6579 7.72666C14.6912 7.75552 14.7338 7.77153 14.7779 7.77178H14.7894C14.8361 7.76864 14.8797 7.74767 14.9113 7.71322L14.9216 7.70138C15.4397 7.15322 15.9974 7.07194 16.2838 7.07194C16.488 7.07194 16.6326 7.11386 16.6889 7.14586C16.7125 7.16568 16.7401 7.18 16.7699 7.18778C16.7995 7.19522 16.8307 7.19378 16.8595 7.18362C16.9154 7.16384 16.9513 7.10934 16.9475 7.05018L16.944 6.98938C16.9417 6.95346 16.9248 6.92003 16.8973 6.8969C16.5881 6.63674 16.2544 6.50586 15.9033 6.50586C15.3568 6.50586 14.9206 6.82842 14.7401 6.98586C14.575 6.87322 14.1737 6.64154 13.7033 6.64154C13.2899 6.64154 12.9193 6.81338 12.6009 7.15098C12.5761 7.178 12.5631 7.21383 12.5648 7.2505" fill="#44546F"/>
<path d="M4.70117 8.49886C4.701 8.05192 4.87843 7.62322 5.19441 7.30712C5.51039 6.99102 5.93902 6.81342 6.38597 6.81342C6.42245 6.81342 6.45797 6.81662 6.49381 6.81886C6.5618 5.90378 7.17217 5.11882 8.04229 4.82746C8.91241 4.5361 9.87239 4.79522 10.4777 5.48484C11.083 6.17446 11.2155 7.15994 10.8138 7.98494C12.0837 8.26518 12.9384 9.45715 12.7964 10.7498C12.6543 12.0424 11.5612 13.0204 10.2609 13.0182C10.1581 13.0182 6.86149 12.9984 6.86149 12.9984C6.14172 12.9995 5.49039 12.572 5.20505 11.9112C4.91971 11.2504 5.05515 10.4831 5.54949 9.95998C5.02501 9.66046 4.70126 9.10285 4.70117 8.49886Z" fill="#44546F"/>
</svg>
