<svg width="24" height="25" viewBox="0 0 24 25" fill="none" xmlns="http://www.w3.org/2000/svg">
<path d="M17.9109 4.5332C17.9109 4.5332 17.5847 4.96646 17.6782 5.38886C17.7717 5.81126 18.2554 6.06222 18.2554 6.06222C18.2554 6.06222 18.5816 5.62896 18.4881 5.20695C18.3946 4.78494 17.9109 4.5332 17.9109 4.5332Z" fill="#44546F"/>
<path d="M17.3792 7.00937C17.3792 7.00937 17.7054 6.57572 17.6119 6.15371C17.5185 5.73169 17.0352 5.48035 17.0352 5.48035C17.0352 5.48035 16.7086 5.91361 16.8024 6.33601C16.8963 6.75841 17.3796 7.00937 17.3796 7.00937" fill="#44546F"/>
<path d="M18.72 6.54545C18.72 6.54545 19.0644 6.89455 19.4569 6.85809C19.8495 6.82162 20.14 6.41939 20.14 6.41939C20.14 6.41939 19.7959 6.0703 19.403 6.10637C19.0101 6.14245 18.72 6.54545 18.72 6.54545Z" fill="#44546F"/>
<path d="M19.2846 4.68832C18.9654 5.0122 19.0104 5.58549 19.0104 5.58549C19.0104 5.58549 19.5732 5.63436 19.8932 5.31087C20.2132 4.98738 20.1675 4.4137 20.1675 4.4137C20.1675 4.4137 19.6043 4.36483 19.2846 4.68832Z" fill="#44546F"/>
<path d="M18.5805 7.83363C18.9715 7.88018 19.3392 7.54427 19.3392 7.54427C19.3392 7.54427 19.0727 7.13196 18.6813 7.08735C18.29 7.04274 17.9222 7.3771 17.9222 7.3771C17.9222 7.3771 18.1887 7.78747 18.5797 7.83363" fill="#44546F"/>
<path d="M18.9296 14.627H16.0069C15.7785 14.627 15.5934 14.8121 15.5934 15.0404C15.5934 15.2688 15.7785 15.4539 16.0069 15.4539H18.9296C19.1579 15.4539 19.343 15.2688 19.343 15.0404C19.343 14.8121 19.1579 14.627 18.9296 14.627Z" fill="#44546F"/>
<path d="M18.9296 19.1849H16.0069C15.7785 19.1849 15.5934 19.3701 15.5934 19.5984C15.5934 19.8268 15.7785 20.0119 16.0069 20.0119H18.9296C19.1579 20.0119 19.343 19.8268 19.343 19.5984C19.343 19.3701 19.1579 19.1849 18.9296 19.1849Z" fill="#44546F"/>
<path d="M5.7847 13.7328C5.71808 13.6675 5.65036 13.6136 5.58185 13.5712C5.58185 13.5712 5.65671 13.6435 5.7847 13.7328Z" fill="#44546F"/>
<path fill-rule="evenodd" clip-rule="evenodd" d="M16.1134 15.7429H18.822C18.952 15.7427 19.0577 15.8479 19.0582 15.9779V18.6609C19.0577 18.791 18.9524 18.8963 18.8223 18.8967H16.1138C15.9838 18.8963 15.8786 18.7909 15.8783 18.6609V17.8413L14.1104 17.6474L5.46884 17.8452V16.7917L10.0962 16.8972V15.3868C9.54777 15.3451 9.00678 15.2342 8.48615 15.0567C8.04966 14.9073 7.58775 14.6181 7.13161 14.3326C6.66559 14.0409 6.20562 13.7529 5.78496 13.6216C6.23684 13.7251 7.35548 13.8985 8.15102 13.3501C8.6036 13.0377 8.86244 12.7793 9.07708 12.565C9.34534 12.2972 9.54458 12.0984 9.96668 11.949C8.60174 11.8331 7.6014 10.9922 7.20537 9.13033C6.82797 7.35695 6.56615 6.65916 5.81948 6.3411C6.91097 6.23521 8.50438 6.22435 10.3274 8.09237C11.7106 9.50735 13.1275 9.47205 14.2527 8.42401C15.378 7.37596 16.1673 6.87133 16.7806 7.55865C16.9151 7.70919 17.0577 7.85239 17.2076 7.98764C17.348 7.30653 17.7627 6.87753 18.173 6.45746L18.1799 6.45039C18.4032 6.2218 18.6341 5.9853 18.8107 5.71118L18.9573 5.80582C18.7684 6.09751 18.5307 6.34226 18.2979 6.57925C17.8771 7.01019 17.4683 7.43142 17.3565 8.11719C17.531 8.26733 17.7188 8.40107 17.9178 8.51671C17.7212 8.5039 17.5237 8.50987 17.3282 8.53455C17.3321 8.8883 17.4039 9.30294 17.5718 9.80718C17.5117 9.81339 17.4547 9.81843 17.3953 9.82153C17.2344 9.32893 17.1642 8.91506 17.1568 8.55938C16.9686 8.59049 16.7838 8.63945 16.6048 8.70561C15.9389 8.95579 15.4753 9.51821 15.5293 10.9669C15.5836 12.3893 15.0413 14.445 12.5546 15.1463C12.2177 15.2411 11.8743 15.3109 11.5271 15.355V16.9333L14.11 16.9922L15.878 16.7983V15.9779C15.8782 15.8481 15.9835 15.7429 16.1134 15.7429ZM11.101 15.3965C10.9074 15.4097 10.7154 15.4155 10.5215 15.4124V16.9104L11.101 16.9236V15.3965Z" fill="#44546F"/>
<path d="M5.21566 17.6745C5.21566 17.8968 5.06051 18.0768 4.86967 18.0768H4.66138C4.47054 18.0768 4.315 17.8968 4.315 17.6745V16.9453C4.315 16.7231 4.47015 16.5431 4.66138 16.5431H4.86967C5.06051 16.5431 5.21566 16.7231 5.21566 16.9453V17.6745Z" fill="#44546F"/>
</svg>
