<svg width="24" height="25" viewBox="0 0 24 25" fill="none" xmlns="http://www.w3.org/2000/svg">
<path fill-rule="evenodd" clip-rule="evenodd" d="M12 8.1152C10.193 8.11446 8.56349 9.20243 7.87149 10.8717C7.1795 12.5409 7.5613 14.4627 8.83883 15.7407C10.1164 17.0186 12.038 17.4011 13.7075 16.7096C15.377 16.0182 16.4655 14.3891 16.4653 12.5821C16.4655 10.1156 14.4665 8.11588 12 8.1152ZM11.6693 9.87978C11.6693 9.73136 11.8183 9.5674 12.0018 9.5674C12.1852 9.5674 12.3324 9.73136 12.3324 9.87978V11.4136C12.3324 11.5615 12.1846 11.7236 12.0018 11.7236C11.8189 11.7236 11.6693 11.5615 11.6693 11.4136V9.87978ZM9.70655 12.8965C9.87893 14.0305 10.853 14.869 12 14.8709C13.1489 14.8706 14.1252 14.0306 14.2969 12.8946C14.4686 11.7585 13.7842 10.6675 12.6866 10.3278V11.193C13.3142 11.5105 13.6422 12.2171 13.4795 12.9014C13.3168 13.5857 12.706 14.0691 12.0026 14.0702C11.2992 14.0713 10.6869 13.5898 10.5221 12.906C10.3573 12.2222 10.6831 11.5146 11.3097 11.1951V10.3299C10.2151 10.6725 9.53417 11.7626 9.70655 12.8965Z" fill="#44546F"/>
<path d="M6.87174 12.5431C6.87174 12.3404 6.69224 12.1774 6.52858 12.1774H4.57231C4.40744 12.1774 4.22641 12.3413 4.22641 12.5431C4.22641 12.7448 4.40744 12.9109 4.57231 12.9109H6.52858C6.69224 12.9109 6.87174 12.7461 6.87174 12.5431Z" fill="#44546F"/>
<path d="M19.7735 12.5431C19.7735 12.3404 19.594 12.1774 19.4304 12.1774H17.4744C17.3095 12.1774 17.1285 12.3413 17.1285 12.5431C17.1285 12.7448 17.3095 12.9109 17.4744 12.9109H19.4304C19.594 12.9109 19.7735 12.7461 19.7735 12.5431Z" fill="#44546F"/>
<path d="M12 7.41548C12.202 7.41548 12.3657 7.23597 12.3657 7.07231V5.11605C12.3657 4.95117 12.2014 4.77014 12 4.77014C11.7985 4.77014 11.6315 4.95117 11.6315 5.11605V7.07231C11.6315 7.23597 11.797 7.41548 12 7.41548Z" fill="#44546F"/>
<path d="M12 20.317C12.202 20.317 12.3657 20.1375 12.3657 19.9738V18.0178C12.3657 17.8533 12.2014 17.6719 12 17.6719C11.7985 17.6719 11.6315 17.8533 11.6315 18.0178V19.9738C11.6315 20.1375 11.797 20.317 12 20.317Z" fill="#44546F"/>
<path d="M7.55045 9.99559C7.65133 9.81974 7.57727 9.58842 7.43464 9.50797L5.73712 8.53639C5.59388 8.45441 5.35555 8.50591 5.25468 8.68267C5.1538 8.85943 5.22938 9.09197 5.37232 9.17395L7.07015 10.1455C7.21216 10.2269 7.44988 10.173 7.55045 9.9965" fill="#44546F"/>
<path d="M18.7471 16.4041C18.8473 16.2289 18.7733 15.9969 18.6313 15.9165L16.9337 14.9449C16.7905 14.8632 16.5519 14.9144 16.4513 15.0915C16.3507 15.2686 16.4257 15.5008 16.5686 15.5825L18.2665 16.554C18.4085 16.6354 18.6462 16.5815 18.7471 16.405" fill="#44546F"/>
<path d="M14.5481 8.09325C14.7236 8.19352 14.9549 8.11946 15.0357 7.97744L16.0069 6.27962C16.0892 6.13638 16.0374 5.89775 15.861 5.79718C15.6845 5.69661 15.4514 5.77158 15.3697 5.91482L14.399 7.61264C14.3177 7.75497 14.3716 7.99268 14.5481 8.09356" fill="#44546F"/>
<path d="M8.13958 19.2908C8.31512 19.3911 8.54643 19.317 8.62719 19.1747L9.59847 17.4772C9.68045 17.3343 9.62895 17.0953 9.45219 16.9948C9.27542 16.8942 9.0438 16.9688 8.96213 17.1124L7.99055 18.8099C7.90917 18.9519 7.96312 19.1899 8.13958 19.2908Z" fill="#44546F"/>
<path d="M9.44424 8.09754C9.61948 7.99666 9.67251 7.75925 9.59083 7.61723L8.6156 5.92153C8.53331 5.7786 8.30108 5.70363 8.12554 5.80451C7.95 5.90538 7.89666 6.14493 7.97925 6.28786L8.95449 7.98325C9.03647 8.12527 9.26839 8.19872 9.44485 8.09754" fill="#44546F"/>
<path d="M15.8757 19.282C16.0512 19.1811 16.1039 18.9437 16.0226 18.802L15.0473 17.1063C14.965 16.9631 14.7328 16.8881 14.557 16.989C14.3811 17.0899 14.3281 17.3294 14.411 17.4726L15.3862 19.168C15.4679 19.31 15.7001 19.3832 15.8763 19.282" fill="#44546F"/>
<path d="M16.4461 9.98765C16.547 10.1632 16.7841 10.2159 16.9261 10.1345L18.6215 9.15931C18.7648 9.07703 18.8403 8.8445 18.7392 8.66895C18.638 8.49341 18.399 8.44038 18.2558 8.52267L16.5604 9.4979C16.4181 9.57958 16.345 9.81211 16.4461 9.98796" fill="#44546F"/>
<path d="M5.26169 16.4203C5.36256 16.5958 5.59967 16.6485 5.74199 16.5669L7.43738 15.5916C7.58032 15.5093 7.6559 15.2768 7.55441 15.1013C7.45293 14.9257 7.2143 14.8727 7.07136 14.9547L5.37597 15.9299C5.23365 16.0113 5.16051 16.2441 5.26169 16.42" fill="#44546F"/>
</svg>
