<svg width="24" height="25" viewBox="0 0 24 25" fill="none" xmlns="http://www.w3.org/2000/svg">
<path d="M7 6.3994V16.3954C7 16.9414 7.446 17.3974 7.995 17.3974H16.005C16.545 17.3974 17 16.9484 17 16.3954V6.3994C17 5.8534 16.554 5.3974 16.005 5.3974H7.995C7.455 5.3974 7 5.8464 7 6.3994ZM5 6.3994C5.00079 5.60467 5.31636 4.84262 5.87766 4.28001C6.43896 3.7174 7.20028 3.40004 7.995 3.3974H16.005C16.7999 3.39952 17.5615 3.7167 18.1229 4.27943C18.6843 4.84215 18.9997 5.60451 19 6.3994V16.3954C18.9992 17.1901 18.6836 17.9522 18.1223 18.5148C17.561 19.0774 16.7997 19.3948 16.005 19.3974H7.995C7.20011 19.3953 6.43849 19.0781 5.87708 18.5154C5.31567 17.9526 5.00026 17.1903 5 16.3954V6.3994Z" fill="#44546F"/>
<path fill-rule="evenodd" clip-rule="evenodd" d="M9 7.3974H15V11.3974H9V7.3974ZM9 13.3974H15V15.3974H9V13.3974ZM10 21.2544V20.3974H7V21.2544L8.5 20.3974L10 21.2544ZM7 18.3974H10V20.3974H7V18.3974Z" fill="#44546F"/>
</svg>
