<svg width="24" height="25" viewBox="0 0 24 25" fill="none" xmlns="http://www.w3.org/2000/svg">
<path fill-rule="evenodd" clip-rule="evenodd" d="M4.977 11.3975C4.71487 11.4006 4.46472 11.5077 4.28152 11.6952C4.09832 11.8828 3.99707 12.1353 4 12.3975C4 12.9485 4.437 13.3975 4.977 13.3975H16.023C16.285 13.394 16.535 13.2868 16.7182 13.0994C16.9013 12.9119 17.0027 12.6595 17 12.3975C17.0027 12.1354 16.9013 11.883 16.7182 11.6955C16.535 11.5081 16.285 11.4009 16.023 11.3975H4.977Z" fill="#626F86"/>
<path fill-rule="evenodd" clip-rule="evenodd" d="M6.231 8.70346L3.301 11.6595C3.10776 11.8565 2.99951 12.1215 2.99951 12.3975C2.99951 12.6734 3.10776 12.9384 3.301 13.1355L6.231 16.0925C6.32708 16.189 6.4413 16.2657 6.5671 16.318C6.69289 16.3702 6.82777 16.3972 6.964 16.3972C7.10023 16.3972 7.23511 16.3702 7.36091 16.318C7.4867 16.2657 7.60092 16.189 7.697 16.0925C7.89181 15.8958 8.00109 15.6302 8.00109 15.3535C8.00109 15.0767 7.89181 14.8111 7.697 14.6145L5.5 12.3985L7.697 10.1805C7.8915 9.98388 8.0006 9.7185 8.0006 9.44196C8.0006 9.16542 7.8915 8.90004 7.697 8.70346C7.60099 8.60677 7.48679 8.53003 7.36099 8.47766C7.23519 8.4253 7.10027 8.39833 6.964 8.39833C6.82774 8.39833 6.69282 8.4253 6.56702 8.47766C6.44121 8.53003 6.32702 8.60677 6.231 8.70346ZM12 3.39746V5.39746H19V19.3975H12V21.3975H19.006C20.106 21.3975 21 20.5045 21 19.4025V5.39246C21.0003 5.13048 20.9489 4.87103 20.8488 4.62893C20.7487 4.38683 20.6018 4.16684 20.4166 3.98155C20.2314 3.79626 20.0115 3.6493 19.7695 3.54907C19.5274 3.44885 19.268 3.39733 19.006 3.39746H12Z" fill="#626F86"/>
</svg>
