<svg width="24" height="25" viewBox="0 0 24 25" fill="none" xmlns="http://www.w3.org/2000/svg">
<path fill-rule="evenodd" clip-rule="evenodd" d="M4 5.4074C4 4.8484 4.443 4.3974 5.01 4.3974H6.99C7.549 4.3974 8 4.8404 8 5.4074V7.3874C8 7.9464 7.557 8.3974 6.99 8.3974H5.01C4.451 8.3974 4 7.9544 4 7.3874V5.4074ZM4 11.4074C4 10.8494 4.443 10.3974 5.01 10.3974H6.99C7.548 10.3974 8 10.8404 8 11.4074V13.3874C8 13.9464 7.557 14.3974 6.99 14.3974H5.01C4.451 14.3974 4 13.9544 4 13.3874V11.4074ZM10 5.4074C10 4.8494 10.443 4.3974 11.01 4.3974H12.99C13.548 4.3974 14 4.8404 14 5.4074V7.3874C14 7.9464 13.557 8.3974 12.99 8.3974H11.01C10.451 8.3974 10 7.9544 10 7.3874V5.4074ZM10 11.4074C10 10.8494 10.443 10.3974 11.01 10.3974H12.99C13.548 10.3974 14 10.8404 14 11.4074V13.3874C14 13.9454 13.557 14.3974 12.99 14.3974H11.01C10.452 14.3974 10 13.9544 10 13.3874V11.4074ZM16 5.4074C16 4.8494 16.443 4.3974 17.01 4.3974H18.99C19.548 4.3974 20 4.8404 20 5.4074V7.3874C20 7.9464 19.557 8.3974 18.99 8.3974H17.01C16.451 8.3974 16 7.9544 16 7.3874V5.4074ZM16 11.4074C16 10.8494 16.443 10.3974 17.01 10.3974H18.99C19.548 10.3974 20 10.8404 20 11.4074V13.3874C20 13.9454 19.557 14.3974 18.99 14.3974H17.01C16.452 14.3974 16 13.9544 16 13.3874V11.4074ZM4 17.4074C4 16.8494 4.443 16.3974 5.01 16.3974H6.99C7.548 16.3974 8 16.8404 8 17.4074V19.3874C8 19.9464 7.557 20.3974 6.99 20.3974H5.01C4.451 20.3974 4 19.9544 4 19.3874V17.4074ZM10 17.4074C10 16.8494 10.443 16.3974 11.01 16.3974H12.99C13.548 16.3974 14 16.8404 14 17.4074V19.3874C14 19.9454 13.557 20.3974 12.99 20.3974H11.01C10.452 20.3974 10 19.9544 10 19.3874V17.4074ZM16 17.4074C16 16.8494 16.443 16.3974 17.01 16.3974H18.99C19.548 16.3974 20 16.8404 20 17.4074V19.3874C20 19.9454 19.557 20.3974 18.99 20.3974H17.01C16.452 20.3974 16 19.9544 16 19.3874V17.4074Z" fill="#626F86"/>
</svg>
