<svg width="24" height="25" viewBox="0 0 24 25" fill="none" xmlns="http://www.w3.org/2000/svg">
<path fill-rule="evenodd" clip-rule="evenodd" d="M11.701 17.0975C11.0383 17.1068 10.3802 16.9844 9.76522 16.7372C9.15019 16.4901 8.59042 16.1232 8.11843 15.6578C7.64644 15.1925 7.27165 14.6379 7.01584 14.0265C6.76002 13.415 6.62829 12.7588 6.62829 12.096C6.62829 11.4331 6.76002 10.7769 7.01584 10.1654C7.27165 9.55398 7.64644 8.99945 8.11843 8.53409C8.59042 8.06873 9.15019 7.70181 9.76522 7.45467C10.3802 7.20753 11.0383 7.08508 11.701 7.09445C13.0276 7.09445 14.2999 7.62145 15.238 8.5595C16.176 9.49756 16.703 10.7698 16.703 12.0965C16.703 13.4231 16.176 14.6953 15.238 15.6334C14.2999 16.5715 13.0276 17.0985 11.701 17.0985V17.0975ZM20.069 13.9815C19.6764 13.8464 19.3357 13.5922 19.0944 13.2543C18.8532 12.9164 18.7233 12.5116 18.723 12.0965C18.723 11.2205 19.286 10.4835 20.068 10.2115C20.1834 10.1734 20.2801 10.093 20.3386 9.9865C20.397 9.87997 20.4129 9.75523 20.383 9.63745C20.1859 8.94178 19.9052 8.27256 19.547 7.64445C19.4879 7.54494 19.3947 7.4703 19.2847 7.43442C19.1747 7.39855 19.0554 7.40389 18.949 7.44945C18.539 7.61523 18.0863 7.64331 17.659 7.52945C17.3235 7.4398 17.0174 7.26384 16.7711 7.01909C16.5247 6.77434 16.3468 6.46934 16.255 6.13445C16.1383 5.70539 16.165 5.24995 16.331 4.83745C16.376 4.73106 16.3809 4.61197 16.3449 4.50222C16.3089 4.39247 16.2343 4.29948 16.135 4.24045C15.512 3.88735 14.8489 3.61005 14.16 3.41445C14.0424 3.38425 13.9176 3.39989 13.811 3.45818C13.7045 3.51648 13.624 3.61309 13.586 3.72845C13.4509 4.12106 13.1967 4.46175 12.8589 4.70303C12.521 4.9443 12.1162 5.07414 11.701 5.07445C11.2861 5.07416 10.8816 4.94442 10.5439 4.70333C10.2061 4.46224 9.95206 4.1218 9.81701 3.72945C9.77857 3.6141 9.69795 3.51755 9.59132 3.45913C9.48468 3.40071 9.35991 3.38476 9.24201 3.41445C8.53401 3.61445 7.86301 3.89945 7.23801 4.25645C7.14062 4.31352 7.06702 4.40373 7.03066 4.51059C6.99431 4.61746 6.99762 4.73383 7.04001 4.83845C7.18928 5.20227 7.22809 5.60198 7.15161 5.98772C7.07513 6.37345 6.88675 6.72812 6.60997 7.00746C6.33319 7.2868 5.98027 7.47845 5.59525 7.55847C5.21024 7.6385 4.81018 7.60336 4.44501 7.45745C4.33885 7.41303 4.22023 7.40839 4.11093 7.4444C4.00162 7.4804 3.90898 7.55463 3.85001 7.65345C3.49279 8.28202 3.21308 8.95157 3.01701 9.64745C2.98732 9.76405 3.0025 9.88754 3.05954 9.99348C3.11658 10.0994 3.21133 10.1801 3.32501 10.2195C3.71203 10.3579 4.04684 10.6125 4.28366 10.9485C4.52047 11.2845 4.64772 11.6854 4.64801 12.0965C4.64801 12.9635 4.09601 13.6955 3.32401 13.9735C3.21062 14.0126 3.11605 14.0929 3.05902 14.1985C3.00199 14.304 2.98664 14.4271 3.01601 14.5435C3.19206 15.1643 3.43446 15.7645 3.73901 16.3335C3.79879 16.4391 3.89663 16.518 4.01257 16.5541C4.12852 16.5901 4.25384 16.5806 4.36301 16.5275C4.95801 16.2545 5.70601 16.2635 6.46701 16.7655C6.58401 16.8425 6.69201 16.9505 6.76901 17.0655C7.29601 17.8655 7.28101 18.6455 6.96701 19.2535C6.90945 19.3598 6.89478 19.4841 6.92603 19.6009C6.95727 19.7177 7.03205 19.8181 7.13501 19.8815C7.79696 20.2697 8.50611 20.5712 9.24501 20.7785C9.36202 20.8088 9.48619 20.7933 9.59215 20.7351C9.6981 20.6769 9.77782 20.5805 9.81501 20.4655C9.94895 20.0714 10.2028 19.7291 10.541 19.4864C10.8792 19.2438 11.2848 19.1131 11.701 19.1125C12.579 19.1125 13.319 19.6795 13.588 20.4655C13.6254 20.5803 13.7052 20.6766 13.8111 20.7348C13.9169 20.7929 14.041 20.8085 14.158 20.7785C14.8872 20.5734 15.5874 20.2767 16.242 19.8955C16.3456 19.8319 16.4207 19.7309 16.4518 19.6134C16.4829 19.4959 16.4676 19.3709 16.409 19.2645C16.091 18.6565 16.072 17.8715 16.6 17.0695C16.677 16.9535 16.785 16.8445 16.902 16.7675C17.674 16.2565 18.429 16.2545 19.027 16.5375C19.1361 16.5921 19.262 16.6029 19.3789 16.5676C19.4957 16.5322 19.5945 16.4535 19.655 16.3475C19.9619 15.7779 20.206 15.1767 20.383 14.5545C20.4132 14.4369 20.3975 14.3123 20.3392 14.2059C20.2809 14.0995 20.1843 14.0193 20.069 13.9815Z" fill="#626F86"/>
</svg>
