<svg width="210" height="206" viewBox="0 0 210 206" fill="none" xmlns="http://www.w3.org/2000/svg">
<g id="Faucet">
<g id="faucet">
<path id="Vector" d="M72.5855 10.7225C65.6654 6.70595 56.1159 7.27053 45.5825 13.368C24.4512 25.5145 7.33643 55.179 7.33643 79.5526C7.33643 91.7636 11.6433 100.345 18.628 104.313L27.0482 109.153C33.9522 113.153 43.5178 112.588 54.0673 106.491C75.1664 94.3123 92.2812 64.68 92.2812 40.3548C92.2812 28.176 88.0065 19.6267 81.1025 15.6424C79.6507 14.7875 73.9888 11.5291 72.5855 10.7225Z" fill="#37474F"/>
<path id="Vector_2" d="M7.70743 73.6165C7.4809 75.5874 7.35707 77.5688 7.33643 79.5526C7.33643 91.7636 11.6433 100.345 18.628 104.313L27.0482 109.153C33.9522 113.153 43.5178 112.588 54.0673 106.491C55.7791 105.504 57.4375 104.427 59.0356 103.265L7.70743 73.6165Z" fill="#263238"/>
<path id="Vector_3" d="M81.0538 77.9952C95.976 52.1492 95.9768 24.2131 81.0555 15.5983C66.1342 6.98354 41.9413 20.9522 27.0191 46.7983C12.0969 72.6443 12.0961 100.58 27.0173 109.195C41.9386 117.81 66.1315 103.841 81.0538 77.9952Z" fill="#455A64"/>
<path id="Vector_4" d="M85.3609 105.814C88.1676 107.427 92.0551 107.201 96.3298 104.733C104.911 99.7808 111.848 87.7472 111.848 77.859C111.848 72.923 110.122 69.4549 107.331 67.8257L65.9394 43.9199C63.1326 42.3068 59.2451 42.5326 54.9705 45.0168C46.405 49.9528 39.4526 61.9864 39.4526 71.8907C39.4526 76.8267 41.1948 80.3593 43.9693 81.9724L85.3609 105.814Z" fill="#455A64"/>
<path id="Vector_5" opacity="0.1" d="M111.412 73.9069L58.6 43.4358C57.3298 43.8257 56.1112 44.3673 54.9706 45.0489C53.7426 45.7594 52.5818 46.58 51.5024 47.5007L110.751 81.6819L111.574 81.3593C111.752 80.2009 111.843 79.0309 111.848 77.8589C111.853 76.5293 111.707 75.2034 111.412 73.9069Z" fill="white"/>
<path id="Vector_6" d="M96.3298 104.733C98.3426 103.536 100.187 102.077 101.814 100.393L69.3753 81.6818C57.5998 74.8746 49.2763 71.471 47.6309 62.3248C47.0782 58.8245 47.603 55.2389 49.1357 52.0438C50.6684 48.8487 53.1365 46.1953 56.2125 44.4358C55.7931 44.6294 55.3899 44.8391 54.9705 45.081C46.405 50.017 39.4526 62.0506 39.4526 71.9549C39.4526 76.8264 41.1948 80.3591 43.9693 81.9721L85.3286 105.862C88.1676 107.427 92.0551 107.201 96.3298 104.733Z" fill="#37474F"/>
<path id="Vector_7" d="M175.516 114.427C175.68 111.408 174.739 108.432 172.87 106.055C172.616 105.772 172.341 105.507 172.048 105.265C171.819 105.08 171.576 104.913 171.322 104.765L171.064 104.571H171.177C165.676 101.345 148.868 79.9881 132.882 70.6968C117.832 62.0023 112.735 70.6968 107.412 67.6803C104.605 66.0672 100.685 66.3414 96.4104 68.8256C87.845 73.7616 80.8926 85.7952 80.8926 95.6995C80.8926 100.636 82.6347 104.12 85.4415 105.733C90.7646 108.814 95.7652 123.477 110.815 132.091C126.785 141.301 143.609 139.22 149.11 142.398C151.916 144.011 155.788 143.785 160.079 141.301C168.644 136.365 175.613 124.332 175.596 114.443C175.532 114.492 175.516 114.46 175.516 114.427Z" fill="#455A64"/>
<path id="Vector_8" opacity="0.1" d="M164.805 114.75C167.144 116.008 169.999 114.992 172.87 113.137C172.56 111.311 171.775 109.597 170.596 108.169C170.342 107.885 170.067 107.621 169.773 107.378C169.546 107.192 169.303 107.024 169.047 106.878L168.789 106.685H168.902C163.402 103.458 147.093 83.8918 130.608 72.81C126.682 69.9471 122.179 67.9763 117.413 67.0352C114.864 67.4223 112.832 68.1643 110.96 68.3901C116.122 67.9224 130.35 75.4232 137.528 86.8115C144.803 98.5225 157.595 110.863 164.805 114.75Z" fill="white"/>
<path id="Vector_9" d="M158.724 141.382C153.191 136.688 143.287 136.285 129.269 130.703C115.252 125.122 103.589 109.733 101.508 95.4254C99.4274 81.1174 102.492 68.5031 110.316 68.4386C109.281 68.5143 108.247 68.2783 107.348 67.7611C104.541 66.148 100.621 66.4223 96.3464 68.9064C87.781 73.8424 80.8286 85.876 80.8286 95.7803C80.8286 100.716 82.5707 104.201 85.3775 105.814C90.7007 108.895 95.7012 123.558 110.751 132.171C126.721 141.382 143.545 139.301 149.046 142.479C151.643 143.979 155.192 143.866 159.111 141.866C159.011 141.684 158.88 141.52 158.724 141.382Z" fill="#37474F"/>
<path id="Vector_10" d="M157.03 190.258C157.03 194.113 159.563 197.985 164.644 200.937C174.855 206.841 191.421 206.824 201.632 200.937C206.729 197.985 209.278 194.113 209.278 190.258V169.288C209.278 165.433 206.729 161.561 201.632 158.626C191.421 152.722 174.855 152.706 164.644 158.626C159.563 161.561 157.03 165.433 157.03 169.288V190.258Z" fill="#37474F"/>
<path id="Vector_11" d="M209.278 169.272C209.278 165.417 206.729 161.546 201.632 158.61C191.421 152.706 174.855 152.69 164.644 158.61C154.433 164.53 154.481 174.063 164.644 179.951C174.806 185.839 191.421 185.839 201.632 179.951C206.729 176.999 209.278 173.144 209.278 169.272Z" fill="#455A64"/>
<path id="Vector_12" d="M205.084 167.643V154.222C205.084 145.094 202.679 136.126 198.112 128.222C193.544 120.319 186.975 113.758 179.065 109.201L171.258 104.701C168.435 102.878 164.45 103.087 159.966 105.555C151.384 110.491 144.448 122.541 144.448 132.429C144.448 137.382 146.19 140.85 148.997 142.479L154.627 145.705C156.609 146.851 158.257 148.497 159.406 150.478C160.555 152.459 161.165 154.706 161.176 156.997V167.562C161.176 170.788 163.305 174.015 167.628 176.515C176.194 181.483 190.082 181.467 198.648 176.515C202.938 174.127 205.084 170.885 205.084 167.643Z" fill="#455A64"/>
<path id="Vector_13" opacity="0.1" d="M202.713 154.851C202.712 145.905 200.358 137.116 195.888 129.367C191.417 121.617 184.987 115.18 177.242 110.701L165.064 103.652L156.466 108.62L171.516 117.331C178.384 121.313 184.086 127.031 188.049 133.91C192.013 140.789 194.099 148.589 194.099 156.529V178.563C195.69 178.069 197.226 177.409 198.68 176.596C200.2 175.747 201.573 174.657 202.745 173.369L202.713 154.851Z" fill="white"/>
<path id="Vector_14" d="M171.258 104.7C167.935 102.894 164.031 103.862 160.983 105.588C157.867 107.406 155.13 109.804 152.917 112.653C150.614 115.453 148.719 118.565 147.287 121.896C145.783 125.228 144.845 128.788 144.513 132.429C144.362 128.705 144.994 124.99 146.368 121.525C147.718 118.033 149.595 114.769 151.933 111.846C154.282 108.905 157.215 106.483 160.547 104.733C162.229 103.843 164.072 103.294 165.967 103.12C167.86 103.024 169.728 103.582 171.258 104.7Z" fill="#37474F"/>
<path id="Vector_15" d="M172.806 155.012C172.806 142.559 169.209 139.301 162.466 135.413C155.724 131.526 147.352 124.122 149.223 116.831C146.327 121.535 144.699 126.909 144.497 132.429C144.497 137.381 146.239 140.85 149.045 142.479L154.675 145.705C156.658 146.851 158.305 148.497 159.454 150.478C160.603 152.459 161.214 154.706 161.224 156.996V167.562C161.224 170.788 163.353 174.014 167.677 176.515C176.242 181.483 190.131 181.467 198.696 176.515C195.235 177.444 191.605 177.547 188.097 176.816C184.589 176.085 181.302 174.539 178.5 172.305C173.903 168.53 172.806 163.094 172.806 155.012Z" fill="#37474F"/>
<path id="Vector_16" d="M167.628 176.595C170.917 178.128 174.439 179.099 178.049 179.467C181.624 179.886 185.24 179.804 188.792 179.225C192.344 178.751 195.775 177.612 198.906 175.87C201.939 174.144 204.778 171.369 205.084 167.643C205.15 169.522 204.582 171.369 203.471 172.885C202.36 174.402 200.976 175.699 199.39 176.708C196.2 178.654 192.65 179.938 188.953 180.483C185.287 181.056 181.554 181.056 177.888 180.483C174.234 179.916 170.74 178.592 167.628 176.595Z" fill="#37474F"/>
<path id="Vector_17" d="M181.275 13.1904C181.253 10.4621 180.155 7.8528 178.218 5.93111C176.281 4.00943 173.663 2.93113 170.935 2.93122C169.178 2.925 167.449 3.37523 165.918 4.23781C156.643 9.5771 141.077 23.5948 137.012 26.1112C136.621 26.4182 136.313 26.8181 136.115 27.2744C135.918 27.7308 135.838 28.2292 135.883 28.7244C135.962 30.16 136.379 31.5567 137.099 32.8011C137.819 34.0455 138.823 35.1025 140.028 35.8864C140.449 36.1954 140.947 36.3829 141.468 36.4284C141.988 36.4739 142.511 36.3757 142.98 36.1445C147.561 33.7894 167.176 27.3855 176.064 22.2398C177.659 21.3307 178.982 20.013 179.898 18.4224C180.814 16.8318 181.289 15.0258 181.275 13.1904Z" fill="#0A97D9"/>
<path id="Vector_18" opacity="0.25" d="M161.869 9.02887C161.666 9.2382 161.528 9.50174 161.47 9.78786C161.413 10.074 161.44 10.3705 161.547 10.642C161.869 11.1743 162.611 11.384 164.079 11.3678C166.063 11.3678 167.886 11.0614 169.87 10.9968C171.554 11.059 173.233 10.7791 174.806 10.1742C178.581 8.39978 175.419 4.68969 171.967 4.46386C170.045 4.38355 168.13 4.75462 166.376 5.54734C164.623 6.34006 163.079 7.53241 161.869 9.02887Z" fill="white"/>
<path id="Vector_19" opacity="0.2" d="M168.015 21.756C157.705 25.1574 147.656 29.3032 137.947 34.1605C138.494 34.8494 139.161 35.4341 139.915 35.8865C140.337 36.1955 140.835 36.383 141.355 36.4285C141.876 36.474 142.399 36.3758 142.867 36.1446C147.448 33.7895 167.063 27.3856 175.951 22.2399C177.18 21.5617 178.258 20.6396 179.118 19.5302C179.978 18.4207 180.603 17.1473 180.953 15.788C181.303 14.4286 181.372 13.0121 181.156 11.6251C180.939 10.2381 180.442 8.91001 179.694 7.72217C181.081 11.5613 179.468 18.2878 168.015 21.756Z" fill="black"/>
<path id="Vector_20" d="M135.77 28.7406C135.849 30.1763 136.266 31.573 136.986 32.8173C137.706 34.0617 138.71 35.1188 139.915 35.9027C142.19 37.2254 144.045 36.1447 144.045 33.5153C143.968 32.0809 143.555 30.6846 142.837 29.4401C142.119 28.1956 141.118 27.138 139.915 26.3533C137.625 25.0144 135.77 26.0791 135.77 28.7406Z" fill="#0A97D9"/>
<path id="Vector_21" opacity="0.3" d="M135.77 28.7406C135.849 30.1763 136.266 31.573 136.986 32.8173C137.706 34.0617 138.71 35.1188 139.915 35.9027C142.19 37.2254 144.045 36.1447 144.045 33.5153C143.968 32.0809 143.555 30.6846 142.837 29.4401C142.119 28.1956 141.118 27.138 139.915 26.3533C137.625 25.0144 135.77 26.0791 135.77 28.7406Z" fill="black"/>
<path id="Vector_22" d="M110.315 85.7953C110.315 88.9247 112.364 92.054 116.477 94.4253C124.72 99.2645 138.109 99.2645 146.368 94.4253C150.497 92.054 152.562 88.9247 152.562 85.7953V55.1468C152.562 52.0335 150.497 48.9042 146.368 46.5168C138.109 41.6453 124.72 41.6453 116.558 46.4845C112.445 48.8719 110.396 52.0013 110.396 55.1145L110.315 85.7953Z" fill="#37474F"/>
<path id="Vector_23" d="M121.091 44.5166C119.518 45.0189 117.999 45.6782 116.558 46.4846C112.445 48.8719 110.396 52.0013 110.396 55.1145V85.763C110.396 88.8924 112.445 92.0218 116.558 94.393C118.025 95.2041 119.571 95.8635 121.171 96.361L121.091 44.5166Z" fill="#263238"/>
<path id="Vector_24" d="M152.562 55.0983C152.562 51.9851 150.497 48.8557 146.367 46.4683C138.109 41.6452 124.72 41.6452 116.558 46.4845C108.396 51.3237 108.347 58.9858 116.558 63.7444C124.768 68.503 138.189 68.5837 146.448 63.7444C150.578 61.3571 152.642 58.2438 152.642 55.1144" fill="#455A64"/>
<path id="Vector_25" d="M117.606 52.9368C117.606 54.9854 118.961 57.034 121.639 58.5987C124.671 60.1375 128.023 60.9394 131.422 60.9394C134.822 60.9394 138.174 60.1375 141.206 58.5987C143.916 56.9856 145.271 54.9854 145.271 52.9368V28.6277C145.271 26.5952 143.916 24.5466 141.206 22.9819C138.174 21.4431 134.822 20.6411 131.422 20.6411C128.023 20.6411 124.671 21.4431 121.639 22.9819C118.961 24.595 117.606 26.5952 117.606 28.6277V52.9368Z" fill="#37474F"/>
<path id="Vector_26" d="M121.091 23.3853C120.12 23.9008 119.293 24.6501 118.685 25.5654C118.077 26.4807 117.706 27.5332 117.606 28.6278V52.9369C117.7 54.035 118.069 55.092 118.677 56.0108C119.286 56.9296 120.116 57.6808 121.091 58.1955V23.3853Z" fill="#263238"/>
<path id="Vector_27" d="M145.271 28.6277C145.271 26.5952 143.916 24.5466 141.206 22.9819C138.175 21.4431 134.823 20.6411 131.423 20.6411C128.023 20.6411 124.671 21.4431 121.64 22.9819C116.268 26.1113 116.268 31.1602 121.64 34.2734C124.671 35.8122 128.023 36.6142 131.423 36.6142C134.823 36.6142 138.175 35.8122 141.206 34.2734C143.916 32.6604 145.271 30.6601 145.271 28.6115" fill="#455A64"/>
<path id="Vector_28" d="M125.237 44.3552C125.158 42.9193 124.742 41.5221 124.022 40.2775C123.301 39.0329 122.297 37.9761 121.091 37.1931C120.669 36.8794 120.168 36.6891 119.644 36.6435C119.119 36.5979 118.593 36.6989 118.123 36.9351C113.558 39.2901 93.9268 45.6941 85.0548 50.8237C83.8664 51.4825 82.8195 52.3689 81.9737 53.4323C81.1278 54.4957 80.4998 55.7153 80.1253 57.0215C79.7508 58.3276 79.6373 59.6948 79.7912 61.0448C79.9451 62.3948 80.3633 63.7013 81.0221 64.8897C81.6809 66.0781 82.5673 67.1251 83.6308 67.9709C84.6942 68.8167 85.9138 69.4448 87.2199 69.8192C88.5261 70.1937 89.8932 70.3072 91.2433 70.1534C92.5933 69.9995 93.8998 69.5812 95.0882 68.9224C104.363 63.5831 119.913 49.5655 123.978 47.0491H124.091C124.499 46.7373 124.818 46.3253 125.019 45.8531C125.22 45.381 125.295 44.8649 125.237 44.3552Z" fill="#0A97D9"/>
<path id="Vector_29" opacity="0.25" d="M82.2963 57.3083C82.1615 58.2498 82.2268 59.2091 82.4881 60.1236C82.7494 61.0381 83.2007 61.8872 83.8126 62.6153C84.4775 63.3316 85.3207 63.8584 86.256 64.1418C87.1913 64.4253 88.1852 64.4551 89.1358 64.2284C89.4911 64.1594 89.824 64.0041 90.1053 63.7763C90.3866 63.5485 90.6076 63.255 90.7489 62.9218C90.8138 62.6465 90.8201 62.3606 90.7673 62.0827C90.7145 61.8047 90.6038 61.5411 90.4424 61.3087C90.1231 60.8504 89.7671 60.4188 89.3778 60.0183C88.2956 58.6916 87.6479 57.064 87.5227 55.3565C87.5431 54.6977 87.4392 54.041 87.2162 53.4208C85.7645 50.5495 82.5706 54.5499 82.2963 57.3083Z" fill="white"/>
<path id="Vector_30" opacity="0.2" d="M124.091 46.9848C124.483 46.6787 124.792 46.279 124.99 45.8224C125.187 45.3657 125.266 44.8669 125.22 44.3716C125.212 43.6873 125.103 43.008 124.898 42.3552C115.792 48.2107 107.118 54.712 98.9433 61.809C90.2165 69.7453 83.619 67.8741 81.0059 64.7609C81.6448 65.9708 82.5193 67.0407 83.578 67.9076C84.6366 68.7745 85.858 69.4208 87.1701 69.8086C88.4823 70.1964 89.8588 70.3178 91.2186 70.1657C92.5784 70.0135 93.894 69.5909 95.088 68.9226C104.363 63.5833 119.913 49.5657 123.978 47.0493L124.091 46.9848Z" fill="black"/>
<path id="Vector_31" d="M138.577 25.4177C136.734 23.8929 134.448 23.0035 132.059 22.8814C129.67 22.7594 127.306 23.4112 125.317 24.7402L125.188 24.837C124.898 25.0305 124.607 25.208 124.349 25.4177C122.01 27.3695 122.333 30.0633 125.333 31.87C127.237 32.8401 129.343 33.3459 131.479 33.3459C133.615 33.3459 135.722 32.8401 137.625 31.87C138.327 31.5581 138.933 31.065 139.381 30.4413C139.829 29.8176 140.102 29.0858 140.174 28.3212C140.146 27.7476 139.988 27.188 139.711 26.6848C139.434 26.1817 139.046 25.7483 138.577 25.4177Z" fill="#0A97D9"/>
<path id="Vector_32" opacity="0.25" d="M133.979 24.6273L135.979 25.208H136.205C136.205 25.208 136.367 25.208 136.367 25.0628C136.367 24.9176 136.367 24.8854 136.237 24.8208C135.568 24.2897 134.801 23.8951 133.979 23.6594C133.721 23.5626 133.253 23.482 133.173 23.853C133.092 24.224 133.673 24.5305 133.979 24.6273Z" fill="white"/>
<path id="Vector_33" opacity="0.2" d="M135.592 25.7725C134.534 25.5217 133.453 25.3704 132.366 25.3208V23.5303H130.544V25.3208C129.455 25.369 128.375 25.5257 127.317 25.7886V27.1274C128.376 26.8723 129.456 26.7157 130.544 26.6596V29.3374H132.366V26.6435C133.453 26.6932 134.534 26.8444 135.592 27.0952V25.7725Z" fill="black"/>
<path id="Vector_34" opacity="0.2" d="M127.285 25.7886C128.343 25.5306 129.423 25.3686 130.511 25.3047V25.8693C129.423 25.9332 128.343 26.0952 127.285 26.3532V25.7886Z" fill="black"/>
<path id="Vector_35" opacity="0.2" d="M135.592 25.7725V26.3209C134.533 26.0701 133.453 25.9189 132.366 25.8693V25.3047C133.453 25.3674 134.532 25.524 135.592 25.7725Z" fill="black"/>
<path id="Vector_36" opacity="0.2" d="M132.35 23.5303H130.527V24.2239H132.35V23.5303Z" fill="black"/>
</g>
</g>
</svg>
