<svg width="24" height="24" viewBox="0 0 24 24" fill="none" xmlns="http://www.w3.org/2000/svg">
<path fill-rule="evenodd" clip-rule="evenodd" d="M10.8809 5.48005L2.45495 12.309C2.05895 12.629 1.87295 13.265 2.04195 13.726L2.14095 13.998C2.30895 14.46 2.86695 14.827 3.36795 14.818L4.49895 14.798L10.5609 14.696L14.2129 14.633C14.7229 14.623 15.0009 14.248 14.8289 13.772L11.9059 5.74205C11.8009 5.45405 11.5819 5.30105 11.3389 5.30105C11.1702 5.30603 11.0084 5.36928 10.8809 5.48005ZM4.97995 15.953L6.73395 20.771C6.77699 20.8968 6.84469 21.0128 6.93309 21.1121C7.02148 21.2114 7.12879 21.2921 7.24874 21.3494C7.36869 21.4068 7.49887 21.4397 7.63166 21.4461C7.76446 21.4525 7.89721 21.4324 8.02214 21.3869C8.14707 21.3415 8.26168 21.2715 8.35927 21.1812C8.45685 21.0909 8.53545 20.9821 8.59046 20.861C8.64547 20.74 8.67579 20.6092 8.67965 20.4763C8.68352 20.3434 8.66084 20.2111 8.61295 20.087L7.07395 15.859L4.97995 15.953ZM18.6909 6.84205L15.8719 7.86805C15.7462 7.91109 15.6302 7.97879 15.5309 8.06719C15.4316 8.15558 15.3509 8.26289 15.2935 8.38284C15.2362 8.50279 15.2033 8.63297 15.1969 8.76576C15.1905 8.89856 15.2106 9.03131 15.2561 9.15624C15.3015 9.28117 15.3715 9.39578 15.4618 9.49337C15.5521 9.59095 15.6609 9.66954 15.782 9.72456C15.903 9.77957 16.0338 9.80989 16.1667 9.81376C16.2996 9.81762 16.4319 9.79494 16.5559 9.74705L19.3759 8.72105C19.4994 8.67607 19.6128 8.60722 19.7096 8.51842C19.8064 8.42963 19.8848 8.32263 19.9403 8.20354C19.9958 8.08445 20.0273 7.9556 20.033 7.82434C20.0386 7.69308 20.0184 7.56199 19.9734 7.43855C19.9285 7.3151 19.8596 7.20173 19.7708 7.10489C19.682 7.00806 19.575 6.92966 19.4559 6.87418C19.3369 6.8187 19.208 6.78722 19.0767 6.78153C18.9455 6.77584 18.8144 6.79607 18.6909 6.84105V6.84205ZM16.8989 10.687C16.7341 10.7474 16.5879 10.8499 16.4749 10.9843C16.362 11.1187 16.2861 11.2803 16.2549 11.453C16.2093 11.7142 16.269 11.9829 16.421 12.2001C16.573 12.4173 16.8049 12.5655 17.0659 12.612L20.0209 13.132C20.1915 13.1621 20.3669 13.1473 20.5301 13.0891C20.6932 13.0309 20.8384 12.9314 20.9515 12.8003C21.0646 12.6691 21.1417 12.5108 21.1753 12.3409C21.2088 12.171 21.1977 11.9953 21.1429 11.831L21.1259 11.784C21.0638 11.624 20.9613 11.4828 20.8285 11.374C20.6957 11.2652 20.5371 11.1925 20.3679 11.163L17.4129 10.642C17.2407 10.6106 17.0631 10.6261 16.8989 10.687ZM16.3509 3.04805L14.4219 5.34605C14.2514 5.5492 14.1686 5.81178 14.1916 6.07602C14.2147 6.34026 14.3418 6.58451 14.5449 6.75505C14.7481 6.92558 15.0107 7.00843 15.2749 6.98536C15.5392 6.96229 15.7834 6.8352 15.9539 6.63205L17.8819 4.33405C18.0039 4.18817 18.0818 4.01058 18.1065 3.82206C18.1312 3.63354 18.1017 3.44188 18.0214 3.26952C17.9411 3.09716 17.8135 2.95121 17.6533 2.84877C17.4931 2.74632 17.3071 2.69162 17.1169 2.69105C16.9709 2.69055 16.8265 2.72228 16.6941 2.78399C16.5617 2.8457 16.4445 2.93586 16.3509 3.04805Z" fill="black"/>
</svg>
