<svg width="24" height="25" viewBox="0 0 24 25" fill="none" xmlns="http://www.w3.org/2000/svg">
<path fill-rule="evenodd" clip-rule="evenodd" d="M10.2943 10.1254C10.2011 10.0335 10.1271 9.92398 10.0765 9.80321C10.026 9.68244 10 9.55283 10 9.42192C10 9.29101 10.026 9.1614 10.0765 9.04063C10.1271 8.91986 10.2011 8.81034 10.2943 8.71842C10.4833 8.53185 10.7382 8.42725 11.0038 8.42725C11.2694 8.42725 11.5243 8.53185 11.7133 8.71842L14.6783 11.6584C14.7805 11.7598 14.8616 11.8803 14.917 12.0132C14.9723 12.146 15.0008 12.2885 15.0008 12.4324C15.0008 12.5763 14.9723 12.7188 14.917 12.8517C14.8616 12.9845 14.7805 13.1051 14.6783 13.2064L11.7233 16.1364C11.5342 16.3233 11.2791 16.4281 11.0133 16.4281C10.7475 16.4281 10.4924 16.3233 10.3033 16.1364C10.2101 16.0445 10.1361 15.935 10.0855 15.8142C10.035 15.6934 10.009 15.5638 10.009 15.4329C10.009 15.302 10.035 15.1724 10.0855 15.0516C10.1361 14.9309 10.2101 14.8213 10.3033 14.7294L12.6213 12.4324L10.2943 10.1254V10.1254Z" fill="#172B4D"/>
</svg>
