<svg xmlns="http://www.w3.org/2000/svg" viewBox="0 0 150.53 132.96"><defs><style>.cls-1{fill:#1a496a;}.cls-2{fill:#02699e;}.cls-3{fill:#e8422e;}.cls-4{fill:#2ebce0;}.cls-5{fill:#e6243c;}.cls-6{fill:#e5b735;}.cls-7{fill:#c99a2d;}.cls-8{fill:#3f7f45;}.cls-9{fill:#fcc310;}.cls-10{fill:#a31b43;}.cls-11{fill:#4c9f37;}.cls-12{fill:#c51c2e;}.cls-13{fill:#ed6930;}.cls-14{fill:#de1868;}.cls-15{fill:#f59d2d;}.cls-16{fill:#1896d4;}.cls-17{fill:#63b335;}</style></defs><title>UNiSDG-Logo-1</title><g id="Layer_2" data-name="Layer 2"><g id="Layer_1-2" data-name="Layer 1"><path class="cls-1" d="M72.17,95.69l-19.24,12.8q-1.35-2.1-2.52-4.36c-.53-1-1-2.08-1.48-3.12L70.36,92.3c.19.45.4.86.61,1.27C71.35,94.3,71.74,95,72.17,95.69Z"/><path class="cls-2" d="M74.55,98.89,57.69,114.8a54.83,54.83,0,0,1-4.76-6.31l19.24-12.8A26.06,26.06,0,0,0,74.55,98.89Z"/><path class="cls-3" d="M149.56,90a53.18,53.18,0,0,1-2.12,7.75l-21.63-8.19a31,31,0,0,0,1-3.46Z"/><path class="cls-4" d="M147.44,97.77a52.36,52.36,0,0,1-3.39,7.57l-19.85-12a28.78,28.78,0,0,0,1.61-3.81Z"/><path class="cls-5" d="M144.66,55.57c.78,1.52,1.49,3.07,2.12,4.63l-21.63,8.27c-.32-.78-.67-1.55-1.06-2.29l-.5-1L143.07,52.7C143.63,53.64,144.16,54.6,144.66,55.57Z"/><path class="cls-6" d="M146.78,60.2a51,51,0,0,1,2.37,7.44l-22.73,4.51a32,32,0,0,0-1.27-3.68Z"/><path class="cls-7" d="M93.74,109.56,92,132.64a51.17,51.17,0,0,1-7.49-1.38l4.81-22.65A30.9,30.9,0,0,0,93.74,109.56Z"/><path class="cls-8" d="M89.27,108.61l-4.81,22.65a51.48,51.48,0,0,1-8.2-2.8l9.95-20.91A29.89,29.89,0,0,0,89.27,108.61Z"/><path class="cls-9" d="M142.34,108.24a51.19,51.19,0,0,1-4.71,6.38l-17.7-14.91a30.29,30.29,0,0,0,2.6-3.4Z"/><path class="cls-10" d="M137.63,114.62a50.7,50.7,0,0,1-5.83,5.8l-14.26-18.29a30.28,30.28,0,0,0,2.39-2.42Z"/><path class="cls-11" d="M149.78,70.88a50.77,50.77,0,0,1,.72,7.57l-23.08.66a30.94,30.94,0,0,0-.31-3.71Z"/><path class="cls-12" d="M150.5,78.45a52.16,52.16,0,0,1-.41,8.29l-22.81-3.93a30.52,30.52,0,0,0,.14-3.7Z"/><path class="cls-13" d="M114.94,104.23a29.67,29.67,0,0,1-3.7,2.26,30.28,30.28,0,0,1-3.19,1.41l6.63,22.22a50.8,50.8,0,0,0,7.17-3.06,53.4,53.4,0,0,0,7.3-4.56Z"/><path class="cls-14" d="M104.88,108.9l6.63,22.22a52.91,52.91,0,0,1-8.39,1.56l-2.22-23.06A30.51,30.51,0,0,0,104.88,108.9Z"/><path class="cls-15" d="M100.9,109.62l2.22,23.06a54,54,0,0,1-7.83.23l1.78-23.12A30.68,30.68,0,0,0,100.9,109.62Z"/><path class="cls-16" d="M83.17,106.1,73.25,127a54.37,54.37,0,0,1-6.94-4.28l13-19.1A30.38,30.38,0,0,0,83.17,106.1Z"/><path class="cls-17" d="M79.33,103.61l-13,19.1A53.58,53.58,0,0,1,60,117.28l16.85-15.86A27.44,27.44,0,0,0,79.33,103.61Z"/><path d="M0,63.5l62-58L147.5,0l-62,65-65-1q-.49,11.5-1,23a6.61,6.61,0,0,1,1,13q-1,10-2,20c0,.19-.7,4.67-4,6s-8.23-.91-10-6a30.63,30.63,0,0,0,10-15,28,28,0,0,0,1-6,6.33,6.33,0,0,1-5-5c-.44-3.12,2.1-6.52,6-7q-.49-11.5-1-23Z"/><path d="M37.5,69a42.31,42.31,0,0,0,8,22,50.8,50.8,0,0,1,31-9,49.83,49.83,0,0,1,23,7,46.52,46.52,0,0,1,37-40,48.5,48.5,0,0,0-11-16l-36,36Z"/></g></g></svg>