<svg width="80" height="80" viewBox="0 0 80 80" fill="none" xmlns="http://www.w3.org/2000/svg">
<rect width="80" height="80" fill="#00689D"/>
<path d="M6.17776 9.64722V12.4776H6.20256L8.10496 10.5032H8.12896V22.848H10.841V6.72083H8.67696L6.17776 9.64722Z" fill="white"/>
<path fill-rule="evenodd" clip-rule="evenodd" d="M20.3319 16.5928V18.972H20.3359C20.3359 21.4696 19.2159 23.0392 16.3359 23.0392C13.4823 23.0392 12.3871 21.2312 12.3871 18.7336V10.8848C12.3871 8.36325 13.4575 6.53125 16.3119 6.53125C19.3095 6.53125 20.0943 8.19605 20.0943 10.5744V11.432H17.6207V10.36C17.6207 9.36165 17.3359 8.79045 16.3599 8.79045C15.3839 8.79045 15.0759 9.48005 15.0759 10.456V13.9288H15.0991C15.5031 13.1432 16.1927 12.62 17.3351 12.62C19.2855 12.62 20.3319 13.9528 20.3319 16.5928ZM16.3396 20.8288C17.2668 20.8288 17.6476 20.2344 17.6476 19.212V16.4032C17.6476 15.356 17.29 14.7848 16.3636 14.7848C15.5068 14.7848 15.126 15.356 15.0796 16.26V19.212C15.0796 20.2112 15.4356 20.8288 16.3396 20.8288Z" fill="white"/>
<path d="M51.6913 39.28C51.6913 39.28 51.0185 40.1736 51.2113 41.0448C51.4041 41.916 52.4017 42.4336 52.4017 42.4336C52.4017 42.4336 53.0745 41.54 52.8817 40.6696C52.6889 39.7992 51.6913 39.28 51.6913 39.28Z" fill="white"/>
<path d="M50.5947 44.3873C50.5947 44.3873 51.2675 43.4929 51.0747 42.6224C50.8819 41.752 49.8851 41.2336 49.8851 41.2336C49.8851 41.2336 49.2115 42.1272 49.4051 42.9985C49.5987 43.8697 50.5955 44.3873 50.5955 44.3873" fill="white"/>
<path d="M53.36 43.4304C53.36 43.4304 54.0704 44.1504 54.88 44.0752C55.6896 44 56.2888 43.1704 56.2888 43.1704C56.2888 43.1704 55.5792 42.4504 54.7688 42.5248C53.9584 42.5992 53.36 43.4304 53.36 43.4304Z" fill="white"/>
<path d="M54.5246 39.6C53.8662 40.268 53.959 41.4504 53.959 41.4504C53.959 41.4504 55.1198 41.5512 55.7798 40.884C56.4398 40.2168 56.3454 39.0336 56.3454 39.0336C56.3454 39.0336 55.1838 38.9328 54.5246 39.6Z" fill="white"/>
<path d="M53.0723 46.0872C53.8787 46.1832 54.6371 45.4904 54.6371 45.4904C54.6371 45.4904 54.0875 44.64 53.2803 44.548C52.4731 44.456 51.7147 45.1456 51.7147 45.1456C51.7147 45.1456 52.2643 45.992 53.0707 46.0872" fill="white"/>
<path d="M53.7922 60.0984H47.7642C47.2932 60.0984 46.9114 60.4802 46.9114 60.9512C46.9114 61.4222 47.2932 61.804 47.7642 61.804H53.7922C54.2632 61.804 54.645 61.4222 54.645 60.9512C54.645 60.4802 54.2632 60.0984 53.7922 60.0984Z" fill="white"/>
<path d="M53.7922 69.4993H47.7642C47.2932 69.4993 46.9114 69.8811 46.9114 70.3521C46.9114 70.8231 47.2932 71.2049 47.7642 71.2049H53.7922C54.2632 71.2049 54.645 70.8231 54.645 70.3521C54.645 69.8811 54.2632 69.4993 53.7922 69.4993Z" fill="white"/>
<path d="M26.681 58.2541C26.5436 58.1195 26.4039 58.0082 26.2626 57.9208C26.2626 57.9208 26.417 58.07 26.681 58.2541Z" fill="white"/>
<path fill-rule="evenodd" clip-rule="evenodd" d="M47.9839 62.4H53.5703C53.8386 62.3996 54.0566 62.6165 54.0575 62.8848V68.4184C54.0566 68.6867 53.8393 68.9039 53.5711 68.9048H47.9847C47.7165 68.9039 47.4995 68.6865 47.4991 68.4184V66.728L43.8527 66.328L26.0295 66.736V64.5632L35.5735 64.7808V61.6656C34.4423 61.5796 33.3265 61.3508 32.2527 60.9848C31.3524 60.6765 30.3997 60.0801 29.4589 59.4912C28.4978 58.8895 27.5491 58.2957 26.6815 58.0248C27.6135 58.2384 29.9207 58.596 31.5615 57.4648C32.4949 56.8205 33.0288 56.2876 33.4715 55.8456C34.0248 55.2933 34.4357 54.8832 35.3063 54.5752C32.4911 54.336 30.4279 52.6016 29.6111 48.7616C28.8327 45.104 28.2927 43.6648 26.7527 43.0088C29.0039 42.7904 32.2903 42.768 36.0503 46.6208C38.9031 49.5392 41.8255 49.4664 44.1463 47.3048C46.4671 45.1432 48.0951 44.1024 49.3599 45.52C49.6374 45.8305 49.9315 46.1258 50.2407 46.4048C50.5303 45 51.3855 44.1152 52.2319 43.2488L52.2461 43.2342C52.7065 42.7627 53.1828 42.275 53.5471 41.7096L53.8495 41.9048C53.4599 42.5064 52.9695 43.0112 52.4895 43.5C51.6215 44.3888 50.7783 45.2576 50.5479 46.672C50.9076 46.9816 51.2951 47.2575 51.7055 47.496C51.2999 47.4696 50.8927 47.4819 50.4895 47.5328C50.4975 48.2624 50.6455 49.1176 50.9919 50.1576C50.8679 50.1704 50.7503 50.1808 50.6279 50.1872C50.2959 49.1712 50.1511 48.3176 50.1359 47.584C49.7477 47.6482 49.3665 47.7492 48.9975 47.8856C47.6239 48.4016 46.6679 49.5616 46.7791 52.5496C46.8911 55.4832 45.7727 59.7232 40.6439 61.1696C39.9491 61.3651 39.2407 61.509 38.5247 61.6V64.8552L43.8519 64.9768L47.4983 64.5768V62.8848C47.4987 62.6169 47.716 62.4 47.9839 62.4ZM37.6458 61.6856C37.2466 61.7128 36.8506 61.7248 36.4506 61.7184V64.808L37.6458 64.8352V61.6856Z" fill="white"/>
<path d="M25.5073 66.384C25.5073 66.8424 25.1873 67.2136 24.7937 67.2136H24.3641C23.9705 67.2136 23.6497 66.8424 23.6497 66.384V64.88C23.6497 64.4216 23.9697 64.0504 24.3641 64.0504H24.7937C25.1873 64.0504 25.5073 64.4216 25.5073 64.88V66.384Z" fill="white"/>
<path fill-rule="evenodd" clip-rule="evenodd" d="M27.1797 6.71118H25.5501V13.2488H26.6493V11.0304H27.1797C28.2885 11.0304 28.6941 10.4712 28.6941 9.55518V8.17678C28.6941 7.26078 28.2885 6.71118 27.1797 6.71118ZM26.6496 10.1824V7.60799H27.0552C27.4312 7.60799 27.5952 7.78158 27.5952 8.13838V9.64238C27.5952 9.99918 27.4312 10.1824 27.0552 10.1824H26.6496Z" fill="white"/>
<path d="M29.1756 6.71118H31.7988V7.60798H30.2748V9.47838H31.3644V10.3656H30.2748V12.352H31.7988V13.2488H29.1756V6.71118Z" fill="white"/>
<path fill-rule="evenodd" clip-rule="evenodd" d="M33.4571 6.71118L32.2227 13.2488H33.2643L33.4571 12.0488H34.6235L34.8259 13.2488H35.9539L34.7107 6.71118H33.4571ZM34.4795 11.1752H33.5995L34.0363 8.55278H34.0459L34.4795 11.1752Z" fill="white"/>
<path d="M36.32 11.5609V8.40005C36.32 7.37765 36.8 6.63525 37.9592 6.63525C39.1744 6.63525 39.512 7.31045 39.512 8.27445V9.04565H38.5096V8.18645C38.5096 7.78165 38.3752 7.54645 37.9792 7.54645C37.5832 7.54645 37.4192 7.82645 37.4192 8.22165V11.7313C37.4192 12.1265 37.5832 12.4065 37.9792 12.4065C38.3752 12.4065 38.5096 12.1561 38.5096 11.7665V10.5681H39.5128V11.6961C39.5128 12.6313 39.1272 13.3257 37.96 13.3257C36.7928 13.3257 36.32 12.5737 36.32 11.5609Z" fill="white"/>
<path d="M40.1099 6.71118H42.7331V7.60798H41.2131V9.47838H42.3027V10.3656H41.2091V12.352H42.7291V13.2488H40.1099V6.71118Z" fill="white"/>
<path d="M44.4975 12.284L43.9375 13.7592H43.3207L43.4559 12.1976H44.4959L44.4975 12.284Z" fill="white"/>
<path d="M49.1547 6.71118V11.76C49.1547 12.7056 48.7395 13.3224 47.6403 13.3224C46.5027 13.3224 46.1947 12.696 46.1947 11.8664V10.568H47.2347V11.8888C47.2347 12.2168 47.3507 12.4096 47.6395 12.4096C47.9283 12.4096 48.0547 12.2168 48.0547 11.8792V6.71118H49.1547Z" fill="white"/>
<path d="M53.012 6.71118V11.6576C53.012 12.6696 52.5776 13.3256 51.4592 13.3256C50.3024 13.3256 49.82 12.6696 49.82 11.6576V6.71118H50.9192V11.76C50.9192 12.1464 51.0736 12.4064 51.4592 12.4064C51.8448 12.4064 52 12.1496 52 11.76V6.71118H53.012Z" fill="white"/>
<path d="M53.6283 11.84V10.96H54.6508V11.8568C54.6508 12.2232 54.8148 12.4352 55.1908 12.4352C55.538 12.4352 55.6924 12.204 55.6924 11.8568V11.6064C55.6924 11.2304 55.538 10.9984 55.2004 10.68L54.554 10.0344C53.9275 9.4176 53.6379 9.0408 53.6379 8.2888V8.0672C53.6379 7.2576 54.1107 6.6272 55.1812 6.6272C56.2804 6.6272 56.714 7.1672 56.714 8.112V8.6424H55.7116V8.08C55.7116 7.704 55.538 7.52 55.1908 7.52C54.882 7.52 54.67 7.6936 54.67 8.06V8.1952C54.67 8.5616 54.8724 8.7736 55.1908 9.0824L55.8948 9.776C56.4924 10.384 56.782 10.7504 56.782 11.4736V11.7936C56.782 12.6896 56.302 13.3264 55.182 13.3264C54.0619 13.3264 53.6283 12.6992 53.6283 11.84Z" fill="white"/>
<path d="M57.2795 6.71118H60.2019V7.60798H59.2987V13.2488H58.1899V7.60798H57.2795V6.71118Z" fill="white"/>
<path d="M60.7648 6.71118H61.864V13.2488H60.7648V6.71118Z" fill="white"/>
<path d="M62.5479 11.5609V8.40005C62.5479 7.37765 63.0279 6.63525 64.1871 6.63525C65.4023 6.63525 65.7399 7.31045 65.7399 8.27445V9.04565H64.7367V8.18645C64.7367 7.78165 64.6023 7.54645 64.2063 7.54645C63.8103 7.54645 63.6463 7.82645 63.6463 8.22165V11.7313C63.6463 12.1265 63.8063 12.4065 64.2063 12.4065C64.6063 12.4065 64.7367 12.1561 64.7367 11.7665V10.5681H65.7399V11.6961C65.7399 12.6313 65.3543 13.3257 64.1871 13.3257C63.0199 13.3257 62.5479 12.5737 62.5479 11.5609Z" fill="white"/>
<path d="M66.3857 6.71118H69.0089V7.60798H67.4849V9.47838H68.5745V10.3656H67.4849V12.352H69.0089V13.2488H66.3857V6.71118Z" fill="white"/>
<path fill-rule="evenodd" clip-rule="evenodd" d="M26.6503 16.2992L25.4159 22.8368H26.4575L26.6503 21.6416H27.8167L28.0191 22.8368H29.1471L27.9039 16.2992H26.6503ZM27.6749 20.764H26.7949L27.2317 18.1416H27.2413L27.6749 20.764Z" fill="white"/>
<path d="M30.6225 18.7296V22.8368H29.6969V16.2992H30.7769L31.9633 20.0504V16.2992H32.8801V22.8368H31.9153L30.6225 18.7296Z" fill="white"/>
<path fill-rule="evenodd" clip-rule="evenodd" d="M36.8907 21.0824V18.0544C36.8907 17.04 36.4803 16.2992 35.2971 16.2992H33.6003V22.8368H35.2995C36.4763 22.8368 36.8907 22.0848 36.8907 21.0824ZM35.7916 21.2752C35.7916 21.6704 35.618 21.94 35.1644 21.94H34.702V17.196H35.1644C35.618 17.196 35.7916 17.4664 35.7916 17.852V21.2752Z" fill="white"/>
<path d="M38.6644 21.4296V20.5496H39.686V21.4464C39.686 21.8128 39.85 22.0248 40.226 22.0248C40.5732 22.0248 40.7276 21.7936 40.7276 21.4464V21.2C40.7276 20.824 40.5732 20.5928 40.2356 20.2744L39.59 19.6288C38.9628 19.0112 38.674 18.6352 38.674 17.8832V17.6616C38.674 16.8512 39.146 16.2216 40.2164 16.2216C41.3156 16.2216 41.75 16.7616 41.75 17.7064V18.24H40.7468V17.6712C40.7468 17.2952 40.5732 17.1112 40.226 17.1112C39.918 17.1112 39.7052 17.2848 39.7052 17.6512V17.7864C39.7052 18.1528 39.9076 18.3648 40.226 18.6728L40.93 19.3672C41.5276 19.9752 41.8172 20.3416 41.8172 21.0648V21.3848C41.8172 22.2816 41.3372 22.9184 40.2172 22.9184C39.0972 22.9184 38.6644 22.2872 38.6644 21.4296Z" fill="white"/>
<path d="M42.2219 16.2992H45.1435V17.2H44.2395V22.8408H43.1283V17.2H42.2219V16.2992Z" fill="white"/>
<path fill-rule="evenodd" clip-rule="evenodd" d="M46.8514 22.8384V19.84L47.8826 22.8368H49.0401L47.9866 19.8672C48.6153 19.724 48.8665 19.308 48.8665 18.604V17.7648C48.8665 16.8488 48.4609 16.2992 47.3522 16.2992H45.7522V22.8384H46.8514ZM46.8516 19.2344V17.2L47.218 17.196C47.5972 17.196 47.7572 17.3696 47.7572 17.7264V18.6952C47.7572 19.0416 47.594 19.2344 47.218 19.2344H46.8516Z" fill="white"/>
<path fill-rule="evenodd" clip-rule="evenodd" d="M49.5597 17.9872V21.1496C49.5597 22.16 50.0525 22.9144 51.2189 22.9144C52.3853 22.9144 52.8869 22.1624 52.8869 21.1496V17.9872C52.8869 16.9648 52.3765 16.2224 51.2189 16.2224C50.0613 16.2224 49.5597 16.9648 49.5597 17.9872ZM51.788 17.8136V21.3232C51.788 21.7184 51.6064 21.9984 51.2192 21.9984C50.832 21.9984 50.6592 21.7184 50.6592 21.3232V17.8136C50.6592 17.4184 50.824 17.1384 51.2192 17.1384C51.6144 17.1384 51.788 17.4184 51.788 17.8136Z" fill="white"/>
<path d="M54.5361 18.7296V22.8368H53.6105V16.2992H54.6905L55.8761 20.0504V16.2992H56.7921V22.8368H55.8321L54.5361 18.7296Z" fill="white"/>
<path d="M59.1739 19.3464H60.7363V22.8368H59.9451V22.1232C59.8011 22.6152 59.4923 22.9144 58.8947 22.9144C57.9499 22.9144 57.5155 22.1624 57.5155 21.1496V17.9872C57.5155 16.9648 58.0075 16.2224 59.1643 16.2224C60.3795 16.2224 60.7363 16.8976 60.7363 17.8616V18.44H59.7331V17.7752C59.7331 17.3696 59.5787 17.1352 59.1835 17.1352C58.7883 17.1352 58.6147 17.4152 58.6147 17.8104V21.32C58.6147 21.7152 58.7787 21.9952 59.1547 21.9952C59.5115 21.9952 59.6947 21.7928 59.6947 21.368V20.2144H59.1739V19.3464Z" fill="white"/>
<path d="M25.6002 25.9919H26.6994V32.5295H25.6002V25.9919Z" fill="white"/>
<path d="M28.3569 28.4215V32.5295H27.4313V25.9919H28.5113L29.6969 29.7423V25.9919H30.6137V32.5295H29.6489L28.3569 28.4215Z" fill="white"/>
<path d="M31.2801 31.1199V30.2399H32.3025V31.1367C32.3025 31.5031 32.4665 31.7151 32.8425 31.7151C33.1897 31.7151 33.3433 31.4839 33.3433 31.1367V30.8863C33.3433 30.5103 33.1897 30.2783 32.8521 29.9607L32.2057 29.3143C31.5793 28.6975 31.2897 28.3215 31.2897 27.5687V27.3471C31.2897 26.5375 31.7625 25.9071 32.8329 25.9071C33.9321 25.9071 34.3657 26.4471 34.3657 27.3919V27.9223H33.3601V27.3599C33.3601 26.9839 33.1865 26.7999 32.8393 26.7999C32.5305 26.7999 32.3185 26.9735 32.3185 27.3399V27.4751C32.3185 27.8415 32.5209 28.0535 32.8393 28.3623L33.5433 29.0567C34.1409 29.6639 34.4297 30.0303 34.4297 30.7535V31.0735C34.4297 31.9703 33.9497 32.6063 32.8297 32.6063C31.7097 32.6063 31.2801 31.9799 31.2801 31.1199Z" fill="white"/>
<path d="M34.8369 25.9919H37.7601V26.8887H36.8521V32.5295H35.7433V26.8887H34.8369V25.9919Z" fill="white"/>
<path d="M38.3657 25.9919H39.4649V32.5295H38.3657V25.9919Z" fill="white"/>
<path d="M40.0722 25.9919H42.9938V26.8887H42.0874V32.5295H40.9786V26.8887H40.0722V25.9919Z" fill="white"/>
<path d="M46.7929 25.9919V30.9383C46.7929 31.9503 46.3593 32.6063 45.2409 32.6063C44.0833 32.6063 43.6017 31.9503 43.6017 30.9383V25.9919H44.7009V31.0439C44.7009 31.4303 44.8553 31.6903 45.2409 31.6903C45.6265 31.6903 45.7809 31.4303 45.7809 31.0439V25.9919H46.7929Z" fill="white"/>
<path d="M47.3908 25.9919H50.3124V26.8887H49.406V32.5295H48.2972V26.8887H47.3908V25.9919Z" fill="white"/>
<path d="M50.9196 25.9919H52.0188V32.5295H50.9196V25.9919Z" fill="white"/>
<path fill-rule="evenodd" clip-rule="evenodd" d="M52.7521 27.68V30.8416C52.7521 31.8544 53.2457 32.6072 54.4121 32.6072C55.5785 32.6072 56.0801 31.8552 56.0801 30.8424V27.68C56.0801 26.6568 55.5673 25.9152 54.4105 25.9152C53.2537 25.9152 52.7521 26.6576 52.7521 27.68ZM54.979 27.5056V31.0152C54.979 31.4104 54.7966 31.6904 54.4102 31.6904C54.0238 31.6904 53.8502 31.4104 53.8502 31.0152V27.5056C53.8502 27.1104 54.015 26.8304 54.4102 26.8304C54.8054 26.8304 54.979 27.1104 54.979 27.5056Z" fill="white"/>
<path d="M57.7273 28.4215V32.5295H56.8001V25.9919H57.8801L59.0665 29.7423V25.9919H59.9841V32.5295H59.0193L57.7273 28.4215Z" fill="white"/>
<path d="M60.6488 31.1199V30.2399H61.6713V31.1367C61.6713 31.5031 61.8353 31.7151 62.2113 31.7151C62.5585 31.7151 62.7129 31.4839 62.7129 31.1367V30.8863C62.7129 30.5103 62.5585 30.2783 62.2209 29.9607L61.5745 29.3143C60.948 28.6975 60.6584 28.3215 60.6584 27.5687V27.3471C60.6584 26.5375 61.1312 25.9071 62.2017 25.9071C63.3009 25.9071 63.7345 26.4471 63.7345 27.3919V27.9223H62.7321V27.3599C62.7321 26.9839 62.5585 26.7999 62.2113 26.7999C61.9025 26.7999 61.6905 26.9735 61.6905 27.3399V27.4751C61.6905 27.8415 61.8929 28.0535 62.2113 28.3623L62.9153 29.0567C63.5129 29.6639 63.8025 30.0303 63.8025 30.7535V31.0735C63.8025 31.9703 63.3225 32.6063 62.2025 32.6063C61.0824 32.6063 60.6488 31.9799 60.6488 31.1199Z" fill="white"/>
</svg>
