<svg width="80" height="80" viewBox="0 0 80 80" fill="none" xmlns="http://www.w3.org/2000/svg">
<rect width="80" height="80" fill="#4C9F38"/>
<path d="M11.4161 23.0512C14.1529 23.0512 15.3425 21.5992 15.3425 19.3632V16.9848C15.3425 15.5096 14.7025 14.5576 13.3425 14.2488C14.4625 13.892 15.1977 12.9872 15.1977 11.632V10.228C15.1977 7.94397 14.1033 6.54077 11.6057 6.54077C8.79765 6.54077 7.82165 8.20477 7.82165 10.5848V12.012H10.2961V10.3704C10.2961 9.37117 10.6065 8.80077 11.4625 8.80077C12.3185 8.80077 12.6273 9.37117 12.6273 10.2512V11.988C12.6273 12.8448 12.0569 13.296 11.1777 13.296H10.1537V15.3672H11.2961C12.2473 15.3672 12.6273 15.8184 12.6273 16.6752V19.34C12.6273 20.196 12.2473 20.792 11.4145 20.792C10.4873 20.792 10.1537 20.172 10.1537 19.2208V16.9136H7.68005V19.0304C7.68005 21.4816 8.65445 23.0512 11.4137 23.0512" fill="white"/>
<path d="M66.8209 50C66.8209 47.7488 65.3809 45.92 63.1889 45.92C62.0953 45.92 60.7753 47.12 60.0585 47.8552C59.3385 47.1168 58.1097 45.9184 57.0185 45.9184C54.8313 45.9184 53.2977 47.7432 53.2977 49.9984C53.2943 51.073 53.7108 52.1065 54.4585 52.8784L60.0665 58.4968L65.6665 52.8848L65.6617 52.8808C66.4086 52.1082 66.8246 51.0746 66.8209 50Z" fill="white"/>
<path d="M42.9449 67.6704H42.8873C42.4608 67.6448 42.1083 67.3284 42.0369 66.9072L39.1881 50.3144L34.8729 58.3144C34.6841 58.6639 34.2925 58.853 33.9014 58.7834C33.5103 58.7138 33.2079 58.4012 33.1513 58.008L31.3193 45.204L27.9681 52.732C27.8201 53.0646 27.4905 53.2792 27.1265 53.28H14.1001C13.613 53.2513 13.2328 52.8479 13.2328 52.36C13.2328 51.8721 13.613 51.4687 14.1001 51.44H26.5281L30.9369 41.5384C31.1032 41.1636 31.4972 40.9438 31.9035 40.9995C32.3098 41.0551 32.6303 41.3727 32.6897 41.7784L34.5785 54.9784L38.8337 47.088C39.0207 46.7429 39.4057 46.554 39.7931 46.6175C40.1804 46.681 40.4851 46.9828 40.5521 47.3696L43.1921 62.7352L52.8041 30.8C52.9139 30.4365 53.2356 30.1775 53.6142 30.1478C53.9928 30.1181 54.3509 30.3236 54.5161 30.6656L59.5745 41.1528C59.7248 41.45 59.7029 41.8053 59.5172 42.0818C59.3315 42.3583 59.0109 42.513 58.6789 42.4862C58.3468 42.4595 58.0551 42.2555 57.9161 41.9528L53.8857 33.6L43.8257 67.0144C43.7091 67.4035 43.3511 67.6702 42.9449 67.6704Z" fill="white"/>
<path d="M24.4985 9.74315H26.0617V13.2351H25.2705V12.5207C25.1257 13.0127 24.8169 13.3119 24.2193 13.3119C23.2737 13.3119 22.8401 12.5599 22.8401 11.5471V8.38315C22.8401 7.36075 23.3321 6.61835 24.4889 6.61835C25.7041 6.61835 26.0617 7.29355 26.0617 8.25835V8.83675H25.0585V8.17115C25.0585 7.76635 24.9041 7.53115 24.5089 7.53115C24.1137 7.53115 23.9393 7.81115 23.9393 8.20635V11.7175C23.9393 12.1127 24.1033 12.3927 24.4793 12.3927C24.8361 12.3927 25.0201 12.1903 25.0201 11.7655V10.6111H24.4985V9.74315Z" fill="white"/>
<path fill-rule="evenodd" clip-rule="evenodd" d="M26.7841 8.38315V11.5471C26.7841 12.5599 27.2761 13.3119 28.4433 13.3119C29.6105 13.3119 30.1121 12.5599 30.1121 11.5471V8.38315C30.1121 7.35995 29.6009 6.61835 28.4433 6.61835C27.2857 6.61835 26.7841 7.36075 26.7841 8.38315ZM29.0121 8.20955V11.7207C29.0121 12.1159 28.8297 12.3959 28.4433 12.3959C28.0569 12.3959 27.8833 12.1159 27.8833 11.7207V8.20955C27.8833 7.81435 28.0481 7.53435 28.4433 7.53435C28.8385 7.53435 29.0121 7.81435 29.0121 8.20955Z" fill="white"/>
<path fill-rule="evenodd" clip-rule="evenodd" d="M30.8353 8.38315V11.5471C30.8353 12.5599 31.3257 13.3119 32.4921 13.3119C33.6585 13.3119 34.1601 12.5599 34.1601 11.5471V8.38315C34.1601 7.35995 33.6521 6.61835 32.4945 6.61835C31.3369 6.61835 30.8353 7.36075 30.8353 8.38315ZM33.0632 8.20955V11.7207C33.0632 12.1159 32.8808 12.3959 32.4944 12.3959C32.108 12.3959 31.9344 12.1159 31.9344 11.7207V8.20955C31.9344 7.81435 32.0992 7.53435 32.4944 7.53435C32.8896 7.53435 33.0632 7.81435 33.0632 8.20955Z" fill="white"/>
<path fill-rule="evenodd" clip-rule="evenodd" d="M38.1745 11.4791V8.45112C38.1745 7.43992 37.7601 6.69592 36.5833 6.69592H34.8857V13.2351H36.5833C37.7601 13.2351 38.1745 12.4823 38.1745 11.4791ZM37.0753 11.6719C37.0753 12.0679 36.9017 12.3375 36.4481 12.3375H35.9857V7.59273H36.4481C36.9017 7.59273 37.0753 7.86233 37.0753 8.24873V11.6719Z" fill="white"/>
<path d="M42.5537 10.3511H41.4929V13.2351H40.3929V6.69592H41.4929V9.46392H42.5537V6.69592H43.6625V13.2351H42.5537V10.3511Z" fill="white"/>
<path d="M44.3856 6.69592H47.0096V7.59272H45.4896V9.46392H46.5792V10.3511H45.4856V12.3375H47.0056V13.2351H44.3816L44.3856 6.69592Z" fill="white"/>
<path fill-rule="evenodd" clip-rule="evenodd" d="M48.7553 6.69592L47.5201 13.2351H48.5601L48.7553 12.0391H49.9201L50.1241 13.2351H51.2529L50.0089 6.69592H48.7553ZM49.7794 11.1615H48.8993L49.3361 8.53752H49.3457L49.7794 11.1615Z" fill="white"/>
<path d="M51.8025 6.69592H52.9017V12.3375H54.2136V13.2351H51.8025V6.69592Z" fill="white"/>
<path d="M54.0593 6.69592H56.9817V7.59272H56.0753V13.2351H54.9657V7.59272H54.0593V6.69592Z" fill="white"/>
<path d="M59.7497 10.3511H58.6889V13.2351H57.5897V6.69592H58.6889V9.46392H59.7497V6.69592H60.8585V13.2351H59.7497V10.3511Z" fill="white"/>
<path fill-rule="evenodd" clip-rule="evenodd" d="M23.9089 16.2839L22.6745 22.8231H23.7161L23.9089 21.6231H25.0777L25.2801 22.8231H26.4065L25.1625 16.2839H23.9089ZM24.9337 20.7495H24.0537L24.4897 18.1263H24.4993L24.9337 20.7495Z" fill="white"/>
<path d="M27.8824 18.7143V22.8231H26.96V16.2839H28.0408L29.2264 20.0359V16.2839H30.1432V22.8231H29.1744L27.8824 18.7143Z" fill="white"/>
<path fill-rule="evenodd" clip-rule="evenodd" d="M34.1512 21.0679V18.0399C34.1512 17.0271 33.7368 16.2839 32.56 16.2839H30.8624V22.8231H32.56C33.7368 22.8231 34.1512 22.0711 34.1512 21.0679ZM33.052 21.2607C33.052 21.6567 32.8784 21.9263 32.4248 21.9263L31.9616 21.9295V17.1847H32.4248C32.8784 17.1847 33.052 17.4543 33.052 17.8399V21.2607Z" fill="white"/>
<path d="M38.3561 18.7823L37.7393 22.8231H36.7073L35.8273 16.2839H36.8881L37.3993 20.4311H37.4089L37.9585 16.2839H38.8553L39.4633 20.4311H39.4729L39.9745 16.2839H40.9001L40.0513 22.8231H39.0113L38.3649 18.7823H38.3561Z" fill="white"/>
<path d="M41.4713 16.2839H44.0945V17.1815H42.5745V19.0519H43.6641V19.9399H42.5713V21.9263H44.0913V22.8231H41.4713V16.2839Z" fill="white"/>
<path d="M44.7793 16.2839H45.8793V21.9263H47.1905V22.8231H44.7793V16.2839Z" fill="white"/>
<path d="M47.7889 16.2839H48.8881V21.9263H50.2001V22.8231H47.7889V16.2839Z" fill="white"/>
<path d="M50.0552 18.96H51.6V19.84H50.0552V18.96Z" fill="white"/>
<path fill-rule="evenodd" clip-rule="evenodd" d="M52.2544 16.2839H53.8456C54.9448 16.2839 55.3112 16.7951 55.3112 17.7239V18.3895C55.3112 18.9391 55.1088 19.2863 54.656 19.4295C55.2056 19.5543 55.4752 19.9207 55.4752 20.5191V21.3871C55.4752 22.3127 55.0608 22.8271 53.9616 22.8271H52.2544V16.2839ZM53.3536 19.0399H53.7392C54.096 19.0399 54.26 18.8567 54.26 18.5095V17.7095C54.26 17.3527 54.1 17.1791 53.7296 17.1791H53.3536V19.0399ZM53.3536 21.9239V19.8791H53.824C54.2096 19.8791 54.3736 20.0623 54.3736 20.4095V21.3935C54.3736 21.7407 54.2 21.9239 53.8336 21.9239H53.3536Z" fill="white"/>
<path d="M56.1216 16.2839H58.7448V17.1815H57.2248V19.0519H58.3152V19.9399H57.2208V21.9263H58.7408V22.8231H56.1216V16.2839Z" fill="white"/>
<path d="M59.4296 16.2839H60.5288V22.8231H59.4296V16.2839Z" fill="white"/>
<path d="M62.1881 18.7143V22.8231H61.2625V16.2839H62.3425L63.5289 20.0359V16.2839H64.4449V22.8231H63.4849L62.1881 18.7143Z" fill="white"/>
<path d="M66.8273 19.332H68.3897V22.8232H67.6001V22.1096C67.4553 22.6016 67.1473 22.9008 66.5489 22.9008C65.6041 22.9008 65.1697 22.148 65.1697 21.1352V17.972C65.1697 16.9496 65.6617 16.2072 66.8193 16.2072C68.0345 16.2072 68.3913 16.8824 68.3913 17.8464V18.4256H67.3865V17.76C67.3865 17.3552 67.2321 17.12 66.8369 17.12C66.4417 17.12 66.2673 17.4 66.2673 17.7952V21.3064C66.2673 21.7016 66.4273 21.9808 66.8081 21.9808C67.1649 21.9808 67.3481 21.7784 67.3481 21.3544V20.2H66.8273V19.332Z" fill="white"/>
</svg>
