<svg width="80" height="80" viewBox="0 0 80 80" fill="none" xmlns="http://www.w3.org/2000/svg">
<rect width="80" height="80" fill="#BF8B2E"/>
<path d="M7.98558 10.5104H8.01038V22.8584H10.7224V6.72717H8.55518L6.05838 9.65437V12.4848H6.08158L7.98558 10.5104Z" fill="white"/>
<path d="M12.3393 10.0592V12.0088H14.8129V9.9864C14.8129 9.012 15.2929 8.7264 15.8601 8.7264C16.3841 8.7264 16.8353 8.94 16.8353 9.94V11.2712C16.8353 12.6048 16.7169 13.1272 15.8353 14.0552L14.3153 15.6736C12.8409 17.244 12.2921 18.2904 12.2921 19.8848V22.8592H19.3321V20.6456H14.8841V19.8848C14.8841 18.6232 15.3361 18.148 16.0257 17.4104L17.7601 15.5784C19.1641 14.08 19.4737 13.1272 19.4737 11.5096V9.94C19.4737 7.6312 18.3537 6.5376 15.9281 6.5376C13.5489 6.5376 12.3361 7.7984 12.3361 10.0576" fill="white"/>
<path d="M62.2838 42.8544C59.0214 40.2776 55.1094 40 53.579 40C52.7718 40 52.0246 40.072 51.4774 40.2024L51.263 40.252C49.1966 40.74 45.7382 41.5568 41.7118 46.5536L41.5934 46.7C41.5292 46.7879 41.494 46.8936 41.4926 47.0024C41.493 47.0954 41.5175 47.1866 41.5638 47.2672L41.655 47.4168C42.3196 48.5288 42.8716 49.4944 43.311 50.3136C43.3901 50.4673 43.539 50.573 43.7101 50.597C43.8813 50.621 44.0535 50.5604 44.1718 50.4344C44.1998 50.3976 44.2286 50.3584 44.2518 50.3288C47.7254 45.52 50.4502 44.88 52.2534 44.4536L52.4798 44.4C52.8435 44.3302 53.2136 44.2988 53.5838 44.3064C54.4222 44.3064 57.3366 44.4456 59.6102 46.2408C61.6334 47.8408 62.659 50.388 62.659 53.8208C62.659 59.5744 59.8758 61.8208 57.539 62.688C56.6253 63.0251 55.6585 63.1953 54.6846 63.1904C53.2022 63.1827 51.7395 62.8498 50.3998 62.2152L50.2326 62.1352C48.2238 61.2632 45.2246 59.4448 42.3886 53.7504C36.5758 42.0704 31.6926 40.968 28.459 40.236L28.2894 40.1984C28.0414 40.1416 27.3422 40.0112 26.2094 40.0112C24.3374 40.0112 20.7358 40.3792 17.6494 42.8432C15.5422 44.5232 13.0286 47.7896 13.0286 53.8032C13.0286 57.4648 13.783 59.8832 15.7166 62.4264C16.0798 62.9224 19.4486 67.2728 25.9166 67.2728C26.9081 67.2695 27.897 67.1725 28.8702 66.9832C30.051 66.7576 31.8734 66.1736 33.9102 64.6808L35.6102 66.2152C35.8134 66.3865 36.1142 66.3725 36.3006 66.1832C36.3822 66.097 36.4262 65.9819 36.423 65.8632L37.7382 57.7608V57.6664C37.737 57.5313 37.679 57.4029 37.5782 57.3128C37.4858 57.2273 37.3632 57.1821 37.2374 57.1872L29.3446 59.36L29.1942 59.3848C29.0973 59.4048 29.0095 59.4556 28.9438 59.5296C28.8555 59.6257 28.8094 59.7531 28.8157 59.8834C28.822 60.0137 28.8803 60.1361 28.9774 60.2232L30.6118 61.7016C29.7526 62.2288 28.8934 62.5816 28.0582 62.7416C27.3686 62.8754 26.6679 62.944 25.9654 62.9464C21.4958 62.9464 19.2966 60.0128 19.2062 59.8888L19.1622 59.828C17.8022 58.0416 17.343 56.5208 17.343 53.8008C17.343 50.356 18.351 47.8008 20.339 46.2168C22.551 44.452 25.3974 44.3144 26.2182 44.3144C26.5938 44.3076 26.969 44.339 27.3382 44.408L27.5126 44.4472C30.0934 45.032 33.6278 45.832 38.5286 55.6752C41.1166 60.8752 44.3622 64.2704 48.4414 66.0624C48.9158 66.3024 51.4462 67.5112 54.6894 67.5112C56.1773 67.516 57.654 67.254 59.0494 66.7376C61.4318 65.8488 66.9758 62.8096 66.9758 53.824C66.9734 47.8176 64.423 44.544 62.2838 42.8544Z" fill="white"/>
<path fill-rule="evenodd" clip-rule="evenodd" d="M26.6273 13.2312V10.232L27.6593 13.2328H28.8113L27.7601 10.2624C28.3889 10.1192 28.6401 9.70322 28.6401 8.99922V8.16002C28.6401 7.24162 28.2401 6.69202 27.1281 6.69202H25.5281V13.2312H26.6273ZM26.6272 9.62402V7.59202L26.9936 7.59362C27.3704 7.59362 27.5344 7.76722 27.5344 8.12402V9.08402C27.5344 9.43122 27.3704 9.62402 26.9936 9.62402H26.6272Z" fill="white"/>
<path d="M29.2313 6.69202H31.8545V7.58962H30.3345V9.46002H31.4241V10.348H30.3313V12.3344H31.8513V13.2312H29.2313V6.69202Z" fill="white"/>
<path d="M32.3754 11.8233V10.9433H33.3978V11.8401C33.3978 12.2065 33.5578 12.4193 33.9378 12.4193C34.285 12.4193 34.4394 12.1873 34.4394 11.8401V11.5921C34.4394 11.2161 34.285 10.9841 33.9474 10.6657L33.3018 10.0201C32.6746 9.40246 32.385 9.02646 32.385 8.27366V8.05206C32.385 7.24166 32.8578 6.61206 33.9282 6.61206C35.0282 6.61206 35.4618 7.15206 35.4618 8.09686V8.62806H34.4586V8.05846C34.4586 7.68246 34.285 7.49846 33.9378 7.49846C33.6298 7.49846 33.417 7.67206 33.417 8.03846V8.17366C33.417 8.54006 33.6194 8.75206 33.9378 9.06086L34.6402 9.76006C35.2386 10.3681 35.5282 10.7345 35.5282 11.4577V11.7777C35.5282 12.6745 35.0482 13.3113 33.9282 13.3113C32.8082 13.3113 32.3754 12.6817 32.3754 11.8233Z" fill="white"/>
<path fill-rule="evenodd" clip-rule="evenodd" d="M37.7098 6.69202H36.0802V13.2312H37.1794V11.0128H37.7098C38.8186 11.0128 39.2242 10.4536 39.2242 9.53762V8.15842C39.2242 7.24162 38.8186 6.69202 37.7098 6.69202ZM37.1793 10.164V7.58961H37.5841C37.9601 7.58961 38.1241 7.76322 38.1241 8.12002V9.62402C38.1241 9.98082 37.9601 10.164 37.5841 10.164H37.1793Z" fill="white"/>
<path fill-rule="evenodd" clip-rule="evenodd" d="M39.7826 8.38003V11.5432C39.7826 12.56 40.2738 13.3088 41.441 13.3088C42.6082 13.3088 43.1098 12.556 43.1098 11.5432V8.38003C43.1098 7.35763 42.5978 6.61523 41.441 6.61523C40.2842 6.61523 39.7826 7.35763 39.7826 8.38003ZM42.0108 8.20644V11.7168C42.0108 12.1128 41.8276 12.392 41.4412 12.392C41.0548 12.392 40.8812 12.1128 40.8812 11.7168V8.20644C40.8812 7.81124 41.0452 7.53124 41.4412 7.53124C41.8372 7.53124 42.0108 7.81124 42.0108 8.20644Z" fill="white"/>
<path d="M44.6528 9.12002V13.2288H43.7272V6.69202H44.8072L45.9936 10.444V6.69202H46.9096V13.2312H45.9448L44.6528 9.12002Z" fill="white"/>
<path d="M47.4784 11.8233V10.9433H48.5008V11.8401C48.5008 12.2065 48.6608 12.4193 49.0408 12.4193C49.388 12.4193 49.5424 12.1873 49.5424 11.8401V11.5921C49.5424 11.2161 49.388 10.9841 49.0504 10.6657L48.404 10.0201C47.7776 9.40246 47.488 9.02646 47.488 8.27366V8.05206C47.488 7.24166 47.9608 6.61206 49.0312 6.61206C50.1304 6.61206 50.5648 7.15206 50.5648 8.09686V8.62806H49.5616V8.05846C49.5616 7.68246 49.388 7.49846 49.0408 7.49846C48.732 7.49846 48.52 7.67206 48.52 8.03846V8.17366C48.52 8.54006 48.7224 8.75206 49.0408 9.06086L49.7448 9.75526C50.3432 10.3633 50.632 10.7297 50.632 11.4529V11.7729C50.632 12.6697 50.152 13.3065 49.032 13.3065C47.912 13.3065 47.4784 12.6817 47.4784 11.8233Z" fill="white"/>
<path d="M51.1816 6.69202H52.2816V13.2312H51.1816V6.69202Z" fill="white"/>
<path fill-rule="evenodd" clip-rule="evenodd" d="M52.9081 6.69202H54.5001C55.5993 6.69202 55.9657 7.20322 55.9657 8.13202V8.79762C55.9657 9.34722 55.7633 9.69442 55.3097 9.83762C55.8593 9.96242 56.1297 10.3288 56.1297 10.9272V11.7952C56.1297 12.7208 55.7153 13.2352 54.6153 13.2352H52.9081V6.69202ZM54.008 9.45041H54.3936C54.7504 9.45041 54.9144 9.26721 54.9144 8.92001V8.12001C54.9144 7.76321 54.7544 7.58961 54.384 7.58961H54.008V9.45041ZM54.008 12.3344V10.2896H54.4784C54.8688 10.2896 55.0288 10.4728 55.0288 10.82V11.804C55.0288 12.1512 54.8552 12.3344 54.488 12.3344H54.008Z" fill="white"/>
<path d="M56.6698 6.69202H57.769V12.3344H59.081V13.2312H56.6698V6.69202Z" fill="white"/>
<path d="M59.5731 6.69202H62.1963V7.58962H60.6723V9.46002H61.7603V10.348H60.6723V12.3344H62.1963V13.2312H59.5731V6.69202Z" fill="white"/>
<path d="M25.5281 21.1448V17.9816C25.5281 16.9592 26.0081 16.2168 27.1673 16.2168C28.3825 16.2168 28.7201 16.892 28.7201 17.856V18.628H27.7177V17.7696C27.7177 17.364 27.5825 17.1296 27.1865 17.1296C26.7905 17.1296 26.6265 17.4096 26.6265 17.8048V21.3152C26.6265 21.7104 26.7905 21.9904 27.1865 21.9904C27.5825 21.9904 27.7177 21.74 27.7177 21.3504V20.1512H28.7201V21.28C28.7201 22.2152 28.3345 22.9096 27.1673 22.9096C26.0001 22.9096 25.5281 22.16 25.5281 21.1448Z" fill="white"/>
<path fill-rule="evenodd" clip-rule="evenodd" d="M29.4145 17.9816V21.1448C29.4145 22.16 29.9065 22.9096 31.0737 22.9096C32.2409 22.9096 32.7425 22.1576 32.7425 21.1448V17.9816C32.7425 16.9592 32.2313 16.2168 31.0737 16.2168C29.9161 16.2168 29.4145 16.9592 29.4145 17.9816ZM31.6423 17.808V21.3184C31.6423 21.7136 31.4599 21.9936 31.0735 21.9936C30.6871 21.9936 30.5135 21.7136 30.5135 21.3184V17.808C30.5135 17.4128 30.6783 17.1328 31.0735 17.1328C31.4687 17.1328 31.6423 17.4128 31.6423 17.808Z" fill="white"/>
<path d="M34.3912 18.724V22.8328H33.4648V16.2936H34.5456L35.732 20.0456V16.2936H36.648V22.8328H35.68L34.3912 18.724Z" fill="white"/>
<path d="M37.3136 21.4248V20.5448H38.336V21.4416C38.336 21.808 38.496 22.02 38.876 22.02C39.2232 22.02 39.3776 21.7888 39.3776 21.4416V21.1904C39.3776 20.8144 39.2232 20.5832 38.8856 20.2648L38.24 19.6208C37.6128 19.004 37.324 18.628 37.324 17.8752V17.6536C37.324 16.8432 37.796 16.2136 38.8672 16.2136C39.9664 16.2136 40.4008 16.7536 40.4008 17.6984V18.2288H39.3968V17.66C39.3968 17.284 39.2232 17.1 38.876 17.1C38.5672 17.1 38.3552 17.2736 38.3552 17.64V17.7752C38.3552 18.1416 38.5576 18.3536 38.876 18.6624L39.58 19.3568C40.1776 19.964 40.4672 20.3304 40.4672 21.0544V21.3744C40.4672 22.2712 39.9872 22.9072 38.8672 22.9072C37.7472 22.9072 37.3136 22.2832 37.3136 21.4248Z" fill="white"/>
<path d="M44.3345 16.2936V21.2416C44.3345 22.2544 43.9009 22.9096 42.7817 22.9096C41.6241 22.9096 41.1425 22.2544 41.1425 21.2416V16.2936H42.2401V21.3472C42.2401 21.7336 42.3945 21.9936 42.7801 21.9936C43.1657 21.9936 43.3201 21.7336 43.3201 21.3472V16.2936H44.3345Z" fill="white"/>
<path d="M48.0865 18.5888H48.0577L47.3145 22.8328H46.8001L45.9841 18.5888H45.9641V22.8328H45.0577V16.2936H46.3377L47.0513 19.9776H47.0609L47.7009 16.2936H49.0905V22.8328H48.0865V18.5888Z" fill="white"/>
<path fill-rule="evenodd" clip-rule="evenodd" d="M51.44 16.2936H49.8128V22.8328H50.912V20.6144H51.44C52.5488 20.6144 52.9544 20.0552 52.9544 19.1392V17.76C52.9544 16.8432 52.5488 16.2936 51.44 16.2936ZM50.9119 19.7656V17.1904H51.3167C51.6967 17.1904 51.8567 17.364 51.8567 17.7208V19.2256C51.8567 19.5824 51.6935 19.7656 51.3167 19.7656H50.9119Z" fill="white"/>
<path d="M53.3137 16.2936H56.2401V17.1904H55.3289V22.8328H54.2201V17.1904H53.3137V16.2936Z" fill="white"/>
<path d="M56.7569 16.2936H57.8561V22.8328H56.7569V16.2936Z" fill="white"/>
<path fill-rule="evenodd" clip-rule="evenodd" d="M58.492 17.9816V21.1448C58.492 22.16 58.984 22.9096 60.1512 22.9096C61.3184 22.9096 61.82 22.1576 61.82 21.1448V17.9816C61.82 16.9592 61.3088 16.2168 60.1512 16.2168C58.9936 16.2168 58.492 16.9592 58.492 17.9816ZM60.7199 17.808V21.3184C60.7199 21.7136 60.5375 21.9936 60.1511 21.9936C59.7647 21.9936 59.5911 21.7136 59.5911 21.3184V17.808C59.5911 17.4128 59.7559 17.1328 60.1511 17.1328C60.5463 17.1328 60.7199 17.4128 60.7199 17.808Z" fill="white"/>
<path d="M63.3825 18.724V22.8328H62.4561V16.2936H63.5361L64.7201 20.0456V16.2936H65.6368V22.8328H64.6745L63.3825 18.724Z" fill="white"/>
<path fill-rule="evenodd" clip-rule="evenodd" d="M26.5888 25.896L25.3544 32.4352H26.4L26.5888 31.2392H27.76L27.9584 32.4352H29.0848L27.84 25.896H26.5888ZM27.6137 30.3616H26.7337L27.1697 27.7376H27.1793L27.6137 30.3616Z" fill="white"/>
<path d="M30.4943 28.3264V32.4352H29.5687V25.896H30.6487L31.8351 29.6472V25.896H32.7519V32.4352H31.7871L30.4943 28.3264Z" fill="white"/>
<path fill-rule="evenodd" clip-rule="evenodd" d="M36.6958 30.6792V27.6512C36.6958 26.64 36.2814 25.896 35.1046 25.896H33.407V32.4352H35.1046C36.2814 32.4352 36.6958 31.6824 36.6958 30.6792ZM35.5965 30.872C35.5965 31.268 35.4229 31.5376 34.9693 31.5376H34.5061V26.7928H34.9693C35.4229 26.7928 35.5965 27.0624 35.5965 27.4488V30.872Z" fill="white"/>
<path fill-rule="evenodd" clip-rule="evenodd" d="M40.0232 25.896H38.3936V32.4352H39.4928V30.2168H40.0232C41.1328 30.2168 41.5376 29.6568 41.5376 28.7408V27.3616C41.5376 26.4456 41.1328 25.896 40.0232 25.896ZM39.4927 29.368V26.7928H39.8975C40.2743 26.7928 40.4383 26.9664 40.4383 27.3232V28.828C40.4383 29.1848 40.2743 29.368 39.8975 29.368H39.4927Z" fill="white"/>
<path fill-rule="evenodd" clip-rule="evenodd" d="M43.2351 32.4352V29.4352L44.2671 32.4352H45.4199L44.3687 29.464C44.9983 29.3208 45.2487 28.9048 45.2487 28.2008V27.3616C45.2487 26.4456 44.8439 25.896 43.7351 25.896H42.1351V32.4352H43.2351ZM43.2349 28.8304V26.7952L43.5997 26.7992C43.9797 26.7992 44.1397 26.9728 44.1397 27.3296V28.2896C44.1397 28.6376 43.9757 28.8304 43.5997 28.8304H43.2349Z" fill="white"/>
<path fill-rule="evenodd" clip-rule="evenodd" d="M45.8777 27.5832V30.7472C45.8777 31.76 46.3689 32.512 47.5361 32.512C48.7033 32.512 49.2049 31.76 49.2049 30.7472V27.5832C49.2049 26.5608 48.6929 25.8184 47.5361 25.8184C46.3793 25.8184 45.8777 26.5608 45.8777 27.5832ZM48.1058 27.4096V30.9208C48.1058 31.316 47.9226 31.596 47.5362 31.596C47.1498 31.596 46.9762 31.316 46.9762 30.9208V27.4096C46.9762 27.0144 47.1402 26.7344 47.5362 26.7344C47.9322 26.7344 48.1058 27.0144 48.1058 27.4096Z" fill="white"/>
<path fill-rule="evenodd" clip-rule="evenodd" d="M53.1496 30.6792V27.6512C53.1496 26.64 52.7344 25.896 51.5584 25.896H49.8608V32.4352H51.5584C52.7344 32.4352 53.1496 31.6824 53.1496 30.6792ZM52.0495 30.872C52.0495 31.268 51.8767 31.5376 51.4231 31.5376H50.9599V26.7928H51.4231C51.8767 26.7928 52.0495 27.0624 52.0495 27.4488V30.872Z" fill="white"/>
<path d="M56.9977 25.896V30.8432C56.9977 31.856 56.5633 32.512 55.4449 32.512C54.2873 32.512 53.8049 31.856 53.8049 30.8432V25.896H54.9049V30.9496C54.9049 31.3352 55.0593 31.596 55.4449 31.596C55.8305 31.596 55.9849 31.3352 55.9849 30.9496V25.896H56.9977Z" fill="white"/>
<path d="M57.6537 30.7472V27.5832C57.6537 26.5608 58.1338 25.8184 59.293 25.8184C60.5082 25.8184 60.8458 26.4936 60.8458 27.4584V28.2296H59.8402V27.3712C59.8402 26.9664 59.7058 26.7312 59.3098 26.7312C58.9138 26.7312 58.7498 27.0112 58.7498 27.4064V30.9176C58.7498 31.3128 58.9138 31.5928 59.3098 31.5928C59.7058 31.5928 59.8402 31.3416 59.8402 30.9528V29.7536H60.8434V30.88C60.8434 31.8152 60.4578 32.5096 59.2906 32.5096C58.1234 32.5096 57.6537 31.76 57.6537 30.7472Z" fill="white"/>
<path d="M61.3472 25.896H64.2696V26.7928H63.36V32.4352H62.2536V26.7928H61.3472V25.896Z" fill="white"/>
<path d="M64.7904 25.896H65.8896V32.4352H64.7904V25.896Z" fill="white"/>
<path fill-rule="evenodd" clip-rule="evenodd" d="M66.5263 27.5832V30.7472C66.5263 31.76 67.0175 32.512 68.1847 32.512C69.3519 32.512 69.8535 31.76 69.8535 30.7472V27.5832C69.8535 26.5608 69.3423 25.8184 68.1847 25.8184C67.0271 25.8184 66.5263 26.5608 66.5263 27.5832ZM68.7537 27.4096V30.9208C68.7537 31.316 68.5713 31.596 68.1849 31.596C67.7985 31.596 67.6249 31.316 67.6249 30.9208V27.4096C67.6249 27.0144 67.7897 26.7344 68.1849 26.7344C68.5801 26.7344 68.7537 27.0144 68.7537 27.4096Z" fill="white"/>
<path d="M71.4159 28.3264V32.4352H70.4895V25.896H71.5703L72.7567 29.6472V25.896H73.6727V32.4352H72.7079L71.4159 28.3264Z" fill="white"/>
</svg>
