<svg width="80" height="80" viewBox="0 0 80 80" fill="none" xmlns="http://www.w3.org/2000/svg">
<rect width="80" height="80" fill="#FCC30B"/>
<path d="M8.20557 8.91599H12.3936L8.77597 22.8336H11.4656L15.0104 9.20159V6.70319H8.20557V8.91599Z" fill="white"/>
<path fill-rule="evenodd" clip-rule="evenodd" d="M40 38.7592C35.2566 38.7573 30.9792 41.6132 29.1627 45.995C27.3462 50.3768 28.3484 55.4214 31.702 58.776C35.0555 62.1307 40.0997 63.1346 44.4821 61.3196C48.8645 59.5046 51.7219 55.2282 51.7216 50.4848C51.722 44.0103 46.4745 38.761 40 38.7592ZM39.1319 43.3912C39.1319 43.0016 39.5231 42.5712 40.0047 42.5712C40.4863 42.5712 40.8727 43.0016 40.8727 43.3912V47.4176C40.8727 47.8056 40.4847 48.2312 40.0047 48.2312C39.5247 48.2312 39.1319 47.8056 39.1319 47.4176V43.3912ZM33.9797 51.3102C34.4322 54.2869 36.9891 56.488 40 56.4928C43.016 56.4922 45.5787 54.2872 46.0294 51.3051C46.4801 48.3229 44.6835 45.4591 41.8024 44.5672V46.8384C43.4499 47.6719 44.3107 49.5266 43.8837 51.3229C43.4566 53.1192 41.8532 54.3881 40.0069 54.391C38.1605 54.3939 36.5532 53.1299 36.1206 51.3349C35.688 49.54 36.543 47.6826 38.188 46.844V44.5728C35.3145 45.4721 33.5272 48.3336 33.9797 51.3102Z" fill="white"/>
<path d="M26.5383 50.3824C26.5383 49.8504 26.0671 49.4224 25.6375 49.4224H20.5023C20.0695 49.4224 19.5943 49.8528 19.5943 50.3824C19.5943 50.912 20.0695 51.348 20.5023 51.348H25.6375C26.0671 51.348 26.5383 50.9152 26.5383 50.3824Z" fill="white"/>
<path d="M60.4055 50.3824C60.4055 49.8504 59.9343 49.4224 59.5047 49.4224H54.3703C53.9375 49.4224 53.4623 49.8528 53.4623 50.3824C53.4623 50.912 53.9375 51.348 54.3703 51.348H59.5047C59.9343 51.348 60.4055 50.9152 60.4055 50.3824Z" fill="white"/>
<path d="M40 36.9224C40.5304 36.9224 40.96 36.4512 40.96 36.0216V30.8864C40.96 30.4536 40.5288 29.9784 40 29.9784C39.4712 29.9784 39.0328 30.4536 39.0328 30.8864V36.0216C39.0328 36.4512 39.4672 36.9224 40 36.9224Z" fill="white"/>
<path d="M40 70.7888C40.5304 70.7888 40.96 70.3176 40.96 69.888V64.7536C40.96 64.3216 40.5288 63.8456 40 63.8456C39.4712 63.8456 39.0328 64.3216 39.0328 64.7536V69.888C39.0328 70.3176 39.4672 70.7888 40 70.7888Z" fill="white"/>
<path d="M28.32 43.6952C28.5848 43.2336 28.3904 42.6264 28.016 42.4152L23.5599 39.8648C23.1839 39.6496 22.5583 39.7848 22.2935 40.2488C22.0287 40.7128 22.2271 41.3232 22.6023 41.5384L27.0592 44.0888C27.432 44.3024 28.056 44.1608 28.32 43.6976" fill="white"/>
<path d="M57.7111 60.5176C57.9743 60.0576 57.7799 59.4488 57.4071 59.2376L52.9511 56.6872C52.5751 56.4728 51.9487 56.6072 51.6847 57.072C51.4207 57.5368 51.6175 58.1464 51.9927 58.3608L56.4495 60.9112C56.8223 61.1248 57.4463 60.9832 57.7111 60.52" fill="white"/>
<path d="M46.6887 38.7016C47.1495 38.9648 47.7567 38.7704 47.9687 38.3976L50.5183 33.9408C50.7343 33.5648 50.5983 32.9384 50.1351 32.6744C49.6719 32.4104 49.0599 32.6072 48.8455 32.9832L46.2975 37.44C46.0839 37.8136 46.2255 38.4376 46.6887 38.7024" fill="white"/>
<path d="M29.8663 68.0952C30.3271 68.3584 30.9343 68.164 31.1463 67.7904L33.6959 63.3344C33.9111 62.9592 33.7759 62.332 33.3119 62.068C32.8479 61.804 32.2399 62 32.0255 62.3768L29.4751 66.8328C29.2615 67.2056 29.4031 67.8304 29.8663 68.0952Z" fill="white"/>
<path d="M33.2912 38.7128C33.7512 38.448 33.8904 37.8248 33.676 37.452L31.116 33.0008C30.9 32.6256 30.2904 32.4288 29.8296 32.6936C29.3688 32.9584 29.2288 33.5872 29.4456 33.9624L32.0056 38.4128C32.2208 38.7856 32.8296 38.9784 33.2928 38.7128" fill="white"/>
<path d="M50.1736 68.072C50.6344 67.8072 50.7728 67.184 50.5592 66.812L47.9992 62.3608C47.7832 61.9848 47.1736 61.788 46.712 62.0528C46.2504 62.3176 46.1112 62.9464 46.3288 63.3224L48.8888 67.7728C49.1032 68.1456 49.7128 68.3376 50.1752 68.072" fill="white"/>
<path d="M51.6711 43.6744C51.9359 44.1352 52.5583 44.2736 52.9311 44.06L57.3815 41.5C57.7575 41.284 57.9559 40.6736 57.6903 40.2128C57.4247 39.752 56.7975 39.6128 56.4215 39.8288L51.9711 42.3888C51.5975 42.6032 51.4055 43.2136 51.6711 43.6752" fill="white"/>
<path d="M22.312 60.56C22.5768 61.0208 23.1992 61.1592 23.5728 60.9448L28.0232 58.3848C28.3984 58.1688 28.5968 57.5584 28.3304 57.0976C28.064 56.6368 27.4376 56.4976 27.0624 56.7128L22.612 59.2728C22.2384 59.4864 22.0464 60.0976 22.312 60.5592" fill="white"/>
<path fill-rule="evenodd" clip-rule="evenodd" d="M23.9128 6.6936L22.6784 13.232H23.72L23.9128 12.0368H25.0776L25.28 13.232H26.4112L25.1672 6.6936H23.9128ZM24.9376 11.1584H24.0576L24.4944 8.5352H24.504L24.9376 11.1584Z" fill="white"/>
<path d="M26.816 6.6936H29.3912V7.5904H27.9152V9.4616H29.0152V10.3488H27.9152V13.2288H26.816V6.6936Z" fill="white"/>
<path d="M29.8248 6.6936H32.4V7.5904H30.924V9.4616H32.024V10.3488H30.924V13.2288H29.8248V6.6936Z" fill="white"/>
<path fill-rule="evenodd" clip-rule="evenodd" d="M32.7376 8.38083V11.5448C32.7376 12.56 33.2328 13.3096 34.4 13.3096C35.5672 13.3096 36.0688 12.5576 36.0688 11.5448V8.38083C36.0688 7.35843 35.5608 6.61603 34.4 6.61603C33.2392 6.61603 32.7376 7.36003 32.7376 8.38083ZM34.9656 8.20723V11.7184C34.9656 12.1136 34.7824 12.3936 34.396 12.3936C34.0096 12.3936 33.836 12.1136 33.836 11.7184V8.20723C33.836 7.81203 34 7.53203 34.396 7.53203C34.792 7.53203 34.9656 7.81203 34.9656 8.20723Z" fill="white"/>
<path fill-rule="evenodd" clip-rule="evenodd" d="M37.7424 13.232V10.2328L38.7744 13.2328H39.9312L38.88 10.2624C39.5096 10.1192 39.76 9.7032 39.76 8.9992V8.16C39.76 7.2432 39.3536 6.6936 38.24 6.6936H36.64V13.232H37.7424ZM37.7425 9.6272V7.5928L38.1089 7.5968C38.4857 7.5968 38.6497 7.7704 38.6497 8.1272V9.0872C38.6497 9.4344 38.4857 9.6272 38.1089 9.6272H37.7425Z" fill="white"/>
<path fill-rule="evenodd" clip-rule="evenodd" d="M43.6 11.4768V8.4488C43.6 7.44 43.1824 6.6936 42.0056 6.6936H40.308V13.232H42.0088C43.1856 13.232 43.6 12.48 43.6 11.4768ZM42.5009 11.6696C42.5009 12.0656 42.3273 12.3352 41.8737 12.3352H41.4105V7.5904H41.8737C42.3273 7.5904 42.5009 7.86 42.5009 8.2456V11.6696Z" fill="white"/>
<path fill-rule="evenodd" clip-rule="evenodd" d="M45.0912 6.6936L43.8568 13.232H44.8984L45.0912 12.0368H46.2584L46.4608 13.232H47.5896L46.3456 6.6936H45.0912ZM46.116 11.1584H45.236L45.6704 8.5352H45.68L46.116 11.1584Z" fill="white"/>
<path fill-rule="evenodd" clip-rule="evenodd" d="M47.9944 6.6936H49.5856C50.6856 6.6936 51.052 7.204 51.052 8.1336V8.8C51.052 9.3496 50.8488 9.6968 50.396 9.84C50.9456 9.9648 51.216 10.332 51.216 10.9296V11.7976C51.216 12.7232 50.8008 13.2376 49.7016 13.2376H47.9944V6.6936ZM49.0936 9.452H49.48C49.8368 9.452 50.0008 9.268 50.0008 8.9208V8.1208C50.0008 7.764 49.8408 7.5904 49.4704 7.5904H49.0936V9.452ZM49.0936 12.3352V10.2904H49.564C49.9496 10.2904 50.1136 10.4736 50.1136 10.8208V11.8048C50.1136 12.152 49.94 12.3352 49.5736 12.3352H49.0936Z" fill="white"/>
<path d="M51.7169 6.6936H52.8169V12.3352H54.1281V13.232H51.7169V6.6936Z" fill="white"/>
<path d="M54.5808 6.6936H57.2048V7.5904H55.68V9.4616H56.7696V10.3488H55.68V12.3352H57.2V13.232H54.576L54.5808 6.6936Z" fill="white"/>
<path fill-rule="evenodd" clip-rule="evenodd" d="M59.7697 6.6936L58.5353 13.232H59.5769L59.7697 12.0368H60.9369L61.1393 13.232H62.2681L61.0233 6.6936H59.7697ZM60.7945 11.1584H59.9145L60.3505 8.5352H60.3609L60.7945 11.1584Z" fill="white"/>
<path d="M63.5999 9.124V13.232H62.6727V6.6936H63.7527L64.9391 10.4448V6.6936H65.8551V13.232H64.8911L63.5999 9.124Z" fill="white"/>
<path fill-rule="evenodd" clip-rule="evenodd" d="M69.7225 11.4768V8.4488C69.7225 7.44 69.3081 6.6936 68.1313 6.6936H66.4337V13.232H68.1313C69.3081 13.232 69.7225 12.48 69.7225 11.4768ZM68.6272 11.6696C68.6272 12.0656 68.4536 12.3352 68 12.3352H67.5376V7.5904H68C68.4536 7.5904 68.6272 7.86 68.6272 8.2456V11.6696Z" fill="white"/>
<path d="M22.8432 21.1464V18C22.8432 16.9832 23.3232 16.24 24.4744 16.24C25.6832 16.24 26.0192 16.912 26.0192 17.8712V18.64H25.0208V17.788C25.0208 17.388 24.8864 17.1552 24.4936 17.1552C24.1008 17.1552 23.9336 17.4328 23.9336 17.8264V21.3192C23.9336 21.7128 24.0936 21.9904 24.4936 21.9904C24.8936 21.9904 25.0208 21.7408 25.0208 21.3576V20.16H26.0192V21.28C26.0192 22.2104 25.6352 22.9016 24.4744 22.9016C23.3136 22.9016 22.8432 22.1536 22.8432 21.1464Z" fill="white"/>
<path d="M26.7096 16.32H27.8032V21.9328H29.108V22.8256H26.708L26.7096 16.32Z" fill="white"/>
<path d="M29.7032 16.32H32.3128V17.2128H30.8V19.0736H31.884V19.9536H30.8V21.9296H32.32V22.8224H29.7032V16.32Z" fill="white"/>
<path fill-rule="evenodd" clip-rule="evenodd" d="M34.0497 16.32L32.8217 22.8256H33.8577L34.0497 21.636H35.2128L35.4144 22.8256H36.5344L35.2968 16.32H34.0497ZM35.0663 20.7624H34.1936L34.6247 18.1528H34.6343L35.0663 20.7624Z" fill="white"/>
<path d="M37.9999 18.7384V22.8256H37.0807V16.32H38.1599L39.3399 20.0528V16.32H40.2511V22.8256H39.2911L37.9999 18.7384Z" fill="white"/>
<path d="M43.1736 16.32H45.7832V17.2128H44.2672V19.0736H45.3512V19.9536H44.2672V21.9296H45.7832V22.8224H43.1736V16.32Z" fill="white"/>
<path d="M47.36 18.7384V22.8256H46.436V16.32H47.5104L48.6904 20.0528V16.32H49.6V22.8256H48.64L47.36 18.7384Z" fill="white"/>
<path d="M50.3119 16.32H52.9215V17.2128H51.4055V19.0736H52.4895V19.9536H51.4055V21.9296H52.9215V22.8224H50.3119V16.32Z" fill="white"/>
<path fill-rule="evenodd" clip-rule="evenodd" d="M54.6776 22.824V19.84L55.704 22.8256H56.8552L55.8096 19.8704C56.4328 19.7264 56.6824 19.3136 56.6824 18.6136V17.7784C56.6824 16.8672 56.28 16.32 55.176 16.32H53.5832V22.824H54.6776ZM54.6775 19.2352V17.2112H55.0399C55.4175 17.2112 55.5775 17.3832 55.5775 17.7384V18.6984C55.5775 19.0432 55.4143 19.2352 55.0399 19.2352H54.6775Z" fill="white"/>
<path d="M59.0233 19.352H60.5777V22.8256H59.7913V22.1152C59.6473 22.6048 59.3401 22.9024 58.7457 22.9024C57.8049 22.9024 57.3737 22.1536 57.3737 21.1464V18C57.3737 16.9832 57.8625 16.24 59.0137 16.24C60.2233 16.24 60.5777 16.912 60.5777 17.8712V18.4472H59.5801V17.7848C59.5801 17.3848 59.4265 17.152 59.0337 17.152C58.6409 17.152 58.4673 17.4296 58.4673 17.8232V21.316C58.4673 21.7096 58.6273 21.9872 59.0041 21.9872C59.3593 21.9872 59.5417 21.7856 59.5417 21.364V20.216H59.0233V19.352Z" fill="white"/>
<path d="M63.408 20.3496V22.8256H62.3144V20.3496L61.096 16.32H62.24L62.9024 18.7864H62.912L63.5712 16.32H64.6168L63.408 20.3496Z" fill="white"/>
</svg>
