<svg width="80" height="80" viewBox="0 0 80 80" fill="none" xmlns="http://www.w3.org/2000/svg">
<rect width="80" height="80" fill="#FD9D24"/>
<path d="M23.404 13.312C24.524 13.312 25.004 12.672 25.004 11.7784V11.4584C25.004 10.7384 24.7144 10.3688 24.1168 9.76077L23.4128 9.06637C23.0928 8.75757 22.8928 8.54557 22.8928 8.17757V8.04397C22.8928 7.67677 23.1048 7.50317 23.4128 7.50317C23.7592 7.50317 23.9336 7.68637 23.9336 8.06317V8.63117H24.936V8.10157C24.936 7.15677 24.5032 6.61597 23.4032 6.61597C22.332 6.61597 21.86 7.24317 21.86 8.05597V8.27917C21.86 9.03037 22.1496 9.40717 22.776 10.024L23.4216 10.672C23.7592 10.992 23.9136 11.2208 23.9136 11.5968V11.8472C23.9136 12.1952 23.7592 12.4264 23.4128 12.4264C23.0368 12.4264 22.8728 12.2144 22.8728 11.8472V10.9512H21.8528V11.8312C21.8528 12.6896 22.2856 13.3168 23.404 13.3168" fill="white"/>
<path d="M28.6776 11.6432V6.6936H27.6648V11.7488C27.6648 12.1352 27.5104 12.3944 27.124 12.3944C26.7376 12.3944 26.5848 12.1352 26.5848 11.7488V6.6936H25.4848V11.6432C25.4848 12.656 25.9648 13.312 27.124 13.312C28.244 13.312 28.6776 12.656 28.6776 11.6432Z" fill="white"/>
<path d="M32.3905 11.7784V11.4584C32.3905 10.7384 32.1001 10.3688 31.5041 9.76082L30.8001 9.06642C30.4801 8.75842 30.2785 8.54562 30.2785 8.18002V8.04482C30.2785 7.67762 30.4921 7.50402 30.8001 7.50402C31.1473 7.50402 31.3201 7.68642 31.3201 8.06402V8.63202H32.3201V8.10242C32.3201 7.15602 31.8873 6.61682 30.7873 6.61682C29.7169 6.61682 29.2441 7.24402 29.2441 8.05682V8.27842C29.2441 9.03042 29.5345 9.40722 30.1617 10.0248L30.8065 10.672C31.1441 10.992 31.2977 11.2208 31.2977 11.5968V11.8488C31.2977 12.1944 31.1441 12.4272 30.7969 12.4272C30.4209 12.4272 30.2569 12.2144 30.2569 11.8488V10.948H29.2377V11.828C29.2377 12.6864 29.6705 13.3128 30.7897 13.3128C31.9089 13.3128 32.3897 12.6728 32.3897 11.7792" fill="white"/>
<path d="M35.5783 6.6936H32.6567V7.5912H33.5623V13.2352H34.6719V7.5912H35.5783V6.6936Z" fill="white"/>
<path fill-rule="evenodd" clip-rule="evenodd" d="M36.6049 6.6936H37.8585L39.1017 13.2344H37.9729L37.7697 12.0392H36.6033L36.4105 13.2344H35.3705L36.6049 6.6936ZM37.1833 8.5368L36.7505 11.1608H37.6281L37.1937 8.5368H37.1833Z" fill="white"/>
<rect x="39.5465" y="6.69446" width="1.09921" height="6.5416" fill="white"/>
<path d="M44.456 13.2352V6.6936H43.54V10.4456L42.3528 6.6936H41.2728V13.2352H42.1992V9.1248L43.4904 13.2352H44.456Z" fill="white"/>
<path fill-rule="evenodd" clip-rule="evenodd" d="M47.2128 12.0384H46.0456L45.8512 13.2344H44.8112L46.0456 6.6936H47.2992L48.5424 13.2384H47.4144L47.2128 12.0384ZM46.6336 8.536H46.6232L46.1888 11.1608H47.0688L46.6336 8.536Z" fill="white"/>
<path fill-rule="evenodd" clip-rule="evenodd" d="M51.9543 8.79919V8.13519C51.9543 7.20879 51.5887 6.69519 50.4887 6.69519H48.8967V13.2368H50.6039C51.7039 13.2368 52.1175 12.7256 52.1175 11.7968V10.9296C52.1175 10.3312 51.8487 9.96399 51.2983 9.83919C51.7519 9.69439 51.9543 9.34719 51.9543 8.79919ZM50 7.59119H50.3768C50.7424 7.59119 50.9072 7.76399 50.9072 8.12159V8.92159C50.9072 9.26959 50.7424 9.45279 50.3856 9.45279H50V7.59119ZM50.4823 12.3384C50.8487 12.3384 51.0215 12.1544 51.0215 11.8072L51.0239 10.8224C51.0239 10.476 50.8599 10.2928 50.4743 10.2928H50.0023V12.3384H50.4823Z" fill="white"/>
<path d="M53.6696 6.6936H52.5704V13.2352H54.98V12.3376H53.6696V6.6936Z" fill="white"/>
<path d="M58.0073 7.5912V6.6936H55.3841V13.2352H58.0073V12.3376H56.4833V10.3496H57.5729V9.4632H56.4833V7.5912H58.0073Z" fill="white"/>
<path d="M61.4952 13.3119C62.6624 13.3119 63.0488 12.6175 63.0488 11.6815V10.5527H62.0448V11.7599C62.0448 12.1439 61.9096 12.3951 61.5144 12.3951C61.1192 12.3951 60.9544 12.1159 60.9544 11.7199V8.20874C60.9544 7.80874 61.1144 7.53274 61.5144 7.53274C61.9144 7.53274 62.0448 7.76394 62.0448 8.17274V9.03194H63.0488V8.25994C63.0488 7.29434 62.7104 6.61914 61.4952 6.61914C60.3384 6.61914 59.856 7.36154 59.856 8.38394V11.5495C59.856 12.5623 60.336 13.3143 61.4952 13.3143" fill="white"/>
<rect x="63.5649" y="6.69446" width="1.0984" height="6.5416" fill="white"/>
<path d="M67.1 13.2352V7.5912H68.0048V6.6936H65.084V7.5912H65.9896V13.2352H67.1Z" fill="white"/>
<rect x="68.4344" y="6.69446" width="1.09839" height="6.5416" fill="white"/>
<path d="M70.0993 13.2352H72.7217V12.3376H71.1985V10.3496H72.2865V9.4632H71.1985V7.5912H72.7217V6.6936H70.0993V13.2352Z" fill="white"/>
<path d="M74.5849 9.06722C74.2649 8.75762 74.0657 8.54642 74.0657 8.17842V8.04482C74.0657 7.67762 74.2769 7.50402 74.5849 7.50402C74.9337 7.50402 75.1057 7.68722 75.1057 8.06402V8.63282H76.1097V8.10242C76.1097 7.15602 75.6753 6.61682 74.5753 6.61682C73.5049 6.61682 73.0337 7.24402 73.0337 8.05682V8.28002C73.0337 9.03122 73.3217 9.40802 73.9489 10.0248L74.5945 10.6728C74.9337 10.9928 75.0873 11.2216 75.0873 11.5976V11.848C75.0873 12.196 74.9337 12.4272 74.5849 12.4272C74.2089 12.4272 74.0449 12.2152 74.0449 11.848V10.952H73.0233V11.832C73.0233 12.6904 73.4569 13.3176 74.5753 13.3176C75.6937 13.3176 76.1753 12.6776 76.1753 11.784V11.464C76.1753 10.744 75.8833 10.3744 75.2873 9.76642L74.5849 9.06722Z" fill="white"/>
<path fill-rule="evenodd" clip-rule="evenodd" d="M21.8687 22.8352L23.1031 16.2952H24.3559L25.5999 22.8352H24.4711L24.2679 21.6392H23.1015L22.9087 22.8352H21.8687ZM23.6815 18.1376L23.2479 20.7616H24.1247L23.6919 18.1376H23.6815Z" fill="white"/>
<path d="M28.4175 20.0472L27.2311 16.2952H26.1511V22.836H27.0775V18.7248L28.3687 22.836H29.3335V16.2952H28.4175V20.0472Z" fill="white"/>
<path fill-rule="evenodd" clip-rule="evenodd" d="M30.0576 16.2936H31.7552V16.2904C32.932 16.2904 33.3456 17.0376 33.3456 18.0504V21.08C33.3456 22.084 32.932 22.836 31.7552 22.836H30.0576V16.2936ZM31.62 21.9352C32.0728 21.9352 32.2464 21.6648 32.2464 21.2696V17.8472C32.2464 17.4616 32.0728 17.192 31.62 17.192H31.156V21.9352H31.62Z" fill="white"/>
<path d="M36.8184 16.2177C35.6608 16.2177 35.1784 16.9601 35.1784 17.9833V21.148C35.1784 22.16 35.6584 22.9128 36.8184 22.9128C37.9784 22.9128 38.3704 22.2176 38.3704 21.2817V20.1537H37.3672V21.36C37.3672 21.7464 37.2328 22 36.8384 22C36.444 22 36.2784 21.7208 36.2784 21.3248V17.8129C36.2784 17.4177 36.4432 17.1377 36.8384 17.1377C37.2336 17.1377 37.3672 17.3689 37.3672 17.7777V18.6361H38.3704V17.8641C38.3704 16.8993 38.0336 16.2249 36.8184 16.2249" fill="white"/>
<path fill-rule="evenodd" clip-rule="evenodd" d="M39.0664 17.9833C39.0664 16.9601 39.5672 16.2177 40.7256 16.2177C41.892 16.2177 42.3928 16.9601 42.3928 17.9833V21.148C42.3928 22.16 41.884 22.9128 40.7256 22.9128C39.5672 22.9128 39.0664 22.16 39.0664 21.148V17.9833ZM40.7256 21.9961C41.12 21.9961 41.2936 21.7169 41.2936 21.3209V17.8089C41.2936 17.4137 41.1136 17.1336 40.7256 17.1336C40.3376 17.1336 40.1656 17.4137 40.1656 17.8089V21.3209C40.1656 21.7169 40.3312 21.9961 40.7256 21.9961Z" fill="white"/>
<path d="M45.1225 19.98H45.1129L44.4001 16.2936H43.1177V22.8352H44.0233V18.5904H44.0425L44.8625 22.8352H45.3729L46.1161 18.5904H46.1449V22.8352H47.1481V16.2936H45.7593L45.1225 19.98Z" fill="white"/>
<path d="M49.8785 19.98H49.8689L49.1553 16.2936H47.8721V22.8352H48.7793V18.5904H48.7977L49.6169 22.8352H50.1289L50.8705 18.5904H50.9001V22.8352H51.9025V16.2936H50.5145L49.8785 19.98Z" fill="white"/>
<path d="M54.8057 21.3496C54.8057 21.736 54.6529 21.9976 54.2665 21.9976C53.8801 21.9976 53.7265 21.736 53.7265 21.3496V16.2952H52.6265V21.2424C52.6265 22.2568 53.1065 22.9128 54.2665 22.9128C55.3865 22.9128 55.8185 22.2568 55.8185 21.2424V16.2952H54.8057V21.3496Z" fill="white"/>
<path d="M58.8104 20.0472L57.6224 16.2952H56.5432V22.836H57.4696V18.7248L58.7608 22.836H59.7248V16.2952H58.8104V20.0472Z" fill="white"/>
<path d="M5.73199 9.63118V12.4616H5.75519L7.65839 10.4872H7.68319V22.8344H10.3952V6.70398H8.22959L5.73199 9.63118Z" fill="white"/>
<path d="M11.9175 9.63118V12.4616H11.9415L13.8447 10.4872H13.8679V22.8344H16.5807V6.70398H14.4167L11.9175 9.63118Z" fill="white"/>
<rect x="60.4512" y="16.2936" width="1.09921" height="6.5416" fill="white"/>
<path d="M62.1488 17.1912H63.0552V22.8352H64.164V17.1912H65.0704V16.2936H62.1488V17.1912Z" fill="white"/>
<rect x="65.6785" y="16.2936" width="1.10002" height="6.5416" fill="white"/>
<path d="M67.512 22.8352H70.1352V21.9384H68.6104V19.9512H69.7008V19.0632H68.6104V17.1912H70.1352V16.2936H67.512V22.8352Z" fill="white"/>
<path d="M72.2663 18.668C71.9463 18.3584 71.7455 18.1464 71.7455 17.7808V17.6448C71.7455 17.2776 71.9575 17.1048 72.2663 17.1048C72.6135 17.1048 72.7863 17.288 72.7863 17.6648V18.2344H73.7903V17.7032C73.7903 16.7576 73.3559 16.2184 72.2567 16.2184C71.1855 16.2184 70.7135 16.8456 70.7135 17.6584V17.88C70.7135 18.632 71.0031 19.0088 71.6303 19.6256L72.2767 20.2728C72.6135 20.5928 72.7679 20.8224 72.7679 21.1984V21.4496C72.7679 21.7968 72.6135 22.0288 72.2663 22.0288C71.8903 22.0288 71.7263 21.8168 71.7263 21.4496V20.5496H70.7039V21.4296C70.7039 22.288 71.1375 22.9152 72.2567 22.9152C73.3759 22.9152 73.8567 22.2752 73.8567 21.3824V21.0624C73.8567 20.3424 73.5671 19.9736 72.9695 19.3648L72.2663 18.668Z" fill="white"/>
<path d="M13.2 60.9048H25.2304C25.3474 60.9056 25.4536 60.8368 25.5009 60.7298C25.5482 60.6228 25.5274 60.498 25.448 60.412L25.4312 60.3944L19.444 52.6488L19.3856 52.584C19.3299 52.5228 19.2508 52.4879 19.168 52.488C19.0965 52.4895 19.0278 52.5164 18.9744 52.564L18.9384 52.6056L18.8816 52.6688L13.0416 60.3336L12.952 60.4432C12.919 60.4918 12.9014 60.5493 12.9016 60.608C12.9016 60.687 12.9331 60.7628 12.9891 60.8185C13.0451 60.8742 13.121 60.9053 13.2 60.9048Z" fill="white"/>
<path d="M25.1936 62H13.136C13.0577 62 12.9826 62.0311 12.9272 62.0865C12.8719 62.1418 12.8408 62.2169 12.8408 62.2952V71.7272C12.8406 71.8057 12.8715 71.8811 12.9269 71.9367C12.9823 71.9924 13.0575 72.0238 13.136 72.024H17.0168V66.0872C17.0166 66.0088 17.0476 65.9336 17.103 65.8782C17.1584 65.8228 17.2336 65.7918 17.312 65.792H20.912C20.9903 65.7918 21.0655 65.8228 21.1209 65.8782C21.1763 65.9336 21.2074 66.0088 21.2072 66.0872V72.024H25.1912C25.2697 72.0238 25.3449 71.9924 25.4002 71.9367C25.4556 71.8811 25.4866 71.8057 25.4864 71.7272V62.292C25.4846 62.1311 25.3544 62.0013 25.1936 62Z" fill="white"/>
<path fill-rule="evenodd" clip-rule="evenodd" d="M66.8663 59.5263H54.9327C54.8563 59.525 54.7825 59.5543 54.7276 59.6076C54.6728 59.6609 54.6415 59.7338 54.6407 59.8103V71.8607C54.6433 72.0195 54.7739 72.1461 54.9327 72.1439H66.8663C66.9427 72.1452 67.0164 72.1161 67.0714 72.063C67.1263 72.0098 67.1578 71.9371 67.1591 71.8607V59.8103C67.1583 59.7337 67.1269 59.6606 67.0719 59.6073C67.0169 59.554 66.9429 59.5248 66.8663 59.5263ZM60.3367 67.3935C60.3359 67.4699 60.3047 67.5428 60.2501 67.5962C60.1955 67.6496 60.1219 67.6791 60.0455 67.6783H56.4799C56.4033 67.6793 56.3295 67.6499 56.2745 67.5965C56.2196 67.5431 56.1882 67.4701 56.1871 67.3935V65.2271C56.188 65.1504 56.2194 65.0772 56.2743 65.0238C56.3293 64.9703 56.4033 64.941 56.4799 64.9423H60.0455C60.122 64.9412 60.1957 64.9707 60.2504 65.0241C60.305 65.0776 60.3361 65.1506 60.3367 65.2271V67.3935ZM60.2501 63.5914C60.3047 63.538 60.3359 63.4651 60.3367 63.3887V61.2207C60.3357 61.1445 60.3044 61.0719 60.2498 61.0188C60.1952 60.9656 60.1217 60.9364 60.0455 60.9375H56.4799C56.321 60.9352 56.1902 61.0618 56.1871 61.2207V63.3887C56.1882 63.4653 56.2196 63.5383 56.2745 63.5917C56.3295 63.6451 56.4033 63.6745 56.4799 63.6735H60.0455C60.1219 63.6743 60.1955 63.6448 60.2501 63.5914ZM65.7862 67.3935C65.7853 67.4701 65.754 67.5433 65.699 67.5968C65.644 67.6502 65.57 67.6796 65.4934 67.6783H61.9294C61.8527 67.6796 61.7787 67.6502 61.7238 67.5968C61.6688 67.5433 61.6374 67.4701 61.6366 67.3935V65.2271C61.6374 65.1504 61.6688 65.0772 61.7238 65.0238C61.7787 64.9703 61.8527 64.941 61.9294 64.9423H65.4934C65.57 64.941 65.644 64.9703 65.699 65.0238C65.754 65.0772 65.7853 65.1504 65.7862 65.2271V67.3935ZM65.699 63.5919C65.754 63.5385 65.7853 63.4653 65.7862 63.3887V61.2207C65.7849 61.1443 65.7534 61.0715 65.6984 61.0184C65.6435 60.9653 65.5698 60.9362 65.4934 60.9375H61.9294C61.853 60.9362 61.7792 60.9653 61.7243 61.0184C61.6694 61.0715 61.6378 61.1443 61.6366 61.2207V63.3887C61.6374 63.4653 61.6688 63.5385 61.7238 63.5919C61.7787 63.6454 61.8527 63.6747 61.9294 63.6735H65.4934C65.57 63.6747 65.644 63.6454 65.699 63.5919Z" fill="white"/>
<path fill-rule="evenodd" clip-rule="evenodd" d="M39.1246 31.5552H27.4446C27.3689 31.5554 27.2963 31.5857 27.2429 31.6394C27.1895 31.6931 27.1596 31.7658 27.1598 31.8416V71.7536C27.1603 71.9108 27.2874 72.0383 27.4446 72.0392H39.1246C39.2825 72.0388 39.4105 71.9114 39.4118 71.7536V31.84C39.4114 31.6817 39.2829 31.5536 39.1246 31.5536V31.5552ZM32.1776 67.492C32.1776 67.5327 32.1614 67.5718 32.1326 67.6006C32.1038 67.6294 32.0647 67.6456 32.024 67.6456H29.3504C29.2655 67.6456 29.1968 67.5768 29.1968 67.492V64.5128C29.1968 64.4721 29.213 64.4331 29.2418 64.4045C29.2706 64.3758 29.3097 64.3598 29.3504 64.36H32.024C32.0646 64.3598 32.1037 64.3758 32.1325 64.4045C32.1614 64.4331 32.1776 64.4721 32.1776 64.5128V67.492ZM32.1321 60.7558C32.1609 60.7273 32.1772 60.6885 32.1774 60.648V57.6696C32.1776 57.6288 32.1615 57.5896 32.1327 57.5607C32.1038 57.5319 32.0646 57.5158 32.0238 57.516H29.3534C29.3126 57.5158 29.2734 57.5319 29.2446 57.5607C29.2157 57.5896 29.1996 57.6288 29.1998 57.6696V60.648C29.2003 60.7311 29.2671 60.7987 29.3502 60.8H32.0238C32.0644 60.8002 32.1033 60.7843 32.1321 60.7558ZM32.1776 53.8056C32.1776 53.8463 32.1614 53.8854 32.1326 53.9142C32.1038 53.943 32.0647 53.9592 32.024 53.9592H29.3504C29.2655 53.9592 29.1968 53.8904 29.1968 53.8056V50.8248C29.1972 50.7403 29.2658 50.672 29.3504 50.672H32.024C32.1085 50.672 32.1771 50.7403 32.1776 50.8248V53.8056ZM32.0238 47.1152C32.1087 47.1152 32.1774 47.0464 32.1774 46.9616V43.9808C32.1772 43.9403 32.1609 43.9016 32.1321 43.8733C32.1032 43.8449 32.0643 43.8292 32.0238 43.8296H29.3534C29.313 43.8292 29.274 43.8449 29.2452 43.8733C29.2164 43.9016 29.2 43.9403 29.1998 43.9808V46.96C29.1989 47.0442 29.266 47.1134 29.3502 47.1152H32.0238ZM32.1776 40.1192C32.1771 40.2037 32.1085 40.272 32.024 40.272H29.3504C29.2658 40.272 29.1972 40.2037 29.1968 40.1192V37.1384C29.1968 37.0536 29.2655 36.9848 29.3504 36.9848H32.024C32.0647 36.9848 32.1038 37.001 32.1326 37.0298C32.1614 37.0586 32.1776 37.0976 32.1776 37.1384V40.1192ZM37.3762 67.6009C37.4052 67.572 37.4215 67.5328 37.4215 67.492V64.5128C37.4215 64.472 37.4052 64.4329 37.3762 64.4042C37.3472 64.3755 37.3079 64.3596 37.2671 64.36H34.5943C34.5536 64.3598 34.5146 64.3758 34.4857 64.4045C34.4569 64.4331 34.4407 64.4721 34.4407 64.5128V67.492C34.4405 67.5328 34.4566 67.572 34.4855 67.6008C34.5143 67.6297 34.5535 67.6458 34.5943 67.6456H37.2671C37.308 67.6458 37.3473 67.6297 37.3762 67.6009ZM37.4213 60.648C37.4216 60.6889 37.4053 60.7283 37.3763 60.7571C37.3473 60.786 37.3079 60.802 37.2669 60.8016H34.5941C34.5533 60.802 34.514 60.786 34.4851 60.7571C34.4562 60.7282 34.4401 60.6889 34.4405 60.648V57.6696C34.4401 57.6287 34.4562 57.5894 34.4851 57.5605C34.514 57.5316 34.5533 57.5156 34.5941 57.516H37.2669C37.3079 57.5156 37.3473 57.5316 37.3763 57.5605C37.4053 57.5893 37.4216 57.6287 37.4213 57.6696V60.648ZM37.3762 53.9145C37.4052 53.8857 37.4215 53.8465 37.4215 53.8056V50.8248C37.4213 50.784 37.4049 50.7451 37.3759 50.7164C37.347 50.6878 37.3078 50.6718 37.2671 50.672H34.5943C34.5536 50.6718 34.5146 50.6878 34.4857 50.7165C34.4569 50.7451 34.4407 50.7841 34.4407 50.8248V53.8056C34.4405 53.8464 34.4566 53.8856 34.4855 53.9144C34.5143 53.9433 34.5535 53.9594 34.5943 53.9592H37.2671C37.308 53.9594 37.3473 53.9433 37.3762 53.9145ZM37.4215 46.9616C37.4215 47.0025 37.4052 47.0416 37.3762 47.0705C37.3473 47.0993 37.308 47.1154 37.2671 47.1152H34.5943C34.5535 47.1154 34.5143 47.0993 34.4855 47.0704C34.4566 47.0416 34.4405 47.0024 34.4407 46.9616V43.9808C34.4409 43.9403 34.4572 43.9016 34.4861 43.8733C34.5149 43.8449 34.5538 43.8292 34.5943 43.8296H37.2671C37.3077 43.8289 37.3468 43.8446 37.3759 43.873C37.4049 43.9014 37.4213 43.9402 37.4215 43.9808V46.9616ZM37.3759 40.2276C37.4049 40.1989 37.4213 40.1599 37.4215 40.1192V37.1384C37.4215 37.0975 37.4052 37.0583 37.3762 37.0295C37.3473 37.0007 37.308 36.9846 37.2671 36.9848H34.5943C34.5535 36.9846 34.5143 37.0007 34.4855 37.0295C34.4566 37.0584 34.4405 37.0976 34.4407 37.1384V40.1192C34.4407 40.1598 34.4569 40.1988 34.4857 40.2275C34.5146 40.2562 34.5536 40.2722 34.5943 40.272H37.2671C37.3078 40.2722 37.347 40.2562 37.3759 40.2276Z" fill="white"/>
<path d="M67.1457 58.3136C67.1457 58.4461 67.0382 58.5536 66.9057 58.5536H54.8937C54.7611 58.5536 54.6537 58.4461 54.6537 58.3136V55.9136C54.6537 55.781 54.7611 55.6736 54.8937 55.6736H66.9057C67.0382 55.6736 67.1457 55.781 67.1457 55.9136V58.3136Z" fill="white"/>
<path fill-rule="evenodd" clip-rule="evenodd" d="M53.2319 39.092C53.1943 38.9607 53.0748 38.8699 52.9383 38.8688C52.8784 38.8703 52.8202 38.8895 52.7711 38.924L52.7495 38.9384L52.6511 39.0632L41.1727 53.6232L41.1199 53.6944C41.0583 53.7542 41.0224 53.8357 41.0199 53.9216V71.8136C41.0201 71.8893 41.0504 71.9619 41.1041 72.0153C41.1578 72.0687 41.2306 72.0986 41.3063 72.0984H52.9735C53.0492 72.0986 53.1218 72.0687 53.1754 72.0152C53.229 71.9618 53.2591 71.8892 53.2591 71.8136V39.212C53.2585 39.1705 53.2493 39.1296 53.2319 39.092ZM48.3999 46.9992L48.4799 46.8968C49.2647 45.8888 50.5887 44.2568 51.2335 43.468L51.3183 43.3672C51.3815 43.2904 51.4756 43.2458 51.5751 43.2456C51.732 43.2464 51.8663 43.3585 51.8951 43.5128V47.2C51.8943 47.3777 51.7527 47.5228 51.5751 47.528H51.5607H51.5455H48.6807H48.6663H48.6519C48.4744 47.5224 48.3331 47.3775 48.3319 47.2C48.3321 47.1274 48.356 47.0569 48.3999 46.9992ZM46.5005 67.5933C46.5541 67.5397 46.5842 67.467 46.5839 67.3912L46.5831 65.2128C46.5831 65.1371 46.553 65.0645 46.4994 65.0111C46.4459 64.9577 46.3732 64.9278 46.2975 64.928H42.8167C42.7411 64.9278 42.6684 64.9577 42.6148 65.0111C42.5613 65.0645 42.5311 65.1371 42.5311 65.2128V67.3912C42.5309 67.467 42.5609 67.5397 42.6146 67.5933C42.6682 67.647 42.7409 67.677 42.8167 67.6768H46.2983C46.3742 67.677 46.4469 67.647 46.5005 67.5933ZM46.5839 63.3656C46.5842 63.4414 46.5541 63.5141 46.5005 63.5677C46.4469 63.6213 46.3742 63.6514 46.2983 63.6512H42.8167C42.7409 63.6514 42.6682 63.6213 42.6146 63.5677C42.5609 63.5141 42.5309 63.4414 42.5311 63.3656V61.1872C42.5307 61.1113 42.5607 61.0384 42.6143 60.9847C42.668 60.9311 42.7409 60.9011 42.8167 60.9016H46.2975C46.3734 60.9011 46.4463 60.9311 46.5 60.9847C46.5536 61.0384 46.5836 61.1113 46.5831 61.1872L46.5839 63.3656ZM46.5002 59.5416C46.5538 59.4882 46.5839 59.4156 46.5839 59.34L46.5831 57.1608C46.5834 57.085 46.5533 57.0122 46.4997 56.9586C46.4461 56.905 46.3734 56.875 46.2975 56.8752H42.8167C42.7409 56.875 42.6682 56.905 42.6146 56.9586C42.5609 57.0122 42.5309 57.085 42.5311 57.1608V59.34C42.5311 59.4156 42.5613 59.4882 42.6148 59.5416C42.6684 59.5951 42.7411 59.625 42.8167 59.6248H46.2983C46.374 59.625 46.4467 59.5951 46.5002 59.5416ZM46.5935 50.5184V55.3184C46.5931 55.4759 46.4655 55.6035 46.3079 55.604H42.8279C42.7519 55.6044 42.6788 55.5745 42.6249 55.5209C42.571 55.4673 42.5407 55.3944 42.5407 55.3184V54.7144C42.542 54.678 42.5493 54.642 42.5623 54.608C42.5673 54.5963 42.5731 54.5851 42.5799 54.5744C42.5872 54.5611 42.5958 54.5485 42.6055 54.5368C42.6107 54.5279 42.6182 54.5174 42.6258 54.507C42.6298 54.5013 42.6339 54.4957 42.6375 54.4904C43.0823 53.8504 45.0903 51.38 45.9335 50.3464L46.0183 50.244C46.0815 50.1673 46.1758 50.123 46.2751 50.1232C46.4317 50.1242 46.5657 50.2358 46.5951 50.3896L46.5935 50.5184ZM51.8202 67.5931C51.8737 67.5395 51.9038 67.4669 51.9038 67.3912V65.2128C51.9034 65.0553 51.7756 64.928 51.6182 64.928H48.1382C48.0623 64.9275 47.9894 64.9573 47.9355 65.0108C47.8816 65.0642 47.8512 65.1369 47.851 65.2128V67.3912C47.851 67.4672 47.8813 67.5401 47.9352 67.5937C47.9891 67.6473 48.0622 67.6772 48.1382 67.6768H51.6182C51.6939 67.6768 51.7666 67.6467 51.8202 67.5931ZM51.9038 63.3656C51.9038 63.5233 51.7759 63.6512 51.6182 63.6512H48.1382C48.0622 63.6516 47.9891 63.6217 47.9352 63.5681C47.8813 63.5145 47.851 63.4416 47.851 63.3656V61.1872C47.8508 61.1111 47.881 61.0381 47.935 60.9844C47.9889 60.9308 48.0621 60.9009 48.1382 60.9016H51.6182C51.7759 60.9016 51.9038 61.0294 51.9038 61.1872V63.3656ZM51.6182 59.6248C51.7754 59.6243 51.9029 59.4972 51.9038 59.34V57.1608C51.9038 57.0031 51.7759 56.8752 51.6182 56.8752H48.1382C48.0622 56.8748 47.9891 56.9047 47.9352 56.9583C47.8813 57.0119 47.851 57.0848 47.851 57.1608V59.34C47.8512 59.4159 47.8816 59.4885 47.9355 59.542C47.9894 59.5954 48.0623 59.6252 48.1382 59.6248H51.6182ZM51.9038 55.3136C51.9034 55.471 51.7756 55.5984 51.6182 55.5984H48.1382C48.0623 55.5988 47.9894 55.569 47.9355 55.5156C47.8816 55.4621 47.8512 55.3895 47.851 55.3136V53.1352C47.851 53.0591 47.8813 52.9863 47.9352 52.9327C47.9891 52.879 48.0622 52.8491 48.1382 52.8496H51.6182C51.7759 52.8496 51.9038 52.9774 51.9038 53.1352V55.3136ZM51.8201 51.4891C51.8737 51.4356 51.9038 51.3629 51.9038 51.2872V49.1088C51.904 49.0329 51.874 48.96 51.8204 48.9063C51.7668 48.8526 51.6941 48.8224 51.6182 48.8224H48.1382C48.062 48.822 47.9888 48.852 47.9349 48.9057C47.881 48.9595 47.8508 49.0326 47.851 49.1088V51.2872C47.851 51.3632 47.8813 51.4361 47.9352 51.4897C47.9891 51.5433 48.0622 51.5732 48.1382 51.5728H51.6182C51.6939 51.5728 51.7666 51.5427 51.8201 51.4891Z" fill="white"/>
</svg>
