<svg width="80" height="80" viewBox="0 0 80 80" fill="none" xmlns="http://www.w3.org/2000/svg">
<rect width="80" height="80" fill="#3F7E44"/>
<path d="M10.0974 6.71045V22.8336H7.38621V10.492H7.36221L5.46061 12.4656H5.43581V9.63525L7.93261 6.71045H10.0974Z" fill="white"/>
<path d="M19.0401 10.2072V11.6096C19.0401 12.964 18.3033 13.868 17.1857 14.2256C18.5409 14.5344 19.1857 15.4856 19.1857 16.96V19.3384C19.1857 21.5728 17.9969 23.024 15.2617 23.024C12.5025 23.024 11.5265 21.4544 11.5265 19.0048V16.8888H14.0001V19.2C14.0001 20.1512 14.3321 20.768 15.2609 20.768C16.0921 20.768 16.4721 20.1744 16.4721 19.3176V16.6512C16.4721 15.7944 16.0921 15.3432 15.1417 15.3432H14.0001V13.2744H15.0233C15.9033 13.2744 16.4721 12.8216 16.4721 11.9664V10.2304C16.4721 9.35045 16.1641 8.78005 15.3081 8.78005C14.4521 8.78005 14.1433 9.35045 14.1433 10.3488V11.9896H11.6665V10.56C11.6665 8.18165 12.6417 6.51685 15.4481 6.51685C17.9457 6.51685 19.0393 7.92085 19.0393 10.204" fill="white"/>
<path fill-rule="evenodd" clip-rule="evenodd" d="M69.3673 50.08C67.2593 47.1272 57.7249 35.324 40.0001 35.324C22.2753 35.324 12.7457 47.1272 10.6345 50.08C10.58 50.1568 10.5299 50.229 10.485 50.2937L10.485 50.2938C10.4561 50.3354 10.4293 50.374 10.4049 50.4088C10.4543 50.4841 10.5132 50.568 10.58 50.6632L10.58 50.6632L10.58 50.6632L10.6345 50.7408C12.7457 53.6984 22.2769 65.5024 40.0001 65.5024C57.7233 65.5024 67.2593 53.6984 69.3673 50.744C69.4593 50.616 69.5353 50.504 69.5953 50.412C69.5355 50.3192 69.4595 50.2096 69.3673 50.0832V50.08ZM30.7556 41.9469L30.7556 41.9468L30.7561 41.9462L30.7573 41.9447C30.8139 41.8723 30.8554 41.8193 30.8706 41.7992C30.9982 41.635 31.2428 41.5926 31.429 41.5604L31.4682 41.5536C31.6578 41.52 31.9074 41.6232 31.9378 41.7648C31.9682 41.9064 31.865 42.4552 31.7722 42.5496C31.5122 42.8192 30.8354 43.2 30.4626 43.14C30.1738 43.096 30.0626 42.8728 30.1162 42.7872C30.2378 42.609 30.5735 42.1797 30.7556 41.9469ZM29.5212 44.0015C29.5099 44.0142 29.4965 44.0295 29.4824 44.0464L29.4816 44.0488C29.1238 44.6352 28.816 45.2507 28.5616 45.8888C28.6611 45.9371 28.7744 45.9487 28.8816 45.9216C29.1657 45.8581 29.5964 45.4172 29.9742 45.0304C30.1155 44.8857 30.2495 44.7485 30.3656 44.6416C30.4148 44.5945 30.5354 44.5229 30.6737 44.4409C30.9581 44.2721 31.3176 44.0588 31.2864 43.9216C31.24 43.7176 30.8264 43.5672 30.52 43.6152L30.4641 43.6238C30.1617 43.6703 29.7563 43.7327 29.5464 43.972C29.5412 43.9787 29.5323 43.9889 29.5212 44.0015ZM36.1144 57.6552C35.8778 58.5856 35.6024 58.9293 35.3662 59.2239L35.356 59.2368C35.1176 59.5344 34.236 59.9224 33.676 59.8808C33.116 59.8392 33.036 58.3408 33.036 57.5696C33.036 57.4938 33.0053 57.5038 32.9569 57.5196C32.8357 57.5593 32.603 57.6353 32.4624 56.4888C32.3929 55.9211 32.1603 56.0141 31.9583 56.0948C31.7951 56.16 31.6519 56.2173 31.6312 55.9112C31.6012 55.4689 31.4531 55.3697 31.2593 55.2398C31.153 55.1685 31.033 55.0881 30.9112 54.9368C30.6536 54.6169 30.3476 54.7994 30.0079 55.0019C29.8939 55.0699 29.7762 55.1401 29.6552 55.1944C29.5261 55.2523 29.446 55.3024 29.3848 55.3408C29.2177 55.4455 29.1918 55.4617 28.6952 55.3048L28.6842 55.301L28.6737 55.2969L28.6685 55.2947L28.6685 55.2947L28.6581 55.2904L28.652 55.288C28.0066 53.7672 27.6741 52.132 27.6744 50.48C27.6744 50.0632 27.6968 49.6528 27.736 49.248C27.7576 49.2073 27.7831 49.1687 27.812 49.1328C28.4648 48.36 28.452 48.1792 28.452 48.1792L29.172 47.9296C29.172 47.9296 30.3256 48.1072 31.1944 48.4344C31.3361 48.4874 31.4939 48.5538 31.6608 48.624L31.6609 48.624L31.6609 48.6241L31.661 48.6241C32.3373 48.9086 33.1648 49.2566 33.6928 49.0424C34.1672 48.8472 34.5376 48.588 34.4928 48.1936C34.44 47.6984 34.0496 47.5808 33.5776 47.9144C33.495 47.973 33.3677 47.8069 33.2255 47.6215C33.0689 47.4171 32.8942 47.1893 32.7416 47.2128C32.5901 47.2361 32.6936 47.5114 32.7932 47.776C32.885 48.0201 32.9734 48.2552 32.8552 48.2752C32.624 48.3142 32.1708 47.3825 32.0458 47.1254L32.0458 47.1254L32.0256 47.084C31.9408 46.912 31.5576 46.4872 31.2128 46.812C30.7243 47.2763 30.0312 47.41 29.5562 47.5016C29.3233 47.5465 29.1429 47.5813 29.0648 47.64C28.3448 48.1808 28.1512 47.4616 28.1672 47.024C28.196 46.924 28.2256 46.8232 28.2576 46.724C28.4936 46.464 29.3408 46.3776 29.632 46.5712C29.9366 46.7745 30.1585 46.5415 30.2868 46.4068L30.3056 46.3872C30.4304 46.2576 30.3856 46.0552 30.3056 45.8856C30.2256 45.716 30.4656 45.588 30.6304 45.544C30.7446 45.5135 31.0442 45.319 31.2907 45.1591L31.2907 45.159C31.4 45.0881 31.4988 45.024 31.5664 44.984C31.7864 44.8536 32.9264 44.7176 33.4408 44.9736C33.8586 45.1943 34.3741 45.0903 34.6736 44.7248C34.9253 44.4248 35.2284 44.1721 35.5688 43.9784C35.748 43.8984 35.128 43.3168 34.6192 43.9472C34.1104 44.5776 33.8488 44.632 33.6088 44.632C33.3688 44.632 31.9432 44.2768 31.7688 43.8264C31.5944 43.376 32.2152 43.0392 32.7408 42.7864C33.0882 42.6193 33.835 42.5651 34.4078 42.5235C34.7016 42.5022 34.9496 42.4842 35.0744 42.456C35.2339 42.421 35.403 42.3764 35.5749 42.331C36.2089 42.1636 36.8819 41.9859 37.2608 42.244C37.4773 42.3914 37.0924 42.5861 36.6776 42.7959C36.1698 43.0528 35.6171 43.3325 36.068 43.576C36.2846 43.695 37.0689 43.2176 37.6425 42.8685C37.8398 42.7483 38.0122 42.6434 38.128 42.5832C38.6583 42.3098 38.4018 42.1279 38.046 41.8756C37.6897 41.6229 37.2339 41.2996 37.3696 40.7432C37.6323 39.6647 35.5578 39.8688 34.0568 40.0164L34.0568 40.0164C33.8074 40.0409 33.5739 40.0639 33.3696 40.0792C36.7332 37.9274 40.93 37.5356 44.6339 39.0276C48.3377 40.5195 51.0911 43.711 52.024 47.5936C52.0312 47.7861 52.011 47.9787 51.964 48.1656C51.852 48.6104 51.004 48.9928 50.5184 48.2768C50.3936 48.096 49.864 47.596 49.8784 48.4512C49.8842 48.799 50.0229 49.0199 50.1324 49.1941C50.292 49.4483 50.3892 49.6032 49.9208 49.908C49.361 50.2721 49.1261 50.3157 48.9068 50.3565C48.8167 50.3732 48.7293 50.3894 48.6232 50.4272C48.2584 50.5568 47.9032 51.4376 47.9936 51.9088C48.0227 52.0604 48.1586 52.2966 48.3019 52.5455C48.604 53.0702 48.9385 53.6513 48.372 53.6144C48.176 53.5992 46.7008 52.592 46.4576 51.944C46.304 51.5371 46.1424 51.1357 45.9948 50.7688L45.9946 50.7684C45.8947 50.52 45.8012 50.2876 45.7208 50.08C45.5216 49.5656 45.0008 49.44 44.5576 49.7384C44.331 49.8909 44.3681 50.0445 44.4162 50.2441C44.4622 50.435 44.5184 50.6679 44.364 50.9824C44.3424 51.0263 44.3213 51.0698 44.3004 51.1127C44.0162 51.6985 43.7916 52.1614 43.36 51.6672C42.8118 51.0393 42.1501 50.8377 41.566 50.6597C40.8655 50.4463 40.2766 50.2669 40.1288 49.4272C40.0313 48.8787 39.6868 48.7262 39.2916 48.5511C39.0866 48.4603 38.868 48.3635 38.6632 48.2024C38.0632 47.7304 37.7248 47.4824 37.6232 47.8176C37.5747 47.9803 38.1404 48.5203 38.6875 49.0428C39.1438 49.4784 39.5872 49.9017 39.6512 50.084C39.8616 50.6808 39.06 51.204 38.4728 51.348C37.9973 51.4646 37.7401 51.1768 37.3536 50.7446C37.2628 50.643 37.1648 50.5334 37.0552 50.4192C36.9275 50.2862 36.8159 50.1619 36.719 50.0539L36.7189 50.0538C36.3785 49.6745 36.2199 49.4978 36.1888 49.864C36.1312 50.5432 36.7352 51.544 37.3208 51.9136C37.4266 51.9805 37.5352 52.0396 37.6391 52.0962L37.6392 52.0963L37.6393 52.0964L37.6393 52.0964C38.0257 52.3069 38.3463 52.4816 38.2184 52.8864C38.1915 52.9714 38.1735 53.0344 38.1597 53.0829C38.137 53.1625 38.1254 53.2028 38.1041 53.2371C38.0821 53.2723 38.0496 53.3011 37.9838 53.3594C37.9173 53.4183 37.8167 53.5075 37.6584 53.664C37.0984 54.2176 36.9912 54.3992 37.032 55.168C37.0577 55.653 36.9873 55.8505 36.9014 56.0912C36.8512 56.232 36.7957 56.3875 36.7512 56.624C36.696 56.9167 36.6077 56.96 36.5053 57.0103C36.3835 57.0701 36.2415 57.1398 36.1112 57.6504L36.1144 57.6552ZM50.1543 53.492C50.3999 53.2712 49.7743 52.696 49.3599 52.7296C49.1727 52.7464 48.6639 53.1416 48.9767 53.3864C49.2895 53.6312 49.9087 53.7128 50.1543 53.492ZM48.8345 52.3504C48.7017 52.3008 48.5841 52.1744 48.4833 51.8704C48.3825 51.5664 48.6377 51.3904 48.8833 51.516C49.1288 51.6416 49.4656 52.0224 49.4656 52.224C49.4656 52.4256 48.9673 52.4024 48.8313 52.3488L48.8345 52.3504ZM42.2024 52.2216C42.5144 52.4648 43.1384 52.5448 43.3824 52.3272H43.3848C43.6248 52.108 43 51.5272 42.5848 51.5648C42.3992 51.5816 41.8904 51.9784 42.2024 52.2216ZM38.345 54.7792C38.2912 54.8673 38.2076 55.1365 38.1087 55.4552C37.8959 56.141 37.6118 57.0561 37.3994 56.8912C37.0882 56.6496 37.5258 54.4832 37.6154 54.3184C38.1034 53.424 39.1578 53.468 38.345 54.7792ZM36.5553 62.3288C37.6823 62.6586 38.8506 62.8259 40.0249 62.8256C42.7299 62.8292 45.3606 61.941 47.5097 60.2984C47.4379 60.2713 47.3846 60.2421 47.3314 60.2129C47.1738 60.1263 47.0175 60.0405 46.3833 60.016C45.448 59.981 44.7361 60.5965 44.2629 61.0057C44.1079 61.1397 43.9785 61.2516 43.8753 61.3112C43.7089 61.4072 43.1923 61.2287 42.5046 60.991C41.4627 60.631 40.0281 60.1352 38.8233 60.2528C37.9257 60.3392 36.7873 60.7296 36.4057 61.7256C36.3124 61.9372 36.3739 62.1852 36.5553 62.3288ZM48.733 59.232C48.5995 59.1973 48.4698 59.1493 48.3458 59.0888C47.9411 58.8828 47.8083 58.9978 47.6953 59.0958C47.62 59.161 47.5535 59.2187 47.421 59.1688C47.2918 59.1201 47.3203 58.9736 47.344 58.8518C47.381 58.6614 47.4063 58.5312 46.7994 58.9288C46.0834 59.3979 46.0229 59.1398 45.8844 58.5487C45.8304 58.3182 45.7646 58.0371 45.6434 57.7288C45.2114 56.6296 46.141 55.3744 46.9234 55.0888C47.718 54.8014 48.2892 54.6834 48.7359 54.5912C48.8922 54.5589 49.0333 54.5297 49.1634 54.4976C49.8802 54.3186 50.3238 54.0206 50.6212 53.8208C50.9393 53.6072 51.0901 53.5058 51.229 53.7824C51.2802 53.8824 51.329 53.9784 51.3738 54.068C51.494 54.322 51.5579 54.599 51.561 54.88C50.9367 56.5158 49.972 58.0003 48.7306 59.2352L48.733 59.232ZM51.4914 49.7344C50.3954 50.9952 51.7818 52.912 52.113 53.0024V53.0064C52.2846 52.1774 52.3711 51.333 52.3714 50.4864C52.3714 50.2416 52.3618 50.0064 52.3498 49.7664C52.1922 49.2304 51.8738 48.8584 51.2738 48.9048C51.2104 48.9098 51.2715 49.0211 51.3497 49.1638C51.4571 49.3596 51.597 49.6145 51.4914 49.7344Z" fill="white"/>
<path d="M25.528 11.648V8.41842C25.528 7.37842 26.02 6.61682 27.2016 6.61682C28.4424 6.61682 28.7872 7.30562 28.7872 8.29042V9.07842H27.76V8.19842C27.76 7.78482 27.6224 7.54882 27.2184 7.54882C26.8144 7.54882 26.6504 7.84002 26.6504 8.24002V11.824C26.6504 12.224 26.8176 12.5128 27.2216 12.5128C27.6256 12.5128 27.7632 12.2568 27.7632 11.8632V10.6336H28.7872V11.7856C28.7872 12.7408 28.3936 13.4496 27.2016 13.4496C26.0096 13.4496 25.528 12.6816 25.528 11.648Z" fill="white"/>
<path d="M29.4952 6.69519H30.6152V12.4552H31.9544V13.3712H29.4952V6.69519Z" fill="white"/>
<path d="M32.5657 6.69519H33.6857V13.3712H32.5657V6.69519Z" fill="white"/>
<path d="M37.6167 9.03999H37.5871L36.8295 13.372H36.3071L35.4703 9.03999H35.4503V13.372H34.5255V6.69519H35.8343L36.5631 10.4552H36.5735L37.2231 6.69519H38.6399V13.3712H37.6167V9.03999Z" fill="white"/>
<path fill-rule="evenodd" clip-rule="evenodd" d="M40.4606 6.69519L39.1998 13.3712H40.2638L40.4614 12.1496H41.6519L41.8591 13.3712H43.0111L41.7407 6.69519H40.4606ZM41.5045 11.2544H40.6077L41.0509 8.57599H41.0613L41.5045 11.2544Z" fill="white"/>
<path d="M42.8617 6.69519H45.8457V7.61119H44.9201V13.3712H43.7873V7.61119H42.8617V6.69519Z" fill="white"/>
<path d="M46.4649 6.69519H49.1433V7.61119H47.5873V9.51999H48.7001V10.4256H47.5873V12.4536H49.1433V13.3696H46.4649V6.69519Z" fill="white"/>
<path fill-rule="evenodd" clip-rule="evenodd" d="M26.5926 16.16L25.3318 22.8336L26.395 22.8352L26.5926 21.6144H27.7838L27.991 22.8352H29.143L27.8726 16.16H26.5926ZM27.6365 20.72H26.7397L27.1829 18.0424H27.1933L27.6365 20.72Z" fill="white"/>
<path d="M29.4657 21.1112V17.8816C29.4657 16.8376 29.9585 16.08 31.1401 16.08C32.3801 16.08 32.7249 16.7688 32.7249 17.7536V18.5408H31.7009V17.6648C31.7009 17.2512 31.5633 17.0152 31.1593 17.0152C30.7553 17.0152 30.5881 17.3008 30.5881 17.704V21.288C30.5881 21.688 30.7561 21.9776 31.1593 21.9776C31.5625 21.9776 31.7009 21.7216 31.7009 21.3272V20.0968H32.7249V21.2488C32.7249 22.204 32.3313 22.9128 31.1401 22.9128C29.9489 22.9128 29.4657 22.1448 29.4657 21.1112Z" fill="white"/>
<path d="M33.1199 16.16H36.1039V17.076H35.1751V22.836H34.0423V17.076H33.1199V16.16Z" fill="white"/>
<path d="M36.7202 16.16H37.8402V22.8352H36.7202V16.16Z" fill="white"/>
<path fill-rule="evenodd" clip-rule="evenodd" d="M38.5897 17.8816V21.1112C38.5897 22.1448 39.0921 22.9128 40.2833 22.9128C41.4745 22.9128 41.9873 22.1448 41.9873 21.1112V17.8816C41.9873 16.8376 41.4641 16.08 40.2833 16.08C39.1025 16.08 38.5897 16.8376 38.5897 17.8816ZM40.8649 17.704V21.288C40.8649 21.692 40.6769 21.9776 40.2833 21.9776C39.8897 21.9776 39.7121 21.688 39.7121 21.288V17.704C39.7121 17.3008 39.8793 17.0152 40.2833 17.0152C40.6873 17.0152 40.8649 17.304 40.8649 17.704Z" fill="white"/>
<path d="M43.669 18.64V22.8344H42.7242V16.16H43.8274L45.0402 19.988V16.16H45.9762V22.8352H44.989L43.669 18.64Z" fill="white"/>
</svg>
