<svg width="80" height="80" viewBox="0 0 80 80" fill="none" xmlns="http://www.w3.org/2000/svg">
<rect width="80" height="80" fill="#C5192D"/>
<path fill-rule="evenodd" clip-rule="evenodd" d="M24.0968 13.68V13.236C23.22 13.0816 22.844 12.4344 22.844 11.5472V8.38241C22.844 7.36001 23.3376 6.61761 24.5032 6.61761C25.6688 6.61761 26.1704 7.36081 26.1704 8.38241V11.5472C26.1704 12.2616 25.92 12.8208 25.36 13.0904L26.1704 13.2456V14.0664L24.0968 13.68ZM24.5041 7.53522C24.1169 7.53522 23.9441 7.81442 23.9441 8.20962V11.7792C23.9441 12.1648 24.1089 12.4552 24.5041 12.4552C24.8993 12.4552 25.0721 12.1648 25.0721 11.7792V8.20962C25.0721 7.81442 24.8913 7.53522 24.5041 7.53522Z" fill="white"/>
<path d="M28.5343 13.3136C29.6543 13.3136 30.0879 12.6568 30.0879 11.644V6.6944H29.0743V11.7504C29.0743 12.136 28.9199 12.3968 28.5343 12.3968C28.1487 12.3968 27.9943 12.136 27.9943 11.7504V6.6944H26.8943V11.644C26.8943 12.6568 27.3743 13.3136 28.5343 13.3136Z" fill="white"/>
<path fill-rule="evenodd" clip-rule="evenodd" d="M32.88 12.0392H31.7168L31.52 13.236H30.48L31.7168 6.6944H32.9704L34.212 13.2392H33.0832L32.88 12.0392ZM32.3056 8.5376H32.2944L31.8592 11.1616H32.7392L32.3056 8.5376Z" fill="white"/>
<path d="M37.1752 12.3384H35.8648V6.6944H34.7648V13.236H37.1752V12.3384Z" fill="white"/>
<rect x="37.6855" y="6.6944" width="1.09919" height="6.5408" fill="white"/>
<path d="M40.2088 13.236H41.3168V7.592H42.224V6.6944H39.3032V7.592H40.2088V13.236Z" fill="white"/>
<path d="M43.7848 13.236H44.8848V10.7464L46.0992 6.6944H45.048L44.3824 9.1744H44.3728L43.708 6.6944H42.56L43.7848 10.7464V13.236Z" fill="white"/>
<path d="M25.4648 21.9304H23.9416V19.9416H25.0304V19.0552H23.9416V17.1832H25.4648V16.2856H22.8424V22.8264H25.4648V21.9304Z" fill="white"/>
<path fill-rule="evenodd" clip-rule="evenodd" d="M29.428 18.0416V21.0704L29.4304 21.0632C29.4304 22.0704 29.0168 22.8232 27.84 22.8232H26.1392V16.2816H27.8376C29.0144 16.2816 29.428 17.0288 29.428 18.0416ZM27.2416 17.1824V21.9224L27.7048 21.9296C28.1576 21.9296 28.3304 21.6592 28.3304 21.264V17.8384C28.3304 17.4528 28.1576 17.1824 27.7048 17.1824H27.2416Z" fill="white"/>
<path d="M30.152 16.2856V21.2352C30.152 22.2488 30.632 22.904 31.7912 22.904C32.9112 22.904 33.344 22.2488 33.344 21.2352V16.2856H32.332V21.3408C32.332 21.7272 32.1768 21.9872 31.7912 21.9872C31.4056 21.9872 31.2512 21.7272 31.2512 21.3408V16.2856H30.152Z" fill="white"/>
<path d="M34.0672 21.1384C34.0672 22.1512 34.5472 22.904 35.7072 22.904C36.8672 22.904 37.2592 22.2096 37.2592 21.2728V20.1448H36.2568V21.3504C36.2568 21.7368 36.1216 21.9904 35.7264 21.9904C35.3312 21.9904 35.1664 21.7112 35.1664 21.3144V17.8008C35.1664 17.4048 35.3264 17.1248 35.7264 17.1248C36.1264 17.1248 36.2568 17.356 36.2568 17.7648V18.6232H37.2592V17.848C37.2592 16.888 36.9216 16.208 35.7072 16.208C34.5496 16.208 34.0672 16.9512 34.0672 17.9736V21.1384Z" fill="white"/>
<path fill-rule="evenodd" clip-rule="evenodd" d="M40 21.6296H38.8304L38.6352 22.8296H37.5952L38.8304 16.2888H40.084L41.328 22.8296H40.2024L40 21.6296ZM39.4177 18.128H39.4081L38.9721 20.752H39.8521L39.4177 18.128Z" fill="white"/>
<path d="M41.1912 17.1832H42.0968V22.8264H43.2064V17.1832H44.112V16.2856H41.1912V17.1832Z" fill="white"/>
<rect x="44.7199" y="16.2856" width="1.1" height="6.54159" fill="white"/>
<path fill-rule="evenodd" clip-rule="evenodd" d="M49.8785 21.1376C49.8785 22.152 49.3777 22.904 48.2121 22.904C47.0545 22.904 46.5536 22.152 46.5536 21.1376V17.9736C46.5536 16.9512 47.0465 16.2088 48.2121 16.2088C49.3777 16.2088 49.8785 16.9512 49.8785 17.9736V21.1376ZM48.212 17.1256C47.8256 17.1256 47.652 17.4048 47.652 17.8V21.3112C47.652 21.708 47.8168 21.9872 48.212 21.9872C48.6072 21.9872 48.7808 21.7112 48.7808 21.3112V17.8C48.7808 17.4048 48.5984 17.1256 48.212 17.1256Z" fill="white"/>
<path d="M51.5297 18.716L52.8225 22.828H53.7873V16.2848H52.8705V20.0384L51.6841 16.2848H50.6049V22.828H51.5297V18.716Z" fill="white"/>
<path fill-rule="evenodd" clip-rule="evenodd" d="M15.1008 22.8344H12.532V20.2176H7.74963V18.552L12.436 6.70398H15.1008V18.1008H16.196V20.2176H15.1008V22.8344ZM12.5584 11.4608L10.132 18.1008H12.5824V11.4608H12.5584Z" fill="white"/>
<path d="M35.0641 42.8952L20.7169 34.6104V61.4104L35.0641 65.7392V42.8952Z" fill="white"/>
<path d="M36.6425 42.9496V65.7488L51.0824 61.4072V34.6112L36.6425 42.9496Z" fill="white"/>
<path d="M62.3456 33.932C62.359 33.3169 62.0384 32.7427 61.5078 32.4312C60.9772 32.1197 60.3196 32.1197 59.789 32.4312C59.2584 32.7427 58.9379 33.3169 58.9512 33.932V35.76H62.3456V33.932Z" fill="white"/>
<path d="M59.3728 60.9352H58.9512L60.6496 66.868L62.3448 60.9352H61.9232H62.3448V37.0912H61.9232H61.5016H61.0552H60.2104H59.7936H59.3728H58.9504V60.9352H59.3728Z" fill="white"/>
<path d="M54.1648 35.7616L52.6264 34.5464V62.1376L36.6848 67.2888H35.9472H35.8008H35.064L19.1936 62.8545V34.5464L17.6544 35.7616V63.9336L34.9912 68.7337H35.8008H35.9472H36.7568L52.752 63.6552L54.1648 63.2392V35.7616Z" fill="white"/>
</svg>
