<svg width="80" height="80" viewBox="0 0 80 80" fill="none" xmlns="http://www.w3.org/2000/svg">
<rect width="80" height="80" fill="#A21942"/>
<path fill-rule="evenodd" clip-rule="evenodd" d="M15.544 18.8872V17.1272C15.544 15.5816 14.9976 14.4632 13.736 13.892C14.8056 13.3696 15.3064 12.4176 15.3064 11.0856V10.4184C15.3064 7.89677 13.9984 6.54077 11.5 6.54077C9.02639 6.54077 7.73999 7.90077 7.73999 10.4184V11.0856C7.73999 12.3944 8.21999 13.3696 9.25999 13.892C7.99919 14.4632 7.47519 15.5816 7.47519 17.1272V18.8872C7.47519 21.3368 8.64159 23.0472 11.4968 23.0472C14.3768 23.0472 15.5408 21.3336 15.5408 18.8872H15.544ZM10.2824 10.2472C10.2824 9.27037 10.6168 8.69997 11.4968 8.69997C12.4 8.69997 12.7336 9.27037 12.7336 10.2472V11.3408C12.7336 12.316 12.4 12.8888 11.4968 12.8888C10.6168 12.8888 10.2824 12.316 10.2824 11.3408V10.2472ZM11.5 20.8376C12.4752 20.8376 12.832 20.148 12.832 19.172V16.5552C12.832 15.58 12.4752 14.8896 11.5 14.8896C10.548 14.8896 10.1912 15.58 10.1912 16.5552V19.172C10.1912 20.148 10.548 20.8376 11.5 20.8376Z" fill="white"/>
<path d="M55.5329 39.36L47.4017 47.0936C47.0953 47.3984 46.9377 47.6232 46.9377 48.2552V69.9352C46.9385 70.1908 47.146 70.3976 47.4017 70.3976H55.8017C56.0572 70.3976 56.2644 70.1907 56.2649 69.9352V39.5536C56.2649 39.2976 56.0649 38.8336 55.5337 39.3584" fill="white"/>
<path d="M32.1072 49.4399L23.9752 57.1703C23.6696 57.4759 23.5112 57.6999 23.5112 58.3311V69.9312C23.5125 70.1865 23.7198 70.3928 23.9752 70.3928H32.3752C32.6304 70.3928 32.8375 70.1863 32.8384 69.9312V49.6303C32.8384 49.3735 32.636 48.9055 32.1072 49.4359" fill="white"/>
<path d="M59.2288 29.9776C59.2325 29.9117 59.2074 29.8475 59.16 29.8016C59.1191 29.7628 59.0659 29.7393 59.0096 29.7352H58.9648H58.8984L52.672 31.1464L52.5592 31.1584C52.5136 31.1678 52.4715 31.1896 52.4376 31.2216C52.3467 31.3148 52.3467 31.4635 52.4376 31.5568L52.508 31.6272L53.9304 33.0488L39.8216 47.1576L33.3056 40.64C33.2707 40.6042 33.2228 40.584 33.1728 40.584C33.1228 40.584 33.075 40.6042 33.04 40.64L31.272 42.4088L20.8248 52.8552C20.7529 52.9291 20.7529 53.0469 20.8248 53.1208L22.5952 54.8904C22.6301 54.9254 22.6774 54.9451 22.7268 54.9451C22.7762 54.9451 22.8236 54.9254 22.8584 54.8904L33.1784 44.5768L37.9064 49.3064C37.9109 49.3142 37.916 49.3217 37.9216 49.3288L39.6904 51.0952C39.7252 51.1309 39.773 51.151 39.8228 51.151C39.8727 51.151 39.9204 51.1309 39.9552 51.0952L55.964 35.0832L57.4568 36.5752C57.5006 36.6197 57.5604 36.6448 57.6228 36.6448C57.6853 36.6448 57.7451 36.6197 57.7888 36.5752C57.8306 36.5347 57.8549 36.4797 57.8568 36.4216V36.4024L59.224 30.0464L59.2288 29.9776Z" fill="white"/>
<path d="M43.8664 50.7936L39.932 54.76C39.8578 54.8229 39.7477 54.8188 39.6784 54.7504L36.1144 51.12C35.4616 50.4704 35.3208 50.9976 35.3208 51.2528V69.9336C35.3206 70.056 35.369 70.1735 35.4555 70.2602C35.5419 70.3469 35.6592 70.3958 35.7816 70.396H44.1816C44.4365 70.3951 44.6428 70.1885 44.6432 69.9336V50.94C44.6432 50.6848 44.4424 50.2152 43.8648 50.7936" fill="white"/>
<path fill-rule="evenodd" clip-rule="evenodd" d="M24.784 11.4768V8.4488C24.784 7.44 24.3688 6.6936 23.1928 6.6936H21.4952V13.232H23.1928C24.3688 13.232 24.784 12.48 24.784 11.4768ZM23.6848 11.6696C23.6848 12.0656 23.5112 12.3352 23.0576 12.3352H22.5944V7.5904H23.0576C23.5112 7.5904 23.6848 7.86 23.6848 8.2464V11.6696Z" fill="white"/>
<path d="M25.4783 6.6936H28.1015V7.5904H26.5815V9.4616H27.6711V10.3488H26.5775V12.3352H28.0975V13.232H25.4783V6.6936Z" fill="white"/>
<path d="M28.6607 11.5448V8.38083C28.6607 7.35843 29.1407 6.61603 30.2999 6.61603C31.5151 6.61603 31.8527 7.29123 31.8527 8.25603V9.02723H30.8503V8.16883C30.8503 7.76403 30.7151 7.52883 30.3199 7.52883C29.9247 7.52883 29.7599 7.80883 29.7599 8.20403V11.7152C29.7599 12.1104 29.9239 12.3904 30.3199 12.3904C30.7159 12.3904 30.8503 12.1392 30.8503 11.7504V10.5512H31.8527V11.68C31.8527 12.616 31.4671 13.3104 30.2999 13.3104C29.1327 13.3104 28.6607 12.56 28.6607 11.5448Z" fill="white"/>
<path d="M32.5184 6.6936H35.1416V7.5904H33.6216V9.4616H34.712V10.3488H33.6176V12.3352H35.1376V13.232H32.5184V6.6936Z" fill="white"/>
<path d="M36.7199 9.124V13.232H35.7975V6.6936H36.8799L38.0663 10.4448V6.6936H38.9823V13.232H38.0159L36.7199 9.124Z" fill="white"/>
<path d="M39.5488 6.6936H42.4712V7.5904H41.5648V13.232H40.4552V7.5904H39.5488V6.6936Z" fill="white"/>
<path d="M46.5024 9.1912L45.8856 13.232H44.8536L43.9736 6.6936H45.04L45.5512 10.8408H45.5608L46.1104 6.6936H47.0072L47.6144 10.8408H47.624L48.1256 6.6936H49.052L48.2 13.232H47.16L46.5136 9.1912H46.5024Z" fill="white"/>
<path fill-rule="evenodd" clip-rule="evenodd" d="M49.492 8.38083V11.5448C49.492 12.56 49.9848 13.3096 51.1512 13.3096C52.3176 13.3096 52.8192 12.5576 52.8192 11.5448V8.38083C52.8192 7.35843 52.3088 6.61603 51.1512 6.61603C49.9936 6.61603 49.492 7.35843 49.492 8.38083ZM51.72 8.20723V11.7184C51.72 12.1136 51.5376 12.3936 51.1512 12.3936C50.7648 12.3936 50.5912 12.1136 50.5912 11.7184V8.20723C50.5912 7.81203 50.756 7.53203 51.1512 7.53203C51.5464 7.53203 51.72 7.81203 51.72 8.20723Z" fill="white"/>
<path fill-rule="evenodd" clip-rule="evenodd" d="M54.6128 13.232V10.2328L55.6448 13.232H56.8L55.748 10.2616C56.3776 10.1184 56.628 9.7024 56.628 8.9984V8.1592C56.628 7.2432 56.2232 6.6936 55.1136 6.6936H53.5136V13.232H54.6128ZM54.6128 9.628V7.5928L54.9792 7.5968C55.3601 7.5968 55.5201 7.7704 55.5201 8.1272V9.0872C55.5201 9.4344 55.3561 9.628 54.9792 9.628H54.6128Z" fill="white"/>
<path d="M58.3935 10.0496V13.232H57.2943V6.6936H58.3935V9.5672L59.5935 6.6936H60.6735L59.4007 9.6352L60.7023 13.2352H59.5415L58.3935 10.0496Z" fill="white"/>
<path fill-rule="evenodd" clip-rule="evenodd" d="M63.4663 6.6936L62.2319 13.232H63.2735L63.4663 12.0368H64.6335L64.8359 13.232H65.9647L64.7199 6.6936H63.4663ZM64.4911 11.1584H63.6111L64.0471 8.5352H64.0575L64.4911 11.1584Z" fill="white"/>
<path d="M67.2568 9.124V13.232H66.3304V6.6936H67.4112L68.5976 10.4448V6.6936H69.5136V13.232H68.5488L67.2568 9.124Z" fill="white"/>
<path fill-rule="evenodd" clip-rule="evenodd" d="M73.5257 11.4768V8.4488C73.5257 7.44 73.1105 6.6936 71.9369 6.6936H70.2401V13.232H71.9337C73.1105 13.232 73.5257 12.48 73.5257 11.4768ZM72.4257 11.6696C72.4257 12.0656 72.2521 12.3352 71.7993 12.3352H71.3361V7.5904H71.7993C72.2521 7.5904 72.4257 7.86 72.4257 8.2464V11.6696Z" fill="white"/>
<path d="M21.4952 16.2968H24.1184V17.1936H22.5944V19.0648H23.6848V19.952H22.5944V21.9391H24.1184V22.8359H21.4952V16.2968Z" fill="white"/>
<path d="M24.6008 21.148V17.9848C24.6008 16.9624 25.0808 16.22 26.24 16.22C27.4552 16.22 27.7928 16.8944 27.7928 17.8592V18.6312H26.7896V17.7728C26.7896 17.3672 26.6552 17.1328 26.2592 17.1328C25.8632 17.1328 25.6992 17.412 25.6992 17.808V21.3184C25.6992 21.7136 25.8632 21.9936 26.2592 21.9936C26.6552 21.9936 26.7896 21.7432 26.7896 21.3536V20.1544H27.7928V21.28C27.7928 22.2152 27.4072 22.9096 26.24 22.9096C25.0728 22.9096 24.6008 22.16 24.6008 21.148Z" fill="white"/>
<path fill-rule="evenodd" clip-rule="evenodd" d="M28.3903 17.9848V21.148C28.3903 22.16 28.8823 22.9128 30.0495 22.9128C31.2167 22.9128 31.7183 22.1608 31.7183 21.148V17.9848C31.7183 16.9624 31.2071 16.22 30.0495 16.22C28.8919 16.22 28.3903 16.9624 28.3903 17.9848ZM30.6184 17.8112V21.3216C30.6184 21.7168 30.436 21.9968 30.0496 21.9968C29.6632 21.9968 29.4896 21.7168 29.4896 21.3216V17.8112C29.4896 17.4152 29.6544 17.136 30.0496 17.136C30.4448 17.136 30.6184 17.4152 30.6184 17.8112Z" fill="white"/>
<path d="M33.2704 18.7272V22.8359H32.3448V16.2968H33.4248L34.6112 20.0488V16.2968H35.5272V22.8359H34.56L33.2704 18.7272Z" fill="white"/>
<path fill-rule="evenodd" clip-rule="evenodd" d="M36.1544 17.9848V21.148C36.1544 22.16 36.6456 22.9128 37.8128 22.9128C38.98 22.9128 39.4816 22.1608 39.4816 21.148V17.9848C39.4816 16.9624 38.9696 16.22 37.8128 16.22C36.656 16.22 36.1544 16.9624 36.1544 17.9848ZM38.3824 17.8112V21.3216C38.3824 21.7168 38.1992 21.9968 37.8128 21.9968C37.4264 21.9968 37.2528 21.7168 37.2528 21.3216V17.8112C37.2528 17.4152 37.4168 17.136 37.8128 17.136C38.2088 17.136 38.3824 17.4152 38.3824 17.8112Z" fill="white"/>
<path d="M43.1368 18.592H43.108L42.3648 22.8319H41.8536L41.0344 18.592H41.0144V22.8319H40.108V16.2968H41.388L42.1016 19.9768H42.1112L42.7512 16.2968H44.1408V22.8359H43.1368V18.592Z" fill="white"/>
<path d="M44.7664 16.2968H45.8657V22.8359H44.7664V16.2968Z" fill="white"/>
<path d="M46.4799 21.148V17.9848C46.4799 16.9624 46.9599 16.22 48.1191 16.22C49.3343 16.22 49.6719 16.8944 49.6719 17.8592V18.6312H48.6719V17.7728C48.6719 17.3672 48.5367 17.1328 48.1415 17.1328C47.7463 17.1328 47.5815 17.412 47.5815 17.808V21.3184C47.5815 21.7136 47.7455 21.9936 48.1415 21.9936C48.5375 21.9936 48.6719 21.7432 48.6719 21.3536V20.1544H49.6751V21.28C49.6751 22.2152 49.2895 22.9096 48.1223 22.9096C46.9551 22.9096 46.4799 22.16 46.4799 21.148Z" fill="white"/>
<path d="M53.2048 19.3448H54.7672V22.836H53.9768V22.1224C53.832 22.6144 53.5232 22.9128 52.9256 22.9128C51.98 22.9128 51.5464 22.1608 51.5464 21.148V17.9848C51.5464 16.9624 52.0376 16.22 53.1952 16.22C54.4104 16.22 54.7672 16.8944 54.7672 17.8592V18.4376H53.764V17.7728C53.764 17.3672 53.6096 17.1328 53.2144 17.1328C52.8192 17.1328 52.6456 17.412 52.6456 17.808V21.3184C52.6456 21.7136 52.8056 21.9936 53.1856 21.9936C53.5424 21.9936 53.7256 21.7912 53.7256 21.3664V20.2128H53.2048V19.3448Z" fill="white"/>
<path fill-rule="evenodd" clip-rule="evenodd" d="M56.4935 22.8391V19.84L57.5255 22.8359H58.6799L57.6279 19.8656C58.2567 19.7216 58.5079 19.3056 58.5079 18.6016V17.7624C58.5079 16.8464 58.1023 16.2968 56.9935 16.2968H55.3935V22.8391H56.4935ZM56.4934 19.2352V17.2L56.8598 17.1936C57.2398 17.1936 57.3998 17.3672 57.3998 17.724V18.6952C57.3998 19.0424 57.2358 19.2352 56.8598 19.2352H56.4934Z" fill="white"/>
<path fill-rule="evenodd" clip-rule="evenodd" d="M59.0103 17.9848V21.148C59.0103 22.16 59.5023 22.9128 60.6695 22.9128C61.8367 22.9128 62.3375 22.1608 62.3375 21.148V17.9848C62.3375 16.9624 61.8271 16.22 60.6695 16.22C59.5119 16.22 59.0103 16.9624 59.0103 17.9848ZM61.2383 17.8112V21.3216C61.2383 21.7168 61.0559 21.9968 60.6695 21.9968C60.2831 21.9968 60.1095 21.7168 60.1095 21.3216V17.8112C60.1095 17.4152 60.2743 17.136 60.6695 17.136C61.0647 17.136 61.2383 17.4152 61.2383 17.8112Z" fill="white"/>
<path d="M65.1535 18.7944L64.5368 22.8359H63.5048L62.6248 16.2968H63.688L64.1992 20.444H64.2088L64.7584 16.2968H65.6551L66.2631 20.444H66.2727L66.7743 16.2968H67.6999L66.8511 22.8359H65.8111L65.1647 18.7944H65.1535Z" fill="white"/>
<path d="M68.0375 16.2968H70.9599V17.1936H70.0535V22.8359H68.9439V17.1936H68.0375V16.2968Z" fill="white"/>
<path d="M73.4576 19.952H72.4V22.8319H71.2968V16.2968H72.4V19.0648H73.4608V16.2968H74.5696V22.8359H73.4576V19.952Z" fill="white"/>
</svg>
