<svg width="80" height="80" viewBox="0 0 80 80" fill="none" xmlns="http://www.w3.org/2000/svg">
<rect width="80" height="80" fill="#DDA63A"/>
<path d="M14.96 20.6208H10.5128V19.8592C10.5128 18.5992 10.9648 18.1232 11.6544 17.3856L13.3904 15.5536C14.7944 14.0552 15.104 13.1032 15.104 11.4848V9.91522C15.104 7.60802 13.984 6.51282 11.5592 6.51282C9.18078 6.51282 7.96638 7.77362 7.96638 10.0328V11.984H10.4416V9.96162C10.4416 8.98722 10.9168 8.70082 11.4888 8.70082C12.0112 8.70082 12.4632 8.91602 12.4632 9.91522V11.2472C12.4632 12.58 12.344 13.1032 11.464 14.0304L9.94398 15.648C8.46718 17.2192 7.91998 18.2664 7.91998 19.8592V22.8336H14.96V20.6208Z" fill="white"/>
<path d="M33.0496 67.9776V69.1032C33.0474 69.1113 33.0461 69.1196 33.0456 69.128C33.046 69.1369 33.0473 69.1457 33.0496 69.1544C33.0614 69.4335 33.2886 69.6552 33.568 69.66C33.568 69.66 33.5744 69.66 33.5784 69.66H33.5912H46.7912C46.7912 69.66 46.7984 69.66 46.8024 69.66H46.8144C47.1023 69.6543 47.3331 69.42 47.3344 69.132C47.3339 69.1307 47.3339 69.1293 47.3344 69.128V67.8512C54.7632 65.416 60.3288 59.3952 61.5528 52.0576C61.5528 52.0416 61.5576 52.0272 61.56 52.0136C61.5643 51.9893 61.5667 51.9647 61.5672 51.94C61.5674 51.7984 61.5112 51.6625 61.4111 51.5624C61.311 51.4623 61.1752 51.4062 61.0336 51.4064H18.9712C18.8294 51.4059 18.6932 51.462 18.5928 51.5621C18.4924 51.6622 18.436 51.7982 18.436 51.94L18.464 52.18C19.7496 59.5872 25.4672 65.6416 33.0496 67.9776Z" fill="white"/>
<path d="M47.3192 33.456C47.1456 33.7024 43.0792 39.5528 47.4096 44.2832C49.3944 46.4544 49.2224 48.3696 48.656 49.6632H51.432C51.992 47.7536 51.7616 45.3576 49.512 42.8952C46.3232 39.4088 49.5528 34.6976 49.6016 34.6248C49.9824 34.0872 49.7784 33.3944 49.1512 33.0712C48.524 32.748 47.7056 32.9216 47.3232 33.456" fill="white"/>
<path d="M40.2887 49.6632H43.0655C43.6255 47.7528 43.3943 45.3576 41.1407 42.8952C37.9504 39.4088 41.1775 34.6992 41.2287 34.6224C41.6071 34.0872 41.4071 33.3952 40.7775 33.0712C40.1479 32.7472 39.3327 32.9208 38.9519 33.456C38.7776 33.7016 34.712 39.5528 39.0423 44.2832C41.0271 46.4544 40.8535 48.3704 40.2887 49.6632Z" fill="white"/>
<path d="M30.5832 33.456C30.4072 33.7024 26.3432 39.5528 30.6728 44.2832C32.6584 46.4552 32.4864 48.3704 31.9208 49.6632H34.6968C35.2568 47.7544 35.0264 45.3584 32.7704 42.8952C29.5808 39.4088 32.8104 34.6976 32.8616 34.6232C33.2384 34.0872 33.0376 33.3944 32.408 33.0712C31.7784 32.748 30.964 32.9208 30.5832 33.456Z" fill="white"/>
<path d="M23.9248 12.3448H25.5928V13.2416H22.7768V12.3448L24.5032 7.59999H22.9504V6.70319H25.6608V7.59999L23.9248 12.3448Z" fill="white"/>
<path d="M26.336 6.70319H28.96V7.59999H27.4352V9.47119H28.5248V10.3584H27.4352V12.3448H28.96V13.2416H26.336V6.70319Z" fill="white"/>
<path fill-rule="evenodd" clip-rule="evenodd" d="M30.7432 13.2392V10.24L31.7752 13.2416H32.9296L31.8776 10.2712C32.5064 10.128 32.7576 9.71199 32.7576 9.00799V8.16879C32.7576 7.25279 32.352 6.70319 31.2432 6.70319H29.6432V13.2392H30.7432ZM30.7432 9.63519V7.59999H31.1096C31.4856 7.59999 31.6496 7.77359 31.6496 8.13039V9.09439C31.6496 9.44159 31.4856 9.63519 31.1096 9.63519H30.7432Z" fill="white"/>
<path fill-rule="evenodd" clip-rule="evenodd" d="M33.4528 8.39041V11.5544C33.4528 12.5672 33.9448 13.3192 35.112 13.3192C36.2792 13.3192 36.7808 12.5672 36.7808 11.5544V8.39041C36.7808 7.36801 36.2696 6.62561 35.112 6.62561C33.9544 6.62561 33.4528 7.36801 33.4528 8.39041ZM35.68 8.21681V11.728C35.68 12.1232 35.4976 12.4032 35.1112 12.4032C34.7248 12.4032 34.5512 12.1232 34.5512 11.728V8.21681C34.5512 7.82161 34.716 7.54161 35.1112 7.54161C35.5064 7.54161 35.68 7.82161 35.68 8.21681Z" fill="white"/>
<path d="M24.9992 19.9383H23.9376V22.8183H22.8384V16.2831H23.9376V19.0511H24.9992V16.2831H26.108V22.8223H24.9992V19.9383Z" fill="white"/>
<path d="M30.0232 16.2831V21.2303C30.0232 22.2431 29.5896 22.8991 28.4704 22.8991C27.3136 22.8991 26.8312 22.2431 26.8312 21.2303V16.2831H27.9304V21.3367C27.9304 21.7223 28.0848 21.9831 28.4704 21.9831C28.856 21.9831 29.0112 21.7223 29.0112 21.3367V16.2831H30.0232Z" fill="white"/>
<path d="M31.6728 18.7135V22.8223H30.7464V16.2831H31.8272L33.0136 20.0351V16.2831H33.9296V22.8223H32.9648L31.6728 18.7135Z" fill="white"/>
<path d="M36.3112 19.3304H37.8744V22.8224H37.0832V22.1088C36.9384 22.6 36.6296 22.8992 36.032 22.8992C35.0864 22.8992 34.6528 22.1472 34.6528 21.1344V17.9712C34.6528 16.9488 35.1448 16.2056 36.3016 16.2056C37.5168 16.2056 37.8744 16.8808 37.8744 17.8456V18.424H36.8712V17.76C36.8712 17.3552 36.7168 17.124 36.3216 17.124C35.9264 17.124 35.752 17.4032 35.752 17.7992V21.3096C35.752 21.7048 35.916 21.9848 36.292 21.9848C36.6488 21.9848 36.8328 21.7824 36.8328 21.3576V20.1992H36.3112V19.3304Z" fill="white"/>
<path d="M38.5968 16.2831H41.2208V17.1799H39.6968V19.0511H40.7864V19.9383H39.6968V21.9255H41.2208V22.8223H38.5968V16.2831Z" fill="white"/>
<path fill-rule="evenodd" clip-rule="evenodd" d="M43.0048 22.8223V19.8223L44.0368 22.8223H45.1896L44.1384 19.8511C44.768 19.7079 45.0184 19.2919 45.0184 18.5879V17.7487C45.0184 16.8327 44.6136 16.2831 43.5048 16.2831H41.9048V22.8223H43.0048ZM43.0048 19.2175V17.1823L43.3712 17.1799C43.7512 17.1799 43.9112 17.3535 43.9112 17.7103V18.6775C43.9112 19.0247 43.7472 19.2175 43.3712 19.2175H43.0048Z" fill="white"/>
</svg>
