<svg width="80" height="80" viewBox="0 0 80 80" fill="none" xmlns="http://www.w3.org/2000/svg">
<rect width="80" height="80" fill="#0A97D9"/>
<path d="M10.423 6.7312V22.8536H7.71095V10.5128H7.68775L5.78615 12.4856H5.76135V9.656L8.25815 6.7312H10.423Z" fill="white"/>
<rect x="28.4481" y="6.69678" width="1.0992" height="6.5416" fill="white"/>
<path d="M30.1913 13.2392H31.2905V10.3528H32.3897V9.46558H31.2905V7.59358H32.7657V6.69678H30.1913V13.2392Z" fill="white"/>
<path d="M35.8784 7.59358V6.69678H33.256V13.2392H35.8784V12.3416H34.3552V10.3528H35.4448V9.46558H34.3552V7.59358H35.8784Z" fill="white"/>
<path fill-rule="evenodd" clip-rule="evenodd" d="M41.151 10.932C41.151 10.3344 40.8822 9.96804 40.3326 9.84244C40.7846 9.69764 40.9886 9.35044 40.9886 8.80244V8.13604C40.9886 7.21124 40.6214 6.69604 39.5222 6.69604H37.931V13.2376H39.6374C40.7374 13.2376 41.151 12.7264 41.151 11.7976V10.932ZM39.0301 7.59364H39.406C39.7732 7.59364 39.9372 7.76884 39.9372 8.12484V8.92484C39.9372 9.27284 39.7732 9.45604 39.4156 9.45604H39.0301V7.59364ZM39.5128 12.3408C39.8784 12.3408 40.0528 12.1576 40.0528 11.8104L40.0552 10.8264C40.0552 10.4792 39.8912 10.296 39.5056 10.296H39.0328V12.3408H39.5128Z" fill="white"/>
<path d="M41.621 13.2392H44.2434V12.3416H42.7194V10.3528H43.809V9.46558H42.7194V7.59358H44.2434V6.69678H41.621V13.2392Z" fill="white"/>
<path d="M44.9194 6.69678V13.2392H47.3306V12.3416H46.0186V6.69678H44.9194Z" fill="white"/>
<path fill-rule="evenodd" clip-rule="evenodd" d="M47.749 11.5496V8.3856C47.749 7.36 48.2402 6.62 49.4074 6.62C50.5746 6.62 51.0762 7.3632 51.0762 8.3856V11.5496C51.0762 12.564 50.5642 13.3152 49.4074 13.3152C48.2506 13.3152 47.749 12.564 47.749 11.5496ZM49.9772 11.724V8.21119C49.9772 7.81599 49.7932 7.53679 49.4076 7.53679C49.022 7.53679 48.8476 7.81599 48.8476 8.21119V11.724C48.8476 12.1192 49.0116 12.3992 49.4076 12.3992C49.8036 12.3992 49.9772 12.1192 49.9772 11.724Z" fill="white"/>
<path d="M53.0488 10.8456H53.04L52.5288 6.69678H51.468L52.3456 13.2392H53.3769L53.9945 9.19518H54.0033L54.6497 13.2392H55.6913L56.5393 6.69678H55.6145L55.1121 10.8456H55.1033L54.4961 6.69678H53.5993L53.0488 10.8456Z" fill="white"/>
<path d="M26.2511 22.8296H27.2823L27.8999 18.7872H27.9095L28.5559 22.8296H29.5975L30.4463 16.2888H29.5199L29.0191 20.4376H29.0087L28.4023 16.2888H27.5047L26.9551 20.4376H26.9455L26.4343 16.2888H25.3735L26.2511 22.8296Z" fill="white"/>
<path fill-rule="evenodd" clip-rule="evenodd" d="M31.3375 22.8296H30.2975L31.5311 16.2888H32.7839L34.0263 22.8296H32.8983L32.6967 21.6344H31.5295L31.3375 22.8296ZM32.1198 18.1312H32.1094L31.6798 20.7552H32.5542L32.1198 18.1312Z" fill="white"/>
<path d="M35.8344 22.8296V17.1856H36.7408V16.2888H33.8192V17.1856H34.7248V22.8296H35.8344Z" fill="white"/>
<path d="M39.8721 17.1856V16.2888H37.2497V22.8296H39.8721V21.9328H38.3489V19.9448H39.4385V19.0568H38.3489V17.1856H39.8721Z" fill="white"/>
<path fill-rule="evenodd" clip-rule="evenodd" d="M43.5738 17.7551V18.5943H43.5778C43.5778 19.2975 43.3242 19.7135 42.6978 19.8575L43.7482 22.8295H42.5906L41.5594 19.8303V22.8295H40.4602V16.2896H42.0602C43.169 16.2896 43.5738 16.8383 43.5738 17.7551ZM41.9298 19.2215C42.309 19.2215 42.4689 19.0287 42.4689 18.6815V17.7159C42.4689 17.3591 42.305 17.1855 41.9298 17.1855H41.5626V19.2215H41.9298Z" fill="white"/>
<path fill-rule="evenodd" clip-rule="evenodd" d="M18.679 20.24V22.8576L16.1094 22.8568V20.24H11.327V18.5752L16.0142 6.72717H18.679V18.1232H19.7734V20.24H18.679ZM16.1325 11.4832L13.7061 18.1232H16.1565V11.4832H16.1325Z" fill="white"/>
<path fill-rule="evenodd" clip-rule="evenodd" d="M44.9374 48.72C54.0558 48.72 60.5598 57.0096 61.5662 58.3696V58.3672C61.5904 58.3971 61.6108 58.4257 61.6291 58.4514L61.6358 58.4608C61.6496 58.492 61.6569 58.5258 61.6574 58.56C61.6566 58.5944 61.6493 58.6283 61.6358 58.66C61.6213 58.6774 61.6055 58.699 61.5875 58.7236C61.5807 58.7329 61.5736 58.7427 61.5662 58.7528C60.559 60.1104 54.0574 68.4016 44.9374 68.4016C37.0198 68.4016 28.5494 61.22 28.5494 61.22C28.5494 61.22 25.3558 67.752 18.827 68.36C18.8047 68.3652 18.7818 68.3673 18.759 68.3664L18.6886 68.372C18.554 68.3624 18.4495 68.2509 18.4486 68.116C18.449 68.0673 18.4628 68.0197 18.4886 67.9784L18.5454 67.8904C19.3766 66.504 21.5302 62.5312 21.5302 58.56C21.5302 54.604 19.3894 50.64 18.5502 49.252C18.502 49.1788 18.4675 49.0975 18.4486 49.012C18.4334 48.8944 18.5606 48.7624 18.6966 48.7544H18.7374C18.7587 48.7544 18.7802 48.7567 18.8012 48.7589C18.8212 48.7611 18.8406 48.7632 18.859 48.7632C25.3678 49.3888 28.5494 55.9008 28.5494 55.9008C28.5494 55.9008 37.0174 48.72 44.9374 48.72ZM47.3503 56.9469C47.3492 58.4159 48.5389 59.6078 50.0079 59.6096C50.7141 59.61 51.3916 59.3298 51.8912 58.8306C52.3909 58.3314 52.6717 57.6542 52.6719 56.948C52.6714 55.479 51.4806 54.2883 50.0116 54.288C48.5426 54.2877 47.3513 55.4779 47.3503 56.9469Z" fill="white"/>
<path d="M18.6543 33.1336C18.6379 33.1283 18.621 33.1245 18.6039 33.1224C18.5341 33.1228 18.4673 33.1509 18.4183 33.2006C18.3692 33.2502 18.3419 33.3174 18.3423 33.3872V35.2C18.341 35.2704 18.3684 35.3383 18.4183 35.388C22.8183 39.212 26.9871 35.628 27.9519 34.6816C27.9699 34.6528 27.9933 34.6279 28.0207 34.608C28.0634 34.5786 28.1137 34.5622 28.1655 34.5608C28.2314 34.5604 28.2948 34.5856 28.3423 34.6312C28.3458 34.6357 28.3501 34.6396 28.3551 34.6424C33.3271 39.3864 38.5399 35.544 39.6247 34.6424L39.7311 34.5448C39.7623 34.5309 39.7962 34.5241 39.8303 34.5248C39.8658 34.5237 39.901 34.5306 39.9335 34.5448L40.0415 34.6424C41.1255 35.544 46.3383 39.3864 51.3095 34.6424C51.3131 34.639 51.3163 34.6352 51.3191 34.6312C51.3668 34.5859 51.4301 34.5606 51.4959 34.5608C51.5478 34.5618 51.5982 34.5783 51.6407 34.608C51.6692 34.6279 51.6939 34.6529 51.7135 34.6816C52.6775 35.6288 56.8407 39.212 61.2455 35.388C61.2948 35.3379 61.3222 35.2702 61.3215 35.2V33.3872C61.3228 33.3177 61.2962 33.2505 61.2477 33.2008C61.1991 33.151 61.1326 33.1228 61.0631 33.1224C61.0441 33.1242 61.0254 33.1279 61.0071 33.1336C60.9663 33.1568 60.9271 33.1792 60.8751 33.2024C59.5215 33.88 55.3231 35.4928 51.5151 31.8872C51.4791 31.8544 51.4415 31.8208 51.4039 31.7816C51.369 31.7659 51.3311 31.7577 51.2927 31.7576C51.2658 31.7593 51.239 31.7633 51.2127 31.7696C51.1595 31.7906 51.1134 31.8264 51.0799 31.8728C49.9439 32.7384 44.7311 36.268 40.0887 31.9376L40.0207 31.8712C39.9696 31.8225 39.9025 31.7941 39.8319 31.7912C39.7636 31.7945 39.6989 31.823 39.6503 31.8712L39.5783 31.9376C34.9383 36.268 29.7191 32.7376 28.5847 31.8728C28.553 31.8263 28.5082 31.7904 28.4559 31.7696C28.4296 31.7636 28.4029 31.7596 28.3759 31.7576C28.3382 31.7585 28.301 31.7667 28.2663 31.7816C28.2319 31.8194 28.1947 31.8547 28.1551 31.8872C24.3447 35.4928 20.1471 33.88 18.7951 33.2024C18.7479 33.1792 18.7023 33.1568 18.6615 33.1336" fill="white"/>
<path d="M27.9521 41.2863C27.9708 41.2584 27.9944 41.234 28.0217 41.2143C28.0639 41.1843 28.1139 41.1671 28.1657 41.1647C28.2321 41.165 28.2958 41.1911 28.3433 41.2375C28.3464 41.2421 28.3505 41.2459 28.3553 41.2487C33.3257 45.9871 38.5401 42.1463 39.6249 41.2487L39.7313 41.1479C39.7629 41.1358 39.7966 41.1301 39.8305 41.1311C39.8661 41.13 39.9017 41.1357 39.9353 41.1479L40.0417 41.2487C41.1257 42.1463 46.3377 45.9871 51.3105 41.2487C51.3105 41.2487 51.3161 41.2423 51.3193 41.2375C51.3665 41.1912 51.4299 41.1651 51.4961 41.1647C51.5479 41.1665 51.5981 41.1838 51.6401 41.2143C51.6687 41.2337 51.6937 41.2581 51.7137 41.2863C52.6737 42.2343 56.8401 45.8183 61.2457 41.9903C61.2962 41.9428 61.3251 41.8766 61.3257 41.8071V39.9871C61.3259 39.9181 61.2985 39.8519 61.2497 39.8031C61.2009 39.7543 61.1347 39.7269 61.0657 39.7271C61.0467 39.7291 61.028 39.7325 61.0097 39.7375L60.8777 39.8039C59.5249 40.4823 55.3241 42.0911 51.5177 38.4903L51.4073 38.3863C51.3731 38.3674 51.3343 38.3582 51.2953 38.3599C51.2673 38.3595 51.2397 38.3664 51.2153 38.3799C51.1602 38.3944 51.1126 38.4293 51.0825 38.4775C49.9481 39.3415 44.7337 42.8719 40.0905 38.5415L40.0225 38.4735C39.9716 38.4257 39.9042 38.3996 39.8345 38.4007C39.7667 38.4002 39.7015 38.4263 39.6529 38.4735L39.5809 38.5415C34.9409 42.8719 29.7217 39.3415 28.5873 38.4775C28.5585 38.4296 28.5124 38.3947 28.4585 38.3799C28.4337 38.3672 28.4063 38.3603 28.3785 38.3599C28.3407 38.3588 28.3034 38.3679 28.2705 38.3863C28.2345 38.4223 28.1961 38.4567 28.1569 38.4903C24.3465 42.0903 20.1497 40.4823 18.7969 39.8039L18.6633 39.7375C18.647 39.7329 18.6304 39.7294 18.6137 39.7271C18.5443 39.7267 18.4777 39.7539 18.4285 39.8027C18.3793 39.8515 18.3515 39.9178 18.3513 39.9871V41.8071C18.3503 41.8761 18.3778 41.9423 18.4273 41.9903C22.8273 45.8183 26.9969 42.2303 27.9609 41.2863" fill="white"/>
<path d="M25.5281 6.69678V13.2392H27.9401V12.3416H26.6281V6.69678H25.5281Z" fill="white"/>
</svg>
