<svg width="80" height="80" viewBox="0 0 80 80" fill="none" xmlns="http://www.w3.org/2000/svg">
<rect width="80" height="80" fill="#26BDE2"/>
<path fill-rule="evenodd" clip-rule="evenodd" d="M16.1009 18.9776C16.1009 21.476 14.9849 23.0472 12.1049 23.0472C9.24887 23.0472 8.15447 21.2384 8.15447 18.74V10.8888C8.15447 8.36721 9.22567 6.53601 12.0801 6.53601C15.0777 6.53601 15.8633 8.20081 15.8633 10.58V11.44H13.3889V10.3664C13.3889 9.36721 13.1033 8.79601 12.1281 8.79601C11.1529 8.79601 10.8433 9.48481 10.8433 10.4616V13.9352H10.8665C11.2713 13.1504 11.9609 12.6256 13.1025 12.6256C15.0545 12.6256 16.1009 13.9584 16.1009 16.5984V18.9776ZM12.1281 14.7912C11.2713 14.7912 10.8905 15.3624 10.8433 16.2656V19.2168C10.8433 20.216 11.1993 20.8344 12.1049 20.8344C13.0329 20.8344 13.4121 20.2392 13.4121 19.2168V16.4096C13.4121 15.3624 13.0553 14.7912 12.1281 14.7912Z" fill="white"/>
<path d="M24.5192 13.2584C25.6864 13.2584 26.0712 12.5648 26.0712 11.628V10.4992H25.068V11.7056C25.068 12.0912 24.9344 12.3456 24.5376 12.3456C24.1408 12.3456 23.9776 12.0664 23.9776 11.6704V8.15841C23.9776 7.76321 24.1432 7.48321 24.5376 7.48321C24.932 7.48321 25.068 7.71441 25.068 8.12321V8.98161H26.0712V8.20961C26.0712 7.24561 25.7344 6.56961 24.5192 6.56961C23.36 6.56001 22.88 7.30561 22.88 8.32881V11.4928C22.88 12.5064 23.36 13.2584 24.52 13.2584" fill="white"/>
<path d="M29.1783 12.2848H27.8672V6.64001H26.7656V13.1824H29.1783V12.2848Z" fill="white"/>
<path d="M32.3992 12.2848H30.8752V10.2976H31.9648V9.40881H30.8752V7.53761H32.3992V6.64001H29.776V13.1824H32.3992V12.2848Z" fill="white"/>
<path fill-rule="evenodd" clip-rule="evenodd" d="M35.312 11.9856H34.1456L33.9504 13.1816H32.9104L34.1456 6.64001H35.3976L36.64 13.1856H35.5152L35.312 11.9856ZM34.7335 8.48001H34.7239L34.2879 11.1032H35.1679L34.7335 8.48001Z" fill="white"/>
<path d="M38.1192 9.07201L39.4112 13.1824H40.3752V6.64001H39.4592V10.3936L38.2736 6.64001H37.1928V13.1824H38.1192V9.07201Z" fill="white"/>
<path d="M44.4608 13.1816L45.0784 9.13921H45.0872L45.7336 13.1816H46.776L47.624 6.64081H46.6992L46.1968 10.7888H46.1872L45.58 6.64081H44.6832L44.1336 10.7888H44.124L43.612 6.64081H42.5504L43.4296 13.1816H44.4608Z" fill="white"/>
<path fill-rule="evenodd" clip-rule="evenodd" d="M50.0408 11.9856H48.8728L48.68 13.1816H47.64L48.8728 6.64001H50.1264L51.3712 13.1856H50.2424L50.0408 11.9856ZM49.4615 8.48001H49.4527L49.0159 11.1032H49.896L49.4615 8.48001Z" fill="white"/>
<path d="M52.1399 13.1816H53.2495V7.53761H54.156V6.64001H51.2335V7.53761H52.1399V13.1816Z" fill="white"/>
<path d="M57.2977 12.2848H55.7737V10.2976H56.8633V9.40881H55.7737V7.53761H57.2977V6.64001H54.6745V13.1824H57.2977V12.2848Z" fill="white"/>
<path fill-rule="evenodd" clip-rule="evenodd" d="M60.024 13.1824L58.9927 10.18L58.9951 13.1824H57.8959V6.64001H59.496C60.6056 6.64001 61.0104 7.19041 61.0104 8.10721V8.94641C61.0104 9.64961 60.7576 10.0664 60.1304 10.2096L61.1824 13.1824H60.024ZM59.36 7.54002H58.9927V9.57362H59.36C59.7344 9.57362 59.8992 9.38002 59.8992 9.03202V8.06962C59.8992 7.71362 59.7344 7.54002 59.36 7.54002Z" fill="white"/>
<path fill-rule="evenodd" clip-rule="evenodd" d="M25.1528 21.6304H23.9856L23.7912 22.8264H22.7512L23.9856 16.2856H25.2344L26.48 22.8264H25.3552L25.1528 21.6304ZM24.5752 18.128H24.564L24.128 20.7528H25.008L24.5752 18.128Z" fill="white"/>
<path d="M26.9352 16.2856V22.828H27.8608V18.7176L29.1528 22.828H30.116V16.2856H29.2016V20.0392L28.0152 16.2856H26.9352Z" fill="white"/>
<path fill-rule="evenodd" clip-rule="evenodd" d="M32.6176 22.8272H30.9216V16.2864H32.6176C33.7936 16.2864 34.2088 17.0296 34.2088 18.0416V21.0712C34.2088 22.0744 33.7936 22.8272 32.6176 22.8272ZM32.48 17.1824H32.02L32.0176 21.9296H32.48C32.9344 21.9296 33.1064 21.6592 33.1064 21.2648V17.8392C33.1064 17.4528 32.9344 17.1824 32.48 17.1824Z" fill="white"/>
<path d="M36.652 20.5408V21.4208C36.652 22.2784 37.0872 22.9072 38.2048 22.9072C39.3224 22.9072 39.8048 22.2672 39.8048 21.372V21.052C39.8048 20.332 39.5168 19.9616 38.9192 19.3536L38.2144 18.6592C37.8944 18.3512 37.6936 18.1376 37.6936 17.7728V17.636C37.6936 17.2696 37.9056 17.0968 38.2144 17.0968C38.5616 17.0968 38.7352 17.28 38.7352 17.6568V18.2272H39.7384V17.6952C39.7384 16.7496 39.3048 16.2096 38.2048 16.2096C37.1344 16.2096 36.6624 16.8368 36.6624 17.6496V17.8704C36.6624 18.6232 36.952 19 37.5784 19.6168L38.224 20.264C38.5616 20.584 38.7152 20.8136 38.7152 21.1888V21.44C38.7152 21.7872 38.5616 22.0192 38.2144 22.0192C37.8392 22.0192 37.6752 21.8072 37.6752 21.44V20.5408H36.652Z" fill="white"/>
<path fill-rule="evenodd" clip-rule="evenodd" d="M41.3544 21.6272L41.1616 22.8272H40.1208L41.3544 16.2864H42.6072L43.852 22.8272H42.724L42.5216 21.6272H41.3544ZM41.9432 18.1296H41.9336L41.4968 20.7528H42.3768L41.9432 18.1296Z" fill="white"/>
<path d="M46.6591 20.0392L45.4727 16.2864H44.3919V22.828H45.3191V18.7176L46.6103 22.828H47.5743V16.2864H46.6591V20.0392Z" fill="white"/>
<rect x="48.468" y="16.2856" width="1.10001" height="6.54159" fill="white"/>
<path d="M52.0816 22.828V17.1832H52.9888V16.2872H50.0672V17.1832H50.9728V22.828H52.0816Z" fill="white"/>
<path fill-rule="evenodd" clip-rule="evenodd" d="M53.9728 16.2864H55.2248L56.468 22.8272H55.34L55.1376 21.6312H53.972L53.7776 22.8272H52.7376L53.9728 16.2864ZM54.5512 18.1296L54.116 20.7528H54.9944L54.56 18.1296H54.5512Z" fill="white"/>
<path d="M59.0408 16.2864H56.1192V17.1832H57.0264V22.828H58.136V17.1832H59.0408V16.2864Z" fill="white"/>
<rect x="59.6415" y="16.2856" width="1.09922" height="6.54159" fill="white"/>
<path fill-rule="evenodd" clip-rule="evenodd" d="M64.78 21.1392C64.78 22.1528 64.28 22.9056 63.1128 22.9056C61.956 22.9056 61.4528 22.1528 61.4528 21.1392V17.9744C61.4528 16.9512 61.9456 16.2088 63.1128 16.2088C64.28 16.2088 64.78 16.9512 64.78 17.9744V21.1392ZM63.1129 17.1256C62.7257 17.1256 62.5529 17.4056 62.5529 17.8008V21.3128C62.5529 21.708 62.7177 21.988 63.1129 21.988C63.5081 21.988 63.6817 21.708 63.6817 21.3128V17.8008C63.6817 17.4056 63.5001 17.1256 63.1129 17.1256Z" fill="white"/>
<path d="M68.6776 22.828V16.2872H67.7616V20.0392L66.5752 16.2872H65.4944V22.828H66.4208V18.7168L67.7128 22.828H68.6776Z" fill="white"/>
<path fill-rule="evenodd" clip-rule="evenodd" d="M54.772 32.3488C54.7048 32.2751 54.6094 32.2335 54.5096 32.2344H25.4856C25.3859 32.2307 25.2899 32.2726 25.225 32.3483C25.16 32.424 25.1331 32.5253 25.152 32.6232L30.032 62.1136C30.0596 62.277 30.2007 62.3968 30.3664 62.3976H36.3512L36.7608 67.1976H34.2424L40.1024 73.0568L45.976 67.184H43.4584L43.8632 62.4H49.9536C50.1215 62.4007 50.2639 62.2768 50.2864 62.1104L54.8464 32.6256C54.8624 32.527 54.8353 32.4262 54.772 32.3488ZM43.5544 55.9576C42.6139 56.8172 41.3623 57.2538 40.0912 57.1656C38.8189 57.2546 37.5656 56.818 36.624 55.9576C34.4496 53.7856 35.2256 51.0832 35.984 49.6864C36.4512 48.812 39.792 43.7952 40.08 43.3664V43.3328L40.0928 43.3488L40.104 43.3328V43.3664C40.1452 43.4292 40.2527 43.5912 40.4075 43.8246L40.4076 43.8248C41.3061 45.1787 43.7991 48.9359 44.1976 49.6864C44.9536 51.0832 45.7272 53.7856 43.5544 55.9576ZM50.0208 38.7192C50.9776 38.332 51.9752 38.2072 52.7616 38.5536L53.5832 33.5136H26.4223L27.5655 39.3744C29.5055 39.3893 31.1122 38.8115 32.8257 38.1951C32.859 38.1832 32.8922 38.1712 32.9255 38.1592C34.9118 37.4435 36.668 38.1532 38.433 38.8665C39.0118 39.1004 39.5916 39.3347 40.1808 39.5192C43.968 40.704 46.4208 40.1792 50.0208 38.7192Z" fill="white"/>
</svg>
