<svg width="80" height="80" viewBox="0 0 80 80" fill="none" xmlns="http://www.w3.org/2000/svg">
<rect width="80" height="80" fill="#56C02B"/>
<path d="M25.5648 6.69604V13.2384H27.9768V12.3408H26.6648V6.69604H25.5648Z" fill="white"/>
<rect x="28.5751" y="6.69604" width="1.09919" height="6.5416" fill="white"/>
<path d="M30.3976 13.2384H31.4968V10.3528H32.5968V9.46564H31.4968V7.59364H32.9712V6.69604H30.3976V13.2384Z" fill="white"/>
<path d="M33.5514 13.2384H36.1738V12.3408H34.6506V10.3528H35.741V9.46564H34.6506V7.59364H36.1738V6.69604H33.5514V13.2384Z" fill="white"/>
<path d="M5.85773 9.62324V12.4536H5.88173L7.78413 10.4792H7.80893V22.8264H10.5201V6.69604H8.35533L5.85773 9.62324Z" fill="white"/>
<path d="M16.9682 11.812C15.8978 11.812 15.113 12.192 14.6842 12.932H14.6602V8.90883H19.3234V6.69763H12.1866V15.7856H14.6602V15.4272C14.6602 14.4768 15.0882 13.9528 15.849 13.9528C16.6826 13.9528 17.0162 14.524 17.0162 15.4048V19.3064C17.0162 20.1616 16.7066 20.7568 15.8738 20.7568C14.9466 20.7568 14.6146 20.1384 14.6146 19.1864V17.1648H12.1346V18.9976C12.1346 21.4472 13.1098 23.0168 15.8698 23.0168C18.6058 23.0168 19.7234 21.5656 19.7234 19.3296V15.38C19.7234 12.8344 18.4154 11.812 16.9642 11.812" fill="white"/>
<path fill-rule="evenodd" clip-rule="evenodd" d="M25.5599 17.9944V21.1456C25.5599 22.156 26.0503 22.9056 27.2135 22.9056C28.3767 22.9056 28.8759 22.1552 28.8759 21.1456V17.9944C28.8759 16.9744 28.3671 16.2344 27.2135 16.2344C26.0599 16.2344 25.5599 16.9752 25.5599 17.9944ZM27.78 17.8208V21.3184C27.78 21.7128 27.6008 21.992 27.2136 21.992C26.8264 21.992 26.6536 21.7128 26.6536 21.3184V17.8208C26.6536 17.4264 26.82 17.148 27.2136 17.148C27.6072 17.148 27.78 17.4264 27.78 17.8208Z" fill="white"/>
<path d="M30.4191 18.7344V22.8272H29.4967V16.312H30.5735L31.7551 20.0496V16.312H32.6679V22.8272H31.7079L30.4191 18.7344Z" fill="white"/>
<path d="M35.0432 16.312H36.1384V21.9336H37.4464V22.8272H35.0432V16.312Z" fill="white"/>
<path fill-rule="evenodd" clip-rule="evenodd" d="M38.9993 16.312L37.7689 22.8272H38.8081L38.9993 21.636H40.1601L40.3641 22.8272H41.4889L40.2489 16.312H38.9993ZM40.0186 20.7616H39.1442L39.5762 18.148H39.5858L40.0186 20.7616Z" fill="white"/>
<path d="M42.8592 18.7344V22.8272H41.936V16.312H43.0128L44.1944 20.0496V16.312H45.1072V22.8272H44.1472L42.8592 18.7344Z" fill="white"/>
<path fill-rule="evenodd" clip-rule="evenodd" d="M49.0951 21.0792V18.0616C49.0951 17.052 48.6823 16.312 47.5095 16.312H45.8183V22.8272H47.5095C48.6823 22.8272 49.0951 22.0776 49.0951 21.0792ZM47.9997 21.2712C47.9997 21.6648 47.8253 21.9336 47.3749 21.9336H46.9133V17.2056H47.3749C47.8253 17.2056 47.9997 17.4744 47.9997 17.8592V21.2712Z" fill="white"/>
<path d="M33.5354 54.0896C33.5823 54.0896 33.6272 54.1082 33.6604 54.1414C33.6936 54.1745 33.7122 54.2195 33.7122 54.2664V60.092C33.7124 60.139 33.6938 60.184 33.6606 60.2172C33.6274 60.2505 33.5823 60.269 33.5354 60.2688H31.1786C31.1315 60.269 31.0864 60.2505 31.053 60.2173C31.0197 60.1841 31.001 60.139 31.001 60.092V54.2664C31.001 54.2194 31.0197 54.1743 31.053 54.1411C31.0864 54.1079 31.1315 54.0894 31.1786 54.0896H33.5354Z" fill="white"/>
<path d="M59.424 62.7697H20.5752C20.476 62.7723 20.3971 62.8537 20.3976 62.9529V65.3273C20.3989 65.4243 20.4782 65.5021 20.5752 65.5017H59.424C59.5208 65.5013 59.5998 65.4241 59.6024 65.3273V62.9529C59.602 62.8537 59.5231 62.7727 59.424 62.7697Z" fill="white"/>
<path d="M59.424 67.4889H20.5752C20.479 67.4902 20.4013 67.5679 20.4 67.6641V70.0457C20.4018 70.1427 20.4806 70.2205 20.5776 70.2209H59.424C59.5209 70.2201 59.5998 70.1426 59.6024 70.0457V67.6641C59.6002 67.567 59.5211 67.4893 59.424 67.4889" fill="white"/>
<path d="M52.0312 47.6416C51.5464 47.2616 50.2504 46.3752 48.6712 46.3752C47.5416 46.3752 46.4912 46.82 45.5512 47.7008C45.4854 47.7634 45.4479 47.85 45.4472 47.9408V48.16C45.4424 48.2608 45.4832 48.3583 45.5584 48.4256C45.6342 48.4894 45.7358 48.5131 45.832 48.4896C45.8568 48.4856 45.8811 48.4795 45.9048 48.4712C45.9777 48.4447 46.0441 48.4027 46.0992 48.348C46.3024 48.2112 46.8592 48.028 47.6552 48.028C48.4776 48.028 50.0952 48.2488 51.6552 49.708L51.6912 49.74C51.7801 49.8306 51.9018 49.8814 52.0288 49.8808C52.1525 49.8813 52.2711 49.8316 52.3576 49.7432L52.3896 49.7104C53.9608 48.2512 55.5752 48.0304 56.3976 48.0304C57.1976 48.0304 57.7576 48.2176 57.9576 48.3504C58.0188 48.4095 58.0923 48.4543 58.1728 48.4816C58.2475 48.4995 58.3255 48.4989 58.4 48.48C58.5442 48.4405 58.6444 48.3096 58.6448 48.16V47.9728C58.6438 47.8821 58.6063 47.7956 58.5408 47.7328C57.592 46.8288 56.5304 46.3728 55.3832 46.3728C53.8176 46.3728 52.528 47.2456 52.0288 47.6408" fill="white"/>
<path d="M49.6207 32.16C49.5376 32.201 49.476 32.2755 49.4511 32.3648L49.4119 32.4944C49.3817 32.5943 49.4007 32.7027 49.4631 32.7864C49.5195 32.8638 49.6075 32.912 49.7031 32.9176C49.7193 32.9207 49.7358 32.9207 49.7519 32.9176C49.8173 32.9166 49.8814 32.9002 49.9391 32.8696C50.0177 32.8509 50.0984 32.842 50.1791 32.8432C50.3527 32.8432 51.9191 32.896 52.9543 34.656L52.9679 34.6816C53.0192 34.7795 53.1092 34.8514 53.2159 34.88C53.2562 34.8919 53.2979 34.8983 53.3399 34.8992C53.4082 34.8994 53.4755 34.8829 53.5359 34.8512L53.5615 34.8384C54.0978 34.5624 54.6912 34.4156 55.2943 34.4096C56.2759 34.4096 56.9167 34.8096 57.0663 34.9768C57.0975 35.033 57.1403 35.0818 57.1919 35.12C57.2325 35.1435 57.2747 35.1638 57.3183 35.1808C57.3372 35.1856 57.3565 35.1883 57.3759 35.1888C57.3874 35.19 57.3989 35.19 57.4103 35.1888C57.4641 35.1885 57.5171 35.1753 57.5647 35.1504C57.6446 35.1094 57.7042 35.0374 57.7295 34.9512L57.7623 34.8368C57.7719 34.8063 57.7765 34.7744 57.7759 34.7424C57.7764 34.6835 57.7606 34.6257 57.7303 34.5752C56.9759 33.2656 55.8815 32.992 55.0951 32.992C54.6173 32.9979 54.1442 33.0867 53.6967 33.2544C53.3415 32.7744 52.4415 31.7864 51.0767 31.7864C50.5693 31.7932 50.0705 31.9193 49.6207 32.1544" fill="white"/>
<path d="M41.412 38.1352L41.4232 38.3104C41.4292 38.4099 41.4795 38.5013 41.5603 38.5596C41.641 38.6179 41.7437 38.6369 41.84 38.6112C41.8593 38.6067 41.8783 38.6008 41.8968 38.5936C41.962 38.5666 42.0197 38.5241 42.0648 38.4696C42.2296 38.3504 42.7616 38.1328 43.5464 38.1328C44.3008 38.1328 45.448 38.3344 46.6176 39.2952L46.6448 39.3232C46.7281 39.3954 46.8345 39.4354 46.9448 39.436H46.9736C47.0902 39.4282 47.1993 39.3758 47.2784 39.2896L47.304 39.26C48.5991 37.8896 49.9935 37.6864 50.7095 37.6864C51.2199 37.6864 51.5815 37.7912 51.7223 37.8712C51.7812 37.9208 51.8503 37.9566 51.9247 37.976C51.9988 37.9946 52.0767 37.991 52.1487 37.9656C52.2885 37.9162 52.3783 37.7799 52.3687 37.632L52.3599 37.48C52.3543 37.3902 52.3121 37.3067 52.2431 37.2488C51.4703 36.5984 50.6359 36.2712 49.7583 36.2712C48.3919 36.2712 47.3016 37.0776 46.8504 37.4712C46.4376 37.1896 45.4344 36.6104 44.2584 36.6104C43.2248 36.6104 42.2984 37.04 41.5024 37.884C41.4402 37.9516 41.4077 38.0412 41.412 38.1328" fill="white"/>
<path d="M21.7529 41.2536C21.7525 40.1363 22.1961 39.0645 22.986 38.2743C23.776 37.484 24.8476 37.04 25.9649 37.04C26.0561 37.04 26.1449 37.048 26.2345 37.0536C26.4045 34.7659 27.9304 32.8035 30.1057 32.0751C32.281 31.3467 34.681 31.9945 36.1943 33.7186C37.7076 35.4426 38.0388 37.9063 37.0345 39.9688C40.2091 40.6694 42.3459 43.6493 41.9909 46.8809C41.6359 50.1124 38.9031 52.5573 35.6521 52.552C35.3953 52.552 27.1537 52.5024 27.1537 52.5024C25.3543 52.5052 23.726 51.4364 23.0126 49.7844C22.2993 48.1324 22.6379 46.2143 23.8737 44.9064C22.5625 44.1576 21.7532 42.7636 21.7529 41.2536Z" fill="white"/>
</svg>
