<svg width="80" height="80" viewBox="0 0 80 80" fill="none" xmlns="http://www.w3.org/2000/svg">
<rect width="80" height="80" fill="#FF3A21"/>
<path d="M24.2216 13.3128C24.8208 13.3128 25.1296 13.0136 25.2736 12.5224V13.2352H26.064V9.7432H24.5024V10.6112H25.0232V11.7696C25.0232 12.1936 24.8392 12.396 24.4824 12.396C24.1064 12.396 23.9424 12.116 23.9424 11.7208V8.208C23.9424 7.8144 24.116 7.5336 24.512 7.5336C24.908 7.5336 25.0616 7.7648 25.0616 8.1736V8.8392H26.064V8.26C26.064 7.2952 25.7072 6.6192 24.4928 6.6192C23.3352 6.6192 22.844 7.3624 22.844 8.3848V11.5496C22.844 12.5624 23.2768 13.3152 24.2216 13.3152" fill="white"/>
<path d="M29.4104 12.3384H27.8872V10.3504H28.9776V9.4624H27.8872V7.592H29.4104V6.6936H26.788V13.236H29.4104V12.3384Z" fill="white"/>
<path d="M31.0224 9.1256L32.3136 13.236H33.2784V6.6936H32.3632V10.4472L31.176 6.6936H30.0968V13.236H31.0224V9.1256Z" fill="white"/>
<path fill-rule="evenodd" clip-rule="evenodd" d="M37.2904 8.45043V11.4792L37.2872 11.4728C37.2872 12.48 36.8728 13.2328 35.696 13.2328H34V6.69043H35.6992C36.876 6.69043 37.2904 7.43763 37.2904 8.45043ZM35.0992 7.59123V12.332L35.5624 12.3384C36.0152 12.3384 36.188 12.068 36.188 11.6728V8.24723C36.188 7.86163 36.0152 7.59123 35.5624 7.59123H35.0992Z" fill="white"/>
<path d="M40.6376 12.3384H39.1152V10.3504H40.2048V9.4624H39.1152V7.592H40.6376V6.6936H38.0152V13.236H40.6376V12.3384Z" fill="white"/>
<path fill-rule="evenodd" clip-rule="evenodd" d="M43.44 13.236L42.4136 10.2344L42.4168 13.2352H41.3168V6.69281H42.9168C44.0256 6.69281 44.4304 7.24321 44.4304 8.16001V9.00001C44.4304 9.70401 44.1768 10.1192 43.5504 10.264L44.5976 13.236H43.44ZM42.7784 7.59441H42.4136V9.62481H42.7784C43.1584 9.62481 43.3184 9.43281 43.3184 9.08401V8.12401C43.3184 7.76721 43.1552 7.59441 42.7784 7.59441Z" fill="white"/>
<path d="M25.4664 21.9288H23.9432V19.9416H25.0328V19.0544H23.9432V17.1824H25.4664V16.2848H22.844V22.8264H25.4664V21.9288Z" fill="white"/>
<path fill-rule="evenodd" clip-rule="evenodd" d="M27.3968 23.2704V22.8256C26.5192 22.672 26.1432 22.0256 26.1432 21.1376V17.9728C26.1432 16.9504 26.6336 16.2072 27.8008 16.2072C28.968 16.2072 29.4688 16.9504 29.4688 17.9728V21.1376C29.4688 21.852 29.2192 22.4112 28.6592 22.6808L29.4688 22.836V23.656L27.3968 23.2704ZM27.8015 17.124C27.4151 17.124 27.2415 17.4048 27.2415 17.8V21.3704C27.2415 21.756 27.4055 22.0448 27.8015 22.0448C28.1975 22.0448 28.3703 21.756 28.3703 21.3704V17.8C28.3703 17.4048 28.1879 17.124 27.8015 17.124Z" fill="white"/>
<path d="M30.1832 16.2848V21.2344C30.1832 22.2472 30.6632 22.9032 31.8224 22.9032C32.9424 22.9032 33.3752 22.2472 33.3752 21.2344V16.2848H32.3632V21.34C32.3632 21.7264 32.2088 21.9864 31.8224 21.9864C31.436 21.9864 31.2824 21.7264 31.2824 21.34V16.2848H30.1832Z" fill="white"/>
<path fill-rule="evenodd" clip-rule="evenodd" d="M36.32 21.6296H35.1504L34.96 22.8264H33.92L35.1504 16.288H36.4064L37.6504 22.8296H36.5224L36.32 21.6296ZM35.7392 18.128H35.728L35.2919 20.752H36.172L35.7392 18.128Z" fill="white"/>
<path d="M38.1888 16.2848V22.8264H40.5992V21.9296H39.2888V16.2848H38.1888Z" fill="white"/>
<rect x="41.188" y="16.2848" width="1.09999" height="6.54159" fill="white"/>
<path d="M44.9009 22.8264V17.1824H45.8065V16.2856H42.8864V17.1824H43.792V22.8264H44.9009Z" fill="white"/>
<path d="M47.4463 22.8264H48.5463V20.3376L49.7599 16.2856H48.7103L48.0447 18.764H48.0351L47.3703 16.2856H46.2224L47.4463 20.3376V22.8264Z" fill="white"/>
<path d="M12.7552 11.8112C11.6848 11.8112 10.9 12.1912 10.4712 12.9312H10.4472V8.90879H15.1104V6.69598H7.9744V15.7848H10.4472V15.4264C10.4472 14.4752 10.876 13.9512 11.6368 13.9512C12.4696 13.9512 12.804 14.5232 12.804 15.404V19.3056C12.804 20.1624 12.4936 20.756 11.6608 20.756C10.7328 20.756 10.4008 20.1376 10.4008 19.1872V17.164H7.9248V18.996C7.9248 21.4464 8.90081 23.0168 11.6608 23.0168C14.3968 23.0168 15.5144 21.5656 15.5144 19.3288V15.38C15.5144 12.8344 14.2064 11.8112 12.7552 11.8112Z" fill="white"/>
<path fill-rule="evenodd" clip-rule="evenodd" d="M48.3256 30.2704H58.268V30.2728C58.3019 30.2726 58.3346 30.2859 58.3587 30.3097C58.3829 30.3336 58.3966 30.366 58.3968 30.4V40.3376C58.3959 40.408 58.3384 40.4644 58.268 40.464H54.9648C54.8944 40.4644 54.8369 40.408 54.836 40.3376V36.64L50.5016 40.9768C52.0512 43.1666 52.8822 45.7837 52.88 48.4664C52.88 54.9272 48.1512 60.3008 41.9728 61.3144V65.1832H45.8928C45.9261 65.1832 45.958 65.1964 45.9816 65.22C46.0052 65.2435 46.0184 65.2755 46.0184 65.3088V68.8504C46.0186 68.8838 46.0055 68.916 45.9819 68.9397C45.9583 68.9634 45.9262 68.9768 45.8928 68.9768H41.9728V72.72C41.9726 72.7537 41.959 72.786 41.935 72.8097C41.911 72.8334 41.8785 72.8466 41.8448 72.8464H38.3056C38.272 72.8466 38.2397 72.8333 38.216 72.8096C38.1922 72.7858 38.179 72.7536 38.1792 72.72V68.98H34.2592C34.2253 68.9806 34.1926 68.9676 34.1685 68.9438C34.1444 68.92 34.131 68.8874 34.1312 68.8536V65.312C34.1312 65.2782 34.1447 65.2459 34.1688 65.2223C34.1929 65.1987 34.2255 65.1857 34.2592 65.1864H38.1792V61.3792C31.7904 60.5496 26.8376 55.0808 26.8376 48.4696C26.8376 41.2872 32.68 35.4472 39.86 35.4472C42.7725 35.4451 45.6008 36.4248 47.888 38.228L52.284 33.828H48.3256C48.2556 33.8275 48.1992 33.7707 48.1992 33.7008V30.3976C48.1996 30.3278 48.2558 30.2713 48.3256 30.2704ZM30.2744 48.4664C30.2744 53.7604 34.566 58.052 39.86 58.052C45.1518 58.0467 49.4403 53.7582 49.4456 48.4664C49.4456 43.1724 45.154 38.8808 39.86 38.8808C34.566 38.8808 30.2744 43.1724 30.2744 48.4664Z" fill="white"/>
<path d="M45.812 44.532H34.1856C34.1196 44.5292 34.0635 44.5797 34.0592 44.6456V47.46C34.0604 47.4921 34.0745 47.5224 34.0983 47.5441C34.122 47.5657 34.1535 47.5769 34.1856 47.5752H45.812C45.8444 47.5774 45.8764 47.5664 45.9006 47.5447C45.9248 47.523 45.9393 47.4925 45.9408 47.46V44.6456C45.9361 44.5789 45.8787 44.5283 45.812 44.532Z" fill="white"/>
<path d="M45.812 49.5576H34.1856C34.1184 49.5558 34.0622 49.6081 34.0592 49.6752V52.4896C34.0608 52.5214 34.0751 52.5513 34.0988 52.5726C34.1225 52.5939 34.1537 52.6049 34.1856 52.6032H45.812C45.8441 52.6054 45.8759 52.5946 45.9001 52.5733C45.9243 52.5519 45.9389 52.5218 45.9408 52.4896V49.6752C45.9373 49.6073 45.8799 49.5549 45.812 49.5576Z" fill="white"/>
</svg>
