<svg width="80" height="80" viewBox="0 0 80 80" fill="none" xmlns="http://www.w3.org/2000/svg">
<rect width="80" height="80" fill="#DD1367"/>
<path fill-rule="evenodd" clip-rule="evenodd" d="M27.701 13.3288L26.6522 10.2816L26.6546 13.3256H25.5346V6.68561H27.165C28.2922 6.68561 28.7042 7.24401 28.7042 8.17521V9.03041C28.7042 9.74241 28.449 10.1648 27.813 10.3104L28.8802 13.3288H27.701ZM27.0243 7.59681H26.6523V9.66881H27.0243C27.4075 9.66881 27.5739 9.47201 27.5739 9.12001V8.13681C27.5739 7.77281 27.4075 7.59681 27.0243 7.59681Z" fill="white"/>
<path d="M32.0712 12.4176H30.5224V10.4H31.6296V9.49761H30.5224V7.59681H32.0712V6.68561H29.4048V13.3288H32.0712V12.4176Z" fill="white"/>
<path fill-rule="evenodd" clip-rule="evenodd" d="M32.7673 6.68561H34.4905C35.6857 6.68561 36.1073 7.44001 36.1073 8.46961V11.5424C36.1073 12.5616 35.6857 13.3256 34.4905 13.3256H32.7673V6.68561ZM34.3505 12.4176C34.8153 12.4176 34.9905 12.1416 34.9905 11.7416V8.26561C34.9905 7.87361 34.8121 7.60001 34.3505 7.60001H33.8809V12.4176H34.3505Z" fill="white"/>
<path d="M37.96 6.68561H36.84V11.712C36.84 12.7408 37.3296 13.4064 38.5056 13.4064C39.6424 13.4064 40.0832 12.7408 40.0832 11.712V6.68561H39.056V11.82C39.056 12.2112 38.9 12.4768 38.508 12.4768C38.116 12.4768 37.96 12.2112 37.96 11.82V6.68561Z" fill="white"/>
<path d="M40.8207 8.39997V11.6128C40.8207 12.6416 41.3111 13.4056 42.4855 13.4056C43.6599 13.4056 44.0623 12.7008 44.0623 11.7504V10.6048H43.0447V11.8296C43.0447 12.2216 42.9071 12.4752 42.5063 12.4752C42.1055 12.4752 41.9367 12.192 41.9367 11.7904V8.22397C41.9367 7.82397 42.1039 7.53757 42.5063 7.53757C42.9087 7.53757 43.0447 7.77277 43.0447 8.18477V9.05677H44.0623V8.27357C44.0623 7.29277 43.7207 6.60797 42.4855 6.60797C41.3111 6.60797 40.8207 7.36237 40.8207 8.40077" fill="white"/>
<path d="M44.7697 13.328H47.4345V12.4176H45.8873V10.3992H46.9937V9.49761H45.8873V7.59681H47.4345V6.68561H44.7697V13.328Z" fill="white"/>
<path fill-rule="evenodd" clip-rule="evenodd" d="M48.1295 13.3256V6.68561H49.8543C51.0495 6.68561 51.4711 7.44001 51.4711 8.46961V11.5424C51.4711 12.5616 51.0495 13.3256 49.8543 13.3256H48.1295ZM50.3544 11.7416V8.26561C50.3544 7.87441 50.1744 7.60001 49.7144 7.60001H49.244V12.4176H49.7144C50.1776 12.4176 50.3544 12.1416 50.3544 11.7416Z" fill="white"/>
<rect x="25.5351" y="16.1904" width="1.11679" height="6.64239" fill="white"/>
<path d="M30.6119 16.1896H29.6807V20.0016L28.4751 16.1896H27.3783V22.8328H28.3183V18.6592L29.6311 22.8328H30.6119V16.1896Z" fill="white"/>
<path d="M33.9042 17.1016V16.1904H31.2402V22.8328H33.9042V21.9208H32.357V19.9032H33.4634V19.0024H32.357V17.1016H33.9042Z" fill="white"/>
<path fill-rule="evenodd" clip-rule="evenodd" d="M34.3144 17.904C34.3144 16.8656 34.8248 16.112 36 16.112C37.1856 16.112 37.6952 16.864 37.6952 17.904V21.1152C37.6952 21.8408 37.44 22.4096 36.872 22.6832L37.6952 22.8432V23.6776L35.5888 23.2856V22.8352C34.696 22.6768 34.3144 22.0216 34.3144 21.12V17.904ZM36.0001 22.0392C36.4017 22.0392 36.5777 21.7456 36.5777 21.3544V17.7288C36.5777 17.3264 36.3913 17.0424 36.0001 17.0424C35.6089 17.0424 35.4313 17.3288 35.4313 17.7288V21.3544C35.4313 21.7456 35.5985 22.0392 36.0001 22.0392Z" fill="white"/>
<path d="M38.3199 16.1904V21.2168C38.3199 22.2456 38.8103 22.9112 39.9863 22.9112C41.1231 22.9112 41.5639 22.2456 41.5639 21.2168V16.1904H40.5351V21.324C40.5351 21.716 40.3751 21.9808 39.9863 21.9808C39.5975 21.9808 39.4375 21.716 39.4375 21.324V16.1904H38.3199Z" fill="white"/>
<path fill-rule="evenodd" clip-rule="evenodd" d="M41.9255 22.8304L43.1791 16.1904H44.4535L45.7167 22.8304H44.5711L44.3655 21.6144H43.1791L42.9839 22.8304H41.9255ZM43.7672 18.0616L43.3264 20.7272H44.2176L43.7768 18.0616H43.7672Z" fill="white"/>
<path d="M46.1678 16.1904V22.832H48.6174V21.9216H47.2846V16.1904H46.1678Z" fill="white"/>
<rect x="49.1175" y="16.1904" width="1.11679" height="6.64239" fill="white"/>
<path d="M52.793 22.8328V17.1016H53.713V16.1904H50.7442V17.1016H51.6658V22.8328H52.793Z" fill="white"/>
<rect x="54.2224" y="16.1904" width="1.11679" height="6.6432" fill="white"/>
<path d="M58.6417 21.9216H57.0937V19.9032H58.2009V19.0024H57.0937V17.1016H58.6417V16.1904H55.9761V22.832H58.6417V21.9216Z" fill="white"/>
<path d="M59.0808 20.5112V21.4024C59.0808 22.2752 59.5216 22.9112 60.6584 22.9112C61.7952 22.9112 62.2848 22.264 62.2848 21.3528V21.0328C62.2848 20.2992 61.9904 19.9264 61.384 19.3088L60.668 18.6032C60.348 18.2888 60.1392 18.0744 60.1392 17.7024V17.5648C60.1392 17.192 60.3544 17.0168 60.668 17.0168C61.0216 17.0168 61.1968 17.2016 61.1968 17.584V18.16H62.2168V17.62C62.2168 16.66 61.776 16.112 60.6584 16.112C59.5712 16.112 59.0912 16.752 59.0912 17.5712V17.7968C59.0912 18.5608 59.384 18.9432 60.0224 19.5696L60.6776 20.2272C61.0216 20.5472 61.1776 20.7872 61.1776 21.168V21.4224C61.1776 21.7752 61.0176 22.0104 60.668 22.0104C60.2864 22.0104 60.1192 21.7952 60.1192 21.4224V20.5112H59.0808Z" fill="white"/>
<path d="M7.71855 10.4824V22.8416H10.4329V6.69519H8.26575L5.76575 9.62479V12.4592H5.78895L7.69375 10.4824H7.71855Z" fill="white"/>
<path fill-rule="evenodd" clip-rule="evenodd" d="M20.3401 10.8624V18.6744C20.3401 21.1744 19.0785 23.032 16.3153 23.032C13.5785 23.032 12.3153 21.1744 12.3153 18.6744V10.8624C12.3153 8.33842 13.5769 6.50482 16.3153 6.50482C19.0785 6.50482 20.3401 8.33842 20.3401 10.8624ZM15.0289 10.4344V19.1032C15.0289 20.08 15.3857 20.7696 16.3153 20.7696C17.2681 20.7696 17.6249 20.08 17.6249 19.1032V10.4344C17.6249 9.45762 17.2681 8.76722 16.3153 8.76722C15.3857 8.76722 15.0289 9.45762 15.0289 10.4344Z" fill="white"/>
<path d="M47.3839 52.6041H32.6143C32.521 52.6101 32.4497 52.6899 32.4543 52.7833V57.2225C32.4493 57.3162 32.5206 57.3965 32.6143 57.4025H47.3839C47.4775 57.3965 47.5489 57.3162 47.5439 57.2225V52.7833C47.5485 52.6899 47.4772 52.6101 47.3839 52.6041Z" fill="white"/>
<path d="M47.3839 43.1584H32.6143C32.521 43.1645 32.4497 43.2442 32.4543 43.3376V47.7768C32.4488 47.8707 32.5204 47.9513 32.6143 47.9568H47.3839C47.4778 47.9513 47.5494 47.8707 47.5439 47.7768V43.3376C47.5485 43.2442 47.4772 43.1645 47.3839 43.1584Z" fill="white"/>
<path d="M47.1758 36.4488L40.0862 29.36C40.0383 29.3129 39.9614 29.3129 39.9134 29.36L32.8238 36.4488C32.7889 36.4838 32.7785 36.5364 32.7974 36.582C32.8163 36.6277 32.8608 36.6575 32.9102 36.6576H47.0894C47.1388 36.6575 47.1833 36.6277 47.2022 36.582C47.2211 36.5364 47.2107 36.4838 47.1758 36.4488Z" fill="white"/>
<path d="M53.8319 57.4568L60.9215 50.3672C60.9446 50.3442 60.9576 50.313 60.9576 50.2804C60.9576 50.2478 60.9446 50.2166 60.9215 50.1936L53.8319 43.104C53.7969 43.0691 53.7443 43.0587 53.6987 43.0776C53.653 43.0965 53.6232 43.141 53.6231 43.1904V57.3704C53.6232 57.4198 53.653 57.4643 53.6987 57.4832C53.7443 57.5021 53.7969 57.4917 53.8319 57.4568Z" fill="white"/>
<path d="M32.8239 64.1129L39.9135 71.2001C39.9363 71.2231 39.9675 71.2361 39.9999 71.2361C40.0324 71.2361 40.0635 71.2231 40.0863 71.2001L47.1759 64.1105C47.2114 64.0755 47.2222 64.0226 47.2032 63.9766C47.1842 63.9306 47.1393 63.9007 47.0895 63.9009H32.9103C32.8594 63.8996 32.8131 63.9299 32.7939 63.977C32.7747 64.0241 32.7867 64.0782 32.8239 64.1129Z" fill="white"/>
<path d="M26.1679 43.104L19.0783 50.1936C19.0552 50.2166 19.0422 50.2478 19.0422 50.2804C19.0422 50.313 19.0552 50.3442 19.0783 50.3672L26.1679 57.4568C26.2029 57.4917 26.2554 57.5021 26.3011 57.4832C26.3467 57.4643 26.3765 57.4198 26.3767 57.3704V43.1904C26.3765 43.141 26.3467 43.0965 26.3011 43.0776C26.2554 43.0587 26.2029 43.0691 26.1679 43.104Z" fill="white"/>
</svg>
