<svg width="80" height="80" viewBox="0 0 80 80" fill="none" xmlns="http://www.w3.org/2000/svg">
<rect width="80" height="80" fill="#FD6925"/>
<path fill-rule="evenodd" clip-rule="evenodd" d="M10.7048 6.45837C13.5576 6.45837 14.652 8.26478 14.652 10.7624V18.6088C14.652 21.1296 13.5096 22.9608 10.6576 22.9608C7.66079 22.9608 6.80399 21.296 6.80399 18.9192V18.0624H9.27999V19.132C9.27999 20.1312 9.63519 20.7048 10.6096 20.7048C11.584 20.7048 11.964 20.0152 11.964 19.04V15.5664H11.9408C11.5368 16.3496 10.848 16.8736 9.70639 16.8736C7.75519 16.8736 6.70959 15.5424 6.70959 12.9024V10.524C6.70959 8.02718 7.82479 6.45837 10.7048 6.45837ZM10.6839 14.7088C11.5367 14.7088 11.9167 14.1384 11.9639 13.2352L11.9711 10.2864C11.9711 9.28717 11.6151 8.66957 10.7119 8.66957C9.7831 8.66957 9.4039 9.26397 9.4039 10.2864V13.092C9.4039 14.1384 9.7575 14.7088 10.6839 14.7088Z" fill="white"/>
<path fill-rule="evenodd" clip-rule="evenodd" d="M50.4799 47.0936L59.9903 52.5824C60.1894 52.6968 60.313 52.908 60.3151 53.1376V64.4976C60.3142 64.7288 60.1905 64.942 59.9903 65.0576L50.1559 70.7376C49.955 70.8529 49.708 70.8529 49.5071 70.7376L39.9999 65.2488L30.4911 70.7424C30.2902 70.8577 30.0432 70.8577 29.8423 70.7424L20.0095 65.0624C19.8093 64.9468 19.6856 64.7336 19.6847 64.5024V53.1424C19.6854 52.9112 19.8092 52.6979 20.0095 52.5824L29.5199 47.0936V36.112C29.5195 35.8817 29.6413 35.6686 29.8399 35.552L39.6791 29.8736C39.8798 29.7575 40.1272 29.7575 40.3279 29.8736L50.1599 35.5536C50.3585 35.6702 50.4803 35.8833 50.4799 36.1136V47.0936ZM31.4639 58.8216L39.3503 63.376L39.3511 54.268L31.4639 58.8216ZM48.5342 47.4688L40.6478 52.02V42.9144L48.5342 47.4688ZM31.4647 47.468L39.3511 52.0208V42.9144L31.4647 47.468ZM41.2975 53.1408L49.8319 48.2176L58.3687 53.144L49.8319 58.0728L41.2975 53.1408ZM41.2975 41.7864L49.1831 46.3408V37.2336L41.2975 41.7864ZM38.7031 41.7864L30.8159 46.3408V37.2376L38.7031 41.7864ZM20.9839 64.1248L29.5199 69.052V59.2L20.9839 54.268V64.1248ZM30.8167 69.052V59.9456L38.7039 64.5L30.8167 69.052ZM50.4798 69.052L59.019 64.1248L59.0174 54.2712L50.4798 59.2V69.052Z" fill="white"/>
<path d="M18.8857 6.83044H19.9337V13.0704H18.8857V6.83044Z" fill="white"/>
<path d="M21.2857 9.148V13.068H20.4001V6.828H21.4297L22.5609 10.4056V6.8304H23.4401V13.0704H22.5185L21.2857 9.148Z" fill="white"/>
<path fill-rule="evenodd" clip-rule="evenodd" d="M27.0337 11.392V8.50482C27.0337 7.53922 26.6401 6.83042 25.5201 6.82642H23.8977V13.0664H25.5137C26.6385 13.0664 27.0337 12.352 27.0337 11.392ZM25.9857 11.576C25.9857 11.9536 25.8201 12.2112 25.3873 12.2112H24.9465V7.68641H25.3873C25.8201 7.68641 25.9857 7.94321 25.9857 8.31121V11.576Z" fill="white"/>
<path d="M30.5377 6.83044V11.5504C30.5377 12.516 30.1241 13.1416 29.0569 13.1416C27.9537 13.1416 27.4937 12.516 27.4937 11.5504V6.83044H28.5425V11.6496C28.5425 12.0176 28.6889 12.2664 29.0569 12.2664C29.4249 12.2664 29.5721 12.0176 29.5721 11.6496V6.83044H30.5377Z" fill="white"/>
<path d="M30.9424 11.7232V10.8864H31.92V11.7416C31.92 12.0912 32.076 12.2936 32.4344 12.2936C32.7656 12.2936 32.9144 12.0728 32.9144 11.7416V11.5016C32.9144 11.1432 32.7672 10.9224 32.4456 10.6216L31.8296 10.0048C31.2312 9.41682 30.9552 9.05762 30.9552 8.34082V8.12882C30.9552 7.35682 31.4064 6.75842 32.4272 6.75842C33.4752 6.75842 33.8896 7.27362 33.8896 8.17522V8.68082H32.9296V8.13842C32.9296 7.77922 32.764 7.60482 32.4328 7.60482C32.1384 7.60482 31.9368 7.77042 31.9368 8.12002V8.24882C31.9368 8.59842 32.1296 8.80082 32.4328 9.09442L33.1048 9.75682C33.6744 10.336 33.9504 10.6856 33.9504 11.3752V11.68C33.9504 12.5352 33.4904 13.1424 32.424 13.1424C31.3576 13.1424 30.9424 12.5416 30.9424 11.7232Z" fill="white"/>
<path d="M34.0145 6.83044H36.8001V7.68644H35.9361V13.0664H34.8801V7.68644H34.0161L34.0145 6.83044Z" fill="white"/>
<path fill-rule="evenodd" clip-rule="evenodd" d="M38.1985 13.0664V10.2056L39.1825 13.0624H40.2865L39.2841 10.2296C39.8809 10.0912 40.1209 9.69602 40.1209 9.02482V8.22482C40.1209 7.35122 39.7345 6.82642 38.6769 6.82642H37.1505V13.0664H38.1985ZM38.1984 9.62642V7.68641H38.548C38.9032 7.68641 39.0632 7.85121 39.0632 8.19201V9.11121C39.0632 9.44242 38.9064 9.62642 38.548 9.62642H38.1984Z" fill="white"/>
<path d="M42.3649 10.6936V13.0664H41.3161V10.6936L40.1481 6.83044H41.2425L41.8777 9.19444H41.8865L42.5209 6.83044H43.5201L42.3649 10.6936Z" fill="white"/>
<path d="M44.4248 12.1464L43.8912 13.5536H43.3032L43.4312 12.064H44.4248V12.1464Z" fill="white"/>
<path d="M45.7129 6.83044H46.7609V13.0704H45.7129V6.83044Z" fill="white"/>
<path d="M48.1129 9.148V13.068H47.2328V6.828H48.2633L49.3945 10.4056V6.8304H50.2681V13.0704H49.3481L48.1129 9.148Z" fill="white"/>
<path d="M51.6073 9.148V13.068H50.7273V6.828H51.7569L52.8881 10.4056V6.8304H53.7601V13.0704H52.8401L51.6073 9.148Z" fill="white"/>
<path fill-rule="evenodd" clip-rule="evenodd" d="M54.2191 8.44001V11.4568C54.2191 12.4224 54.6895 13.1368 55.8007 13.1368C56.9119 13.1368 57.3919 12.4224 57.3919 11.4568V8.44001C57.3919 7.46881 56.9023 6.76001 55.8007 6.76001C54.6991 6.76001 54.2191 7.46561 54.2191 8.44001ZM56.344 8.27441V11.6224C56.344 12 56.168 12.2664 55.8008 12.2664C55.4336 12.2664 55.268 11.9992 55.268 11.6224V8.27441C55.268 7.90081 55.4232 7.63441 55.8008 7.63441C56.1784 7.63441 56.344 7.89761 56.344 8.27441Z" fill="white"/>
<path d="M61.2089 6.83044L60.0225 13.0704H58.8801L57.6945 6.83044H58.7609L59.4809 11.1808H59.4897L60.2257 6.83044H61.2089Z" fill="white"/>
<path fill-rule="evenodd" clip-rule="evenodd" d="M62.0569 6.82642L60.8801 13.0664H61.8713L62.0545 11.9256H63.1665L63.3601 13.0664H64.4433L63.2569 6.82642H62.0569ZM63.0322 11.0888H62.1954L62.609 8.58722H62.6186L63.0322 11.0888Z" fill="white"/>
<path d="M64.152 6.83044H66.9384V7.68644H66.0736V13.0664H65.016V7.68644H64.152V6.83044Z" fill="white"/>
<path d="M67.2882 6.83044H68.3362V13.0704H67.2882V6.83044Z" fill="white"/>
<path fill-rule="evenodd" clip-rule="evenodd" d="M68.8049 8.44001V11.4568C68.8049 12.4224 69.2769 13.1368 70.3873 13.1368C71.4977 13.1368 71.9777 12.4224 71.9777 11.4568V8.44001C71.9777 7.46881 71.4897 6.76001 70.3873 6.76001C69.2849 6.76001 68.8049 7.46561 68.8049 8.44001ZM70.9297 8.27441V11.6224C70.9297 12 70.7553 12.2664 70.3873 12.2664C70.0193 12.2664 69.8537 11.9992 69.8537 11.6224V8.27441C69.8537 7.90081 70.0105 7.63441 70.3873 7.63441C70.7641 7.63441 70.9297 7.89761 70.9297 8.27441Z" fill="white"/>
<path d="M73.3208 9.148V13.068H72.4408V6.828H73.4712L74.6024 10.4056V6.8304H75.476V13.0704H74.556L73.3208 9.148Z" fill="white"/>
<path fill-rule="evenodd" clip-rule="evenodd" d="M19.8967 16.44L18.7199 22.6752H19.7087L19.8927 21.5352H21.0071L21.1999 22.6752H22.2743L21.0879 16.44H19.8967ZM20.8718 20.6984H20.0342L20.4486 18.1968H20.4574L20.8718 20.6984Z" fill="white"/>
<path d="M23.5438 18.7576V22.6776H22.6638V16.44H23.6942L24.8254 20.0176V16.44H25.6958V22.6752H24.7758L23.5438 18.7576Z" fill="white"/>
<path fill-rule="evenodd" clip-rule="evenodd" d="M29.384 21.0016V18.1136C29.384 17.148 28.988 16.44 27.8664 16.44H26.248V22.6752H27.864C28.988 22.6752 29.384 21.9616 29.384 21.0016ZM28.3351 21.1856C28.3351 21.5624 28.1695 21.82 27.7375 21.82L27.2959 21.8192V17.2944H27.7375C28.1695 17.2944 28.3351 17.552 28.3351 17.92V21.1856Z" fill="white"/>
<path d="M30.8551 16.44H31.9039V22.6752H30.8551V16.44Z" fill="white"/>
<path d="M33.3471 18.7576V22.6776H32.4671V16.44H33.4967L34.6279 20.0176V16.44H35.5015V22.6752H34.5799L33.3471 18.7576Z" fill="white"/>
<path d="M36.0511 16.44H38.5071V17.2952H37.0999V19.08H38.1479V19.9256H37.0999V22.6752H36.0511V16.44Z" fill="white"/>
<path fill-rule="evenodd" clip-rule="evenodd" d="M39.9687 22.6752V19.8152L40.9527 22.6752H42.0567L41.0543 19.8432C41.6511 19.7048 41.8911 19.3096 41.8911 18.6384V17.8384C41.8911 16.964 41.5047 16.44 40.4471 16.44H38.9207V22.6752H39.9687ZM39.9687 19.236V17.2952H40.3199C40.6751 17.2952 40.8351 17.4608 40.8351 17.8016V18.7208C40.8351 19.052 40.6783 19.236 40.3199 19.236H39.9687Z" fill="white"/>
<path fill-rule="evenodd" clip-rule="evenodd" d="M43.4272 16.44L42.2496 22.6752H43.2432L43.4272 21.5352H44.54L44.7328 22.6752H45.8088L44.6224 16.44H43.4272ZM44.4001 20.6984H43.5649L43.9777 18.1968H43.9865L44.4001 20.6984Z" fill="white"/>
<path d="M46.048 21.3328V20.496H47.0232V21.3512C47.0232 21.7008 47.1832 21.9032 47.5376 21.9032C47.8688 21.9032 48.0176 21.6824 48.0176 21.3512V21.1112C48.0176 20.7528 47.8704 20.532 47.5488 20.2312L46.9328 19.6144C46.3352 19.0264 46.0592 18.6672 46.0592 17.9496V17.7384C46.0592 16.9656 46.5096 16.368 47.5304 16.368C48.5784 16.368 48.9928 16.8832 48.9928 17.7848V18.2904H48.0328V17.748C48.0328 17.3888 47.8672 17.2144 47.536 17.2144C47.2416 17.2144 47.04 17.38 47.04 17.7296V17.8584C47.04 18.2072 47.2328 18.4096 47.536 18.704L48.208 19.3664C48.7776 19.9456 49.0536 20.2952 49.0536 20.9848V21.2888C49.0536 22.144 48.5936 22.7504 47.5272 22.7504C46.4608 22.7504 46.048 22.1512 46.048 21.3328Z" fill="white"/>
<path d="M49.304 16.44H52.0904V17.2952H51.2256V22.6752H50.168V17.2952H49.304V16.44Z" fill="white"/>
<path fill-rule="evenodd" clip-rule="evenodd" d="M53.5798 22.6752V19.8152L54.5598 22.6752H55.6638L54.6614 19.8432C55.2582 19.7048 55.4982 19.3096 55.4982 18.6384V17.8384C55.4982 16.964 55.1158 16.44 54.0582 16.44H52.5318V22.6752H53.5798ZM53.5798 19.236V17.2952H53.9294C54.2846 17.2952 54.4446 17.4608 54.4446 17.8016V18.7208C54.4446 19.052 54.2878 19.236 53.9294 19.236H53.5798Z" fill="white"/>
<path d="M59.0703 16.44V21.16C59.0703 22.1256 58.6567 22.7504 57.5895 22.7504C56.4862 22.7504 56.0262 22.1256 56.0262 21.16V16.44H57.0751V21.2592C57.0751 21.6272 57.2223 21.8752 57.5895 21.8752C57.9567 21.8752 58.1047 21.6272 58.1047 21.2592V16.44H59.0703Z" fill="white"/>
<path d="M59.6224 21.0664V18.0496C59.6224 17.0744 60.0824 16.3696 61.1856 16.3696C62.3448 16.3696 62.6664 17.0096 62.6664 17.9328V18.6688H61.7064V17.8472C61.7064 17.4608 61.5776 17.24 61.2 17.24C60.8224 17.24 60.6672 17.5072 60.6672 17.884V21.232C60.6672 21.6088 60.8272 21.872 61.2 21.872C61.5728 21.872 61.7064 21.632 61.7064 21.2656V20.1192H62.6664V21.1952C62.6664 22.0872 62.2984 22.7488 61.1856 22.7488C60.0728 22.7488 59.6224 22.032 59.6224 21.0664Z" fill="white"/>
<path d="M62.8414 16.44H65.6278V17.2952H64.763V22.6752H63.7054V17.2952H62.8414L62.8414 16.44Z" fill="white"/>
<path d="M69.1135 16.44V21.16C69.1135 22.1256 68.6999 22.7504 67.6327 22.7504C66.5287 22.7504 66.0695 22.1256 66.0695 21.16V16.44H67.1199V21.2592C67.1199 21.6272 67.2671 21.8752 67.6351 21.8752C68.0031 21.8752 68.1503 21.6272 68.1503 21.2592V16.44H69.1135Z" fill="white"/>
<path fill-rule="evenodd" clip-rule="evenodd" d="M70.7136 22.6752V19.8152L71.696 22.6752H72.8L71.7992 19.8432C72.396 19.7048 72.636 19.3096 72.636 18.6384V17.8384C72.636 16.964 72.2496 16.44 71.192 16.44H69.6656V22.6752H70.7136ZM70.7135 19.236V17.2952H71.0631C71.4183 17.2952 71.5783 17.4608 71.5783 17.8016V18.7208C71.5783 19.052 71.4215 19.236 71.0631 19.236H70.7135Z" fill="white"/>
<path d="M73.16 16.44H75.6616V17.2952H74.2088V19.08H75.2488V19.9256H74.2088V21.82H75.6616V22.6752H73.16V16.44Z" fill="white"/>
</svg>
