<svg width="80" height="80" viewBox="0 0 80 80" fill="none" xmlns="http://www.w3.org/2000/svg">
<rect width="80" height="80" fill="#E5243B"/>
<path d="M23.9304 9.05522V13.1648H23.004V6.62402H24.0832L25.2712 10.3776V6.62402H26.188V13.1648H25.2232L23.9304 9.05522Z" fill="white"/>
<path fill-rule="evenodd" clip-rule="evenodd" d="M30.2384 11.4768C30.2384 12.4904 29.7384 13.2432 28.5696 13.2432C27.412 13.2432 26.9104 12.4904 26.9104 11.4768V8.31278C26.9104 7.28878 27.4008 6.54718 28.5696 6.54718C29.7384 6.54718 30.2384 7.28878 30.2384 8.31278V11.4768ZM28.5696 7.46398C28.1832 7.46398 28.0096 7.73838 28.0096 8.13838V11.6504C28.0096 12.0464 28.1744 12.3256 28.5696 12.3256C28.9648 12.3256 29.1392 12.0504 29.1392 11.6504V8.13838C29.1392 7.74238 28.956 7.46398 28.5696 7.46398Z" fill="white"/>
<path fill-rule="evenodd" clip-rule="evenodd" d="M24.6336 20.6112H24.104V22.8344H23.004V16.2928H24.6336C25.744 16.2928 26.1488 16.8432 26.1488 17.76V19.1352C26.1488 20.0512 25.744 20.6112 24.6336 20.6112ZM24.5088 17.1864H24.104V19.7624H24.5088C24.8888 19.7624 25.0488 19.5792 25.0488 19.2208V17.7168C25.0488 17.3608 24.8856 17.1864 24.5088 17.1864Z" fill="white"/>
<path fill-rule="evenodd" clip-rule="evenodd" d="M30.1336 21.1424C30.1336 22.1552 29.6328 22.9072 28.464 22.9072C27.3064 22.9072 26.8048 22.1552 26.8048 21.1424V17.9768C26.8048 16.9544 27.2952 16.212 28.464 16.212C29.6328 16.212 30.1336 16.9544 30.1336 17.9768V21.1424ZM28.464 17.1288C28.0768 17.1288 27.904 17.404 27.904 17.804V21.3152C27.904 21.7112 28.068 21.9912 28.464 21.9912C28.86 21.9912 29.0344 21.7112 29.0344 21.3152V17.804C29.0344 17.408 28.8512 17.1288 28.464 17.1288Z" fill="white"/>
<path d="M32.94 22.8304L34.1848 16.2888H33.152L32.38 20.852H32.3696L31.6176 16.2888H30.4984L31.7432 22.8304H32.94Z" fill="white"/>
<path d="M37.3584 21.9336H35.8344V19.9448H36.924V19.0576H35.8344V17.1864H37.3584V16.2888H34.7344V22.8304H37.3584V21.9336Z" fill="white"/>
<path fill-rule="evenodd" clip-rule="evenodd" d="M40.1648 22.8304L39.1328 19.8296L39.1368 22.8344H38.036V16.2928H39.636C40.7456 16.2928 41.1512 16.8432 41.1512 17.76V18.5944C41.1512 19.2984 40.8984 19.7144 40.2712 19.8584L41.3232 22.8304H40.1648ZM39.4984 17.1896H39.1328V19.22H39.4984C39.8752 19.22 40.0392 19.028 40.0392 18.68V17.72C40.0392 17.364 39.8752 17.1896 39.4984 17.1896Z" fill="white"/>
<path d="M42.5184 22.8304H43.628V17.1864H44.5352V16.2888H41.6112V17.1864H42.5184V22.8304Z" fill="white"/>
<path d="M46.1832 22.8304H47.2832V20.3416L48.4984 16.2888H47.4472L46.7824 18.768H46.7728L46.1064 16.2888H44.9592L46.1832 20.3416V22.8304Z" fill="white"/>
<path d="M11.1696 10.5216H11.1936V22.8688H13.9048V6.7384H11.7392L9.2424 9.6648V12.4952H9.2664L11.1696 10.5216Z" fill="white"/>
<path d="M61.6104 38.1672C61.6112 36.9452 62.6022 35.9551 63.8242 35.9552C65.0462 35.9553 66.037 36.9457 66.0376 38.1677C66.0382 39.3898 65.0484 40.3811 63.8264 40.3824C62.6028 40.3824 61.6108 39.3908 61.6104 38.1672Z" fill="white"/>
<path d="M66.412 41.236C67.9315 41.3762 69.0935 42.6517 69.092 44.1776V50.32C69.092 50.7941 68.7077 51.1784 68.2336 51.1784C67.7595 51.1784 67.3752 50.7941 67.3752 50.32V45.044C67.3752 44.8456 67.3184 44.5784 66.9568 44.5784C66.7064 44.5784 66.6544 44.8432 66.6456 45.012V60.8152C66.6456 61.4969 66.093 62.0496 65.4112 62.0496C64.7295 62.0496 64.1768 61.4969 64.1768 60.8152V51.7088C64.1768 51.608 64.14 51.3472 63.8264 51.3472C63.512 51.3472 63.4736 51.608 63.4704 51.7088V60.8152C63.4818 61.2633 63.2493 61.6823 62.8631 61.9097C62.4768 62.1371 61.9976 62.1371 61.6114 61.9097C61.2251 61.6823 60.9926 61.2633 61.004 60.8152V45.012C60.996 44.8432 60.9416 44.5784 60.6936 44.5784C60.3304 44.5784 60.2752 44.8456 60.2752 45.044V50.32C60.2554 50.7793 59.8773 51.1414 59.4176 51.1414C58.9579 51.1414 58.5798 50.7793 58.56 50.32V44.1776C58.5595 42.6506 59.7233 41.375 61.244 41.236C61.297 41.228 61.3504 41.2234 61.404 41.2224H66.24C66.2965 41.2233 66.3529 41.2278 66.4088 41.236" fill="white"/>
<path d="M48.44 39.3304C48.4397 38.4823 47.9284 37.7179 47.1447 37.3937C46.361 37.0695 45.4591 37.2493 44.8597 37.8494C44.2603 38.4495 44.0815 39.3516 44.4066 40.1349C44.7316 40.9183 45.4967 41.4287 46.3448 41.428C47.5025 41.4271 48.4405 40.4881 48.44 39.3304Z" fill="white"/>
<path d="M42.1184 44.08L40.3752 49.76C40.3752 49.76 40.0648 50.8 40.9472 51.06C41.8296 51.32 42.092 50.3048 42.092 50.3048L43.4976 45.568C43.4976 45.568 43.5776 45.2032 43.848 45.2824C44.1184 45.3616 44.0192 45.7504 44.0192 45.7504L41.5728 54.6304H43.848V60.988C43.864 61.5798 44.3484 62.0513 44.9404 62.0513C45.5324 62.0513 46.0168 61.5798 46.0328 60.988V54.6232H46.6536V60.9808C46.6696 61.5731 47.1544 62.0448 47.7468 62.0448C48.3393 62.0448 48.824 61.5731 48.84 60.9808V54.6232H51.1144L48.6696 45.7432C48.6696 45.7432 48.5664 45.36 48.84 45.28C49.1136 45.2 49.1904 45.5656 49.1904 45.5656L50.596 50.3024C50.596 50.3024 50.8632 51.3176 51.74 51.0576C52.6168 50.7976 52.312 49.76 52.312 49.76L50.5688 44.08C50.5688 44.08 49.9464 42.4392 48.5688 42.4392H44.1224C42.7432 42.4392 42.1224 44.08 42.1224 44.08" fill="white"/>
<path d="M35.8792 39.3304C35.8787 38.1723 34.9396 37.2339 33.7816 37.2344C32.6235 37.2348 31.6851 38.1739 31.6856 39.332C31.686 40.49 32.6251 41.4284 33.7832 41.428C34.941 41.4271 35.8792 40.4882 35.8792 39.3304Z" fill="white"/>
<path d="M29.5568 44.08L27.8144 49.76C27.8144 49.76 27.5024 50.8 28.3856 51.06C29.2688 51.32 29.5304 50.3048 29.5304 50.3048L30.936 45.568C30.936 45.568 31.012 45.2032 31.2864 45.2824C31.5608 45.3616 31.4568 45.7504 31.4568 45.7504L29.0112 54.6304H31.2864V60.988C31.2864 61.5915 31.7756 62.0808 32.3792 62.0808C32.9827 62.0808 33.472 61.5915 33.472 60.988V54.6232H34.0928V60.9808C34.1088 61.5726 34.5932 62.044 35.1852 62.044C35.7772 62.044 36.2616 61.5726 36.2776 60.9808V54.6232H38.5536L36.1088 45.7432C36.1088 45.7432 36.0048 45.3536 36.2776 45.2752C36.5504 45.1968 36.6288 45.5608 36.6288 45.5608L38.0336 50.2976C38.0336 50.2976 38.3008 51.3128 39.1784 51.0528C40.056 50.7928 39.7496 49.76 39.7496 49.76L38.0064 44.08C38.0064 44.08 37.3848 42.4392 36.0064 42.4392H31.5608C30.1824 42.4392 29.5568 44.08 29.5568 44.08Z" fill="white"/>
<path d="M55.4832 51.068C56.4471 51.068 57.2285 50.2868 57.2288 49.3229C57.2291 48.3591 56.4481 47.5774 55.4843 47.5768C54.5204 47.5762 53.7385 48.3569 53.7376 49.3208C53.7368 49.7841 53.9204 50.2288 54.2479 50.5566C54.5754 50.8844 55.0198 51.0684 55.4832 51.068Z" fill="white"/>
<path d="M51.2984 56.4904C51.2128 56.6944 51.1432 57.1304 51.5528 57.316C52.0328 57.5368 52.3008 57.076 52.3008 57.076L53.2496 54.0496C53.2496 54.0496 53.4144 53.8472 53.4144 54.0568V61.1808H53.4184C53.4329 61.665 53.8296 62.05 54.314 62.05C54.7984 62.05 55.1951 61.665 55.2096 61.1808V58.3656C55.2096 58.3656 55.1576 57.9656 55.4784 57.9656C55.7992 57.9656 55.7488 58.3656 55.7488 58.3656V61.1776C55.7488 61.6733 56.1507 62.0752 56.6464 62.0752C57.1421 62.0752 57.544 61.6733 57.544 61.1776V54.0536C57.544 53.844 57.6544 53.9936 57.6544 53.9936L58.3984 56.0656C58.3984 56.0656 58.7184 56.9912 58.8208 57.032C58.9829 57.0995 59.1652 57.0997 59.3274 57.0326C59.4897 56.9656 59.6186 56.8367 59.6856 56.6744C59.7763 56.4635 59.7496 56.2205 59.6152 56.0344L59.6216 56.028C59.6 55.9608 58.5096 53.2872 58.3816 52.912C57.988 51.7624 57.2712 51.7728 56.5816 51.7536C55.892 51.7344 55.4784 51.7536 55.4784 51.7536C55.4784 51.7536 55.0376 51.736 54.1264 51.7624C53.2152 51.7888 52.9264 52.2576 51.9256 54.8392C51.7824 55.2112 51.2984 56.4136 51.292 56.4856L51.2984 56.4904Z" fill="white"/>
<path d="M14.9328 40.3824C15.829 40.3833 16.6375 39.8442 16.9811 39.0165C17.3247 38.1889 17.1358 37.2357 16.5024 36.6016C15.8691 35.9676 14.9161 35.7776 14.088 36.1204C13.26 36.4631 12.72 37.271 12.72 38.1672C12.7213 39.3891 13.7109 40.3797 14.9328 40.3824Z" fill="white"/>
<path d="M17.5376 41.2248C17.479 41.2128 17.4197 41.2045 17.36 41.2H12.52C12.4661 41.2043 12.4126 41.2125 12.36 41.2248C10.8382 41.3693 9.67686 42.6489 9.68 44.1776V50.32C9.67787 50.6359 9.85056 50.9271 10.1288 51.0768C10.1161 51.1005 10.1065 51.1258 10.1 51.152L8.132 61.576C8.1147 61.6605 8.1323 61.7485 8.18081 61.8199C8.22931 61.8913 8.30461 61.9401 8.3896 61.9552C8.40936 61.959 8.42946 61.9609 8.4496 61.9608C8.60626 61.9615 8.74098 61.85 8.7696 61.696L10.736 51.272C10.7397 51.2313 10.7357 51.1903 10.724 51.1512C11.1017 51.0531 11.3641 50.7102 11.36 50.32V45.044C11.36 44.8456 11.412 44.5784 11.7736 44.5784C12.0232 44.5784 12.08 44.8432 12.08 45.012V60.8152C12.08 61.5 12.6352 62.0552 13.32 62.0552C14.0048 62.0552 14.56 61.5 14.56 60.8152V51.7088C14.5583 51.6115 14.5979 51.518 14.6689 51.4516C14.74 51.3851 14.8358 51.3518 14.9328 51.36C15.2472 51.36 15.2792 51.608 15.2792 51.7088V60.8152C15.2792 61.5 15.8344 62.0552 16.5192 62.0552C17.204 62.0552 17.7592 61.5 17.7592 60.8152V45.012C17.7592 44.8432 17.8184 44.5784 18.0656 44.5784C18.4296 44.5784 18.4792 44.8456 18.4792 45.044V50.32C18.4792 50.806 18.8732 51.2 19.3592 51.2C19.8452 51.2 20.2392 50.806 20.2392 50.32V44.1776C20.2319 42.645 19.0634 41.3679 17.5376 41.2248Z" fill="white"/>
<path d="M26.0928 53.9528L27.7128 51.0128C27.7128 51.0128 27.908 50.5904 27.908 50.4896C27.9035 50.2078 27.7151 49.9621 27.4441 49.8846C27.1731 49.8071 26.8833 49.916 26.7304 50.1528H26.7232C26.672 50.1968 25.8568 51.6432 25.588 51.9128C25.304 52.2 25.0488 52.164 25.0488 52.164H22.9336C22.9336 52.164 22.6776 52.2 22.3944 51.9128C22.1224 51.644 21.3112 50.1952 21.2592 50.1528L21.2536 50.1576C21.1001 49.9252 20.8139 49.8188 20.5458 49.8945C20.2778 49.9701 20.0894 50.2104 20.08 50.4888C20.0891 50.5841 20.1101 50.6779 20.1424 50.768L21.8984 53.9528C21.9586 54.0852 21.9936 54.2276 22.0016 54.3728V55L21.08 58.4H22V61.2H22.012C22.0168 61.6799 22.4073 62.0664 22.8872 62.0664C23.3642 62.0708 23.7547 61.6882 23.76 61.2112V58.5128C23.7344 58.4812 23.7233 58.4402 23.7296 58.4H24.2496C24.2544 58.4378 24.2511 58.4763 24.24 58.5128V61.2112C24.24 61.6972 24.634 62.0912 25.12 62.0912C25.606 62.0912 26 61.6972 26 61.2112V58.4H26.9032L26 54.98V54.3728C26.0069 54.2285 26.0383 54.0865 26.0928 53.9528Z" fill="white"/>
<path d="M23.9904 51.068C24.9544 51.0684 25.7362 50.2874 25.7368 49.3234C25.7374 48.3595 24.9565 47.5775 23.9925 47.5768C23.0286 47.576 22.2465 48.3568 22.2456 49.3208C22.2447 49.784 22.4282 50.2285 22.7556 50.5563C23.0829 50.8841 23.5272 51.0682 23.9904 51.068Z" fill="white"/>
</svg>
