<svg width="24" height="25" viewBox="0 0 24 25" fill="none" xmlns="http://www.w3.org/2000/svg">
<path fill-rule="evenodd" clip-rule="evenodd" d="M17.3417 4.53027C17.3161 4.50218 17.2798 4.48632 17.2418 4.48669H6.185C6.14702 4.48526 6.11046 4.50124 6.08571 4.53008C6.06097 4.55893 6.05073 4.59748 6.05791 4.63481L7.91696 15.8692C7.92748 15.9315 7.98123 15.9771 8.04435 15.9774H10.3243L10.4803 17.806H9.52092L11.7533 20.0381L13.9909 17.8008H13.0318L13.186 15.9783H15.5061C15.5701 15.9786 15.6244 15.9314 15.6329 15.868L17.3701 4.63572C17.3762 4.59813 17.3658 4.55974 17.3417 4.53027ZM13.0684 13.5241C12.7101 13.8516 12.2333 14.0179 11.7491 13.9843C11.2643 14.0182 10.7869 13.8519 10.4282 13.5241C9.59987 12.6967 9.89549 11.6672 10.1844 11.1351C10.3624 10.802 11.6351 8.89081 11.7448 8.72746V8.71466L11.7497 8.72076L11.7539 8.71466V8.72746C11.7696 8.75139 11.8106 8.81311 11.8696 8.90204C12.2118 9.41783 13.1616 10.8491 13.3134 11.1351C13.6014 11.6672 13.8961 12.6967 13.0684 13.5241ZM15.5317 6.95709C15.8962 6.80958 16.2763 6.76204 16.5758 6.894L16.8888 4.974H6.54185L6.97736 7.20669C7.7164 7.21237 8.32845 6.99222 8.98124 6.75743L9.01927 6.74375C9.77592 6.47111 10.445 6.74147 11.1173 7.01319C11.3379 7.1023 11.5587 7.19155 11.7832 7.26185C13.2259 7.7132 14.1603 7.51328 15.5317 6.95709Z" fill="#44546F"/>
</svg>
