<svg width="24" height="25" viewBox="0 0 24 25" fill="none" xmlns="http://www.w3.org/2000/svg">
<path fill-rule="evenodd" clip-rule="evenodd" d="M14.3072 4.49802H18.0067V4.49891C18.0193 4.49883 18.0315 4.50377 18.0404 4.51265C18.0494 4.52152 18.0545 4.53361 18.0546 4.54624V8.24395C18.0543 8.27014 18.0329 8.29115 18.0067 8.29098H16.7776C16.7514 8.29115 16.73 8.27014 16.7297 8.24395V6.8681L15.1169 8.48179C15.6934 9.29662 16.0027 10.2704 16.0018 11.2686C16.0018 13.6726 14.2423 15.6721 11.9433 16.0493V17.4888H13.402C13.4143 17.4888 13.4262 17.4937 13.435 17.5025C13.4438 17.5113 13.4487 17.5232 13.4487 17.5356V18.8534C13.4488 18.8658 13.4439 18.8778 13.4351 18.8866C13.4263 18.8954 13.4144 18.9004 13.402 18.9004H11.9433V20.2932C11.9433 20.3058 11.9382 20.3178 11.9293 20.3266C11.9203 20.3354 11.9083 20.3403 11.8957 20.3402H10.5788C10.5663 20.3403 10.5543 20.3354 10.5455 20.3266C10.5366 20.3177 10.5317 20.3057 10.5318 20.2932V18.9016H9.07317C9.06057 18.9018 9.04841 18.897 9.03944 18.8881C9.03047 18.8793 9.02546 18.8672 9.02554 18.8546V17.5367C9.02554 17.5242 9.03059 17.5122 9.03955 17.5034C9.0485 17.4946 9.06062 17.4898 9.07317 17.49H10.5318V16.0734C8.15455 15.7647 6.31165 13.7298 6.31165 11.2698C6.31165 8.59729 8.48556 6.42427 11.1572 6.42427C12.2409 6.4235 13.2933 6.78802 14.1444 7.45898L15.7801 5.82177H14.3072C14.2812 5.82161 14.2601 5.80047 14.2601 5.77444V4.54535C14.2603 4.51939 14.2812 4.49834 14.3072 4.49802ZM7.59045 11.2686C7.59045 13.2385 9.18734 14.8354 11.1572 14.8354C13.1262 14.8334 14.722 13.2377 14.7239 11.2686C14.7239 9.29877 13.127 7.70189 11.1572 7.70189C9.18734 7.70189 7.59045 9.29877 7.59045 11.2686Z" fill="#44546F"/>
<path d="M13.3719 9.80463H9.04578C9.02123 9.80361 9.00034 9.82238 8.99875 9.8469V10.8941C8.99921 10.9061 9.00445 10.9173 9.01329 10.9254C9.02213 10.9335 9.03384 10.9376 9.04578 10.937H13.3719C13.384 10.9378 13.3958 10.9337 13.4049 10.9256C13.4139 10.9176 13.4193 10.9062 13.4198 10.8941V9.8469C13.4181 9.82209 13.3967 9.80327 13.3719 9.80463Z" fill="#44546F"/>
<path d="M13.3719 11.6747H9.04578C9.0208 11.674 8.99988 11.6934 8.99875 11.7184V12.7656C8.99936 12.7775 9.00467 12.7886 9.01349 12.7965C9.02232 12.8045 9.03393 12.8086 9.04578 12.8079H13.3719C13.3839 12.8087 13.3957 12.8047 13.4047 12.7968C13.4137 12.7888 13.4191 12.7776 13.4198 12.7656V11.7184C13.4185 11.6932 13.3971 11.6736 13.3719 11.6747Z" fill="#44546F"/>
</svg>
