<svg width="24" height="25" viewBox="0 0 24 25" fill="none" xmlns="http://www.w3.org/2000/svg">
<path d="M9.33666 19.5459V20.0198C9.33574 20.0232 9.33518 20.0267 9.33497 20.0302C9.33515 20.034 9.33572 20.0377 9.33666 20.0414C9.34163 20.1589 9.43731 20.2522 9.55493 20.2542C9.55493 20.2542 9.55763 20.2542 9.55931 20.2542H9.5647H15.1226C15.1226 20.2542 15.1256 20.2542 15.1273 20.2542H15.1324C15.2536 20.2519 15.3508 20.1532 15.3513 20.0319C15.3511 20.0314 15.3511 20.0308 15.3513 20.0302V19.4926C18.4792 18.4673 20.8226 15.9322 21.338 12.8427C21.338 12.836 21.34 12.8299 21.341 12.8242C21.3429 12.8139 21.3439 12.8036 21.3441 12.7932C21.3442 12.7336 21.3205 12.6764 21.2784 12.6342C21.2362 12.5921 21.179 12.5684 21.1194 12.5685H3.40891C3.34921 12.5683 3.29189 12.5919 3.24961 12.6341C3.20733 12.6762 3.18356 12.7335 3.18356 12.7932L3.19535 12.8942C3.73666 16.0131 6.14407 18.5623 9.33666 19.5459Z" fill="#44546F"/>
<path d="M15.3449 5.01044C15.2718 5.11419 13.5596 7.57752 15.383 9.56927C16.2187 10.4835 16.1463 11.2899 15.9078 11.8345H17.0766C17.3124 11.0305 17.2154 10.0216 16.2682 8.98484C14.9255 7.51689 16.2854 5.53322 16.3059 5.50257C16.4663 5.27621 16.3804 4.98451 16.1163 4.84842C15.8522 4.71234 15.5076 4.78543 15.3466 5.01044" fill="#44546F"/>
<path d="M12.3847 11.8345H13.5539C13.7897 11.0302 13.6924 10.0217 12.7435 8.98486C11.4002 7.5169 12.759 5.53391 12.7805 5.50157C12.9399 5.27622 12.8556 4.98486 12.5906 4.84844C12.3255 4.71201 11.9822 4.78511 11.8219 5.01046C11.7485 5.11387 10.0366 7.57753 11.8599 9.56928C12.6956 10.4835 12.6226 11.2902 12.3847 11.8345Z" fill="#44546F"/>
<path d="M8.29818 5.01046C8.22407 5.11421 6.51292 7.57753 8.33591 9.56928C9.17195 10.4838 9.09953 11.2902 8.86138 11.8345H10.0302C10.266 11.0308 10.169 10.022 9.21911 8.98486C7.87612 7.5169 9.23595 5.53324 9.25751 5.50191C9.41616 5.27623 9.33161 4.98452 9.06652 4.84844C8.80142 4.71235 8.45852 4.78511 8.29818 5.01046Z" fill="#44546F"/>
</svg>
