<svg width="24" height="25" viewBox="0 0 24 25" fill="none" xmlns="http://www.w3.org/2000/svg">
<path fill-rule="evenodd" clip-rule="evenodd" d="M14.342 11.8585C18.1813 11.8585 20.9199 15.3489 21.3436 15.9215V15.9205C21.3538 15.9331 21.3624 15.9452 21.3701 15.956L21.3729 15.9599C21.3787 15.9731 21.3818 15.9873 21.382 16.0017C21.3817 16.0162 21.3786 16.0305 21.3729 16.0438C21.3668 16.0511 21.3602 16.0602 21.3526 16.0706C21.3498 16.0745 21.3468 16.0786 21.3436 16.0829C20.9195 16.6545 18.182 20.1455 14.342 20.1455C11.0083 20.1455 7.44181 17.1217 7.44181 17.1217C7.44181 17.1217 6.09714 19.872 3.34817 20.128C3.33879 20.1302 3.32916 20.1311 3.31954 20.1307L3.2899 20.133C3.23324 20.129 3.18923 20.0821 3.18885 20.0253C3.18901 20.0048 3.19484 19.9847 3.20569 19.9673L3.2296 19.9303C3.57958 19.3465 4.48636 17.6738 4.48636 16.0017C4.48636 14.336 3.58497 12.6669 3.23162 12.0825C3.21134 12.0517 3.19684 12.0175 3.18885 11.9815C3.18245 11.932 3.236 11.8764 3.29327 11.873H3.31045C3.31942 11.873 3.32849 11.874 3.33733 11.8749C3.34573 11.8758 3.35393 11.8767 3.36165 11.8767C6.10219 12.1401 7.44181 14.882 7.44181 14.882C7.44181 14.882 11.0073 11.8585 14.342 11.8585ZM15.358 15.3225C15.3576 15.941 15.8585 16.4429 16.477 16.4436C16.7743 16.4438 17.0596 16.3258 17.27 16.1156C17.4803 15.9055 17.5986 15.6203 17.5987 15.3229C17.5985 14.7044 17.0971 14.2031 16.4785 14.2029C15.86 14.2028 15.3584 14.704 15.358 15.3225Z" fill="#44546F"/>
<path d="M3.27549 5.2958C3.26858 5.29357 3.26148 5.29199 3.25427 5.29108C3.22488 5.29126 3.19676 5.30311 3.17611 5.32402C3.15545 5.34493 3.14394 5.37319 3.14412 5.40258V6.16586C3.14356 6.19551 3.15512 6.2241 3.17612 6.24502C5.02876 7.85513 6.78404 6.34607 7.19027 5.94759C7.19785 5.93549 7.20768 5.92497 7.21924 5.9166C7.23722 5.90424 7.25839 5.89733 7.28021 5.89673C7.30793 5.89657 7.33462 5.9072 7.35465 5.92637C7.3561 5.92829 7.35794 5.9299 7.36004 5.93108C9.45351 7.92856 11.6484 6.3107 12.1051 5.93108L12.1499 5.88999C12.1631 5.88414 12.1773 5.88127 12.1917 5.88157C12.2066 5.88113 12.2215 5.884 12.2352 5.88999L12.2806 5.93108C12.7371 6.3107 14.9319 7.92856 17.0251 5.93108C17.0265 5.92965 17.0279 5.92807 17.0291 5.92637C17.0492 5.90729 17.0758 5.89667 17.1035 5.89673C17.1254 5.89718 17.1466 5.90409 17.1645 5.9166C17.1765 5.925 17.1869 5.9355 17.1952 5.94759C17.6011 6.34641 19.354 7.85513 21.2086 6.24502C21.2294 6.22393 21.2409 6.19545 21.2406 6.16586V5.40258C21.2412 5.37331 21.23 5.34505 21.2095 5.3241C21.1891 5.30315 21.1611 5.29126 21.1318 5.29108C21.1238 5.29184 21.1159 5.29342 21.1082 5.2958C21.0911 5.30557 21.0746 5.315 21.0527 5.32477C20.4827 5.61007 18.715 6.28915 17.1116 4.771C17.0965 4.75719 17.0806 4.74304 17.0648 4.72654C17.0501 4.71992 17.0341 4.71648 17.018 4.71643C17.0066 4.71715 16.9954 4.71884 16.9843 4.72148C16.9619 4.73032 16.9425 4.7454 16.9284 4.76494C16.4501 5.1294 14.2552 6.61555 12.3005 4.79222L12.2719 4.76426C12.2503 4.74377 12.2221 4.7318 12.1924 4.73058C12.1636 4.732 12.1364 4.744 12.1159 4.76426L12.0856 4.79222C10.1319 6.61555 7.93436 5.12906 7.45671 4.76494C7.44335 4.74539 7.42447 4.73026 7.40248 4.72148C7.39139 4.71897 7.38013 4.71728 7.3688 4.71643C7.35291 4.71684 7.33725 4.72027 7.32265 4.72654C7.30814 4.74247 7.29249 4.75733 7.27583 4.771C5.67145 6.28915 3.90404 5.61007 3.33478 5.32477C3.3149 5.315 3.2957 5.30557 3.27852 5.2958" fill="#44546F"/>
<path d="M7.19034 8.72859C7.19824 8.71683 7.20816 8.70657 7.21965 8.69828C7.23742 8.68562 7.25848 8.67836 7.28028 8.67739C7.30824 8.67749 7.33507 8.68849 7.35506 8.70805C7.3564 8.70995 7.35812 8.71156 7.36011 8.71276C9.45291 10.7079 11.6484 9.0907 12.1052 8.71276L12.15 8.67032C12.1633 8.66522 12.1775 8.66282 12.1918 8.66325C12.2068 8.66274 12.2218 8.66515 12.2359 8.67032L12.2807 8.71276C12.7371 9.0907 14.9316 10.7079 17.0255 8.71276C17.0255 8.71276 17.0278 8.71007 17.0292 8.70805C17.049 8.68854 17.0757 8.67754 17.1036 8.67739C17.1254 8.67815 17.1466 8.68542 17.1642 8.69828C17.1763 8.70643 17.1868 8.7167 17.1952 8.72859C17.5994 9.12775 19.3537 10.6368 21.2087 9.02501C21.23 9.00498 21.2422 8.97711 21.2424 8.94788V8.18156C21.2425 8.1525 21.231 8.1246 21.2104 8.10405C21.1899 8.0835 21.162 8.072 21.1329 8.07209C21.1249 8.07289 21.1171 8.07436 21.1093 8.07647L21.0538 8.10443C20.4842 8.39007 18.7154 9.06746 17.1127 7.55133L17.0662 7.50754C17.0518 7.49954 17.0355 7.49569 17.0191 7.49643C17.0073 7.49624 16.9957 7.49914 16.9854 7.50485C16.9622 7.51091 16.9422 7.52561 16.9295 7.54594C16.4518 7.90973 14.2563 9.39621 12.3012 7.57289L12.2726 7.54426C12.2512 7.52413 12.2228 7.51313 12.1935 7.5136C12.1649 7.51337 12.1375 7.52438 12.117 7.54426L12.0867 7.57289C10.133 9.39621 7.93544 7.90973 7.45779 7.54594C7.44569 7.52577 7.42626 7.51104 7.40356 7.50485C7.39314 7.49947 7.38161 7.49659 7.36988 7.49643C7.35399 7.49594 7.33827 7.49978 7.3244 7.50754C7.30925 7.5227 7.29308 7.53718 7.27657 7.55133C5.67219 9.06712 3.90512 8.39007 3.33552 8.10443L3.27927 8.07647C3.27242 8.0745 3.26544 8.07303 3.25838 8.07209C3.2292 8.07191 3.20115 8.08335 3.18042 8.10389C3.15969 8.12443 3.14799 8.15238 3.1479 8.18156V8.94788C3.14749 8.9769 3.15907 9.0048 3.1799 9.02501C5.03253 10.6368 6.78815 9.12607 7.19405 8.72859" fill="#44546F"/>
</svg>
