<svg width="24" height="25" viewBox="0 0 24 25" fill="none" xmlns="http://www.w3.org/2000/svg">
<path d="M17.5363 8.34406L14.4387 11.2902C14.322 11.4063 14.262 11.4919 14.262 11.7327V19.9917C14.2623 20.0891 14.3413 20.1679 14.4387 20.1679H17.6387C17.7361 20.1679 17.815 20.0891 17.8152 19.9917V8.41781C17.8152 8.32028 17.739 8.14352 17.5366 8.34345" fill="#44546F"/>
<path d="M8.61225 12.1841L5.51435 15.129C5.39793 15.2454 5.33759 15.3307 5.33759 15.5712V19.9903C5.33809 20.0875 5.41708 20.1661 5.51435 20.1661H8.71435C8.81156 20.1661 8.89047 20.0875 8.89081 19.9903V12.2566C8.89081 12.1588 8.8137 11.9805 8.61225 12.1826" fill="#44546F"/>
<path d="M18.9443 4.76983C18.9457 4.74474 18.9362 4.72027 18.9181 4.70279C18.9025 4.688 18.8823 4.67906 18.8608 4.67749H18.8438H18.8185L16.4465 5.21509L16.4035 5.21966C16.3861 5.22324 16.3701 5.23157 16.3572 5.24374C16.3225 5.27925 16.3225 5.33592 16.3572 5.37143L16.384 5.39825L16.9259 5.93981L11.5511 11.3146L9.06882 8.8317C9.05551 8.81807 9.03727 8.81039 9.01823 8.81039C8.99918 8.81039 8.98094 8.81807 8.96764 8.8317L8.29411 9.50553L4.31423 13.4851C4.28682 13.5133 4.28682 13.5581 4.31423 13.5863L4.98866 14.2604C5.00194 14.2738 5.01998 14.2813 5.0388 14.2813C5.05762 14.2813 5.07566 14.2738 5.08893 14.2604L9.02036 10.3314L10.8215 12.1332C10.8232 12.1362 10.8252 12.139 10.8273 12.1417L11.5011 12.8146C11.5144 12.8282 11.5326 12.8359 11.5516 12.8359C11.5706 12.8359 11.5887 12.8282 11.602 12.8146L17.7006 6.71482L18.2693 7.28321C18.2859 7.30016 18.3087 7.30971 18.3325 7.30971C18.3563 7.30971 18.3791 7.30016 18.3958 7.28321C18.4116 7.2678 18.4209 7.24682 18.4217 7.22469V7.21738L18.9425 4.79604L18.9443 4.76983Z" fill="#44546F"/>
<path d="M13.092 12.6997L11.5932 14.2108C11.5649 14.2347 11.523 14.2331 11.4966 14.2071L10.1388 12.8241C9.89016 12.5766 9.83652 12.7775 9.83652 12.8747V19.9912C9.83644 20.0378 9.85489 20.0826 9.88781 20.1156C9.92073 20.1486 9.96542 20.1672 10.0121 20.1673H13.2121C13.3092 20.167 13.3877 20.0883 13.3879 19.9912V12.7555C13.3879 12.6583 13.3114 12.4794 13.0914 12.6997" fill="#44546F"/>
</svg>
