<svg width="24" height="25" viewBox="0 0 24 25" fill="none" xmlns="http://www.w3.org/2000/svg">
<path fill-rule="evenodd" clip-rule="evenodd" d="M22.9809 12.2348C22.1649 11.0918 18.4742 6.52283 11.6129 6.52283C4.75173 6.52283 1.06285 11.0918 0.245616 12.2348C0.224551 12.2645 0.2052 12.2924 0.18784 12.3175L0.187756 12.3176L0.187749 12.3176L0.156738 12.3621C0.175861 12.3913 0.198672 12.4238 0.224556 12.4606L0.245616 12.4906C1.06285 13.6355 4.75235 18.2048 11.6129 18.2048C18.4735 18.2048 22.1649 13.6355 22.9809 12.4919C23.0165 12.4423 23.0459 12.399 23.0692 12.3633C23.046 12.3274 23.0166 12.285 22.9809 12.2361V12.2348ZM8.0344 9.08659L8.03443 9.08655L8.03451 9.08645L8.03484 9.08603C8.05687 9.05786 8.07304 9.03719 8.07894 9.02937C8.12835 8.9658 8.22304 8.94941 8.29512 8.93694L8.31027 8.9343C8.38366 8.92129 8.48028 8.96124 8.49205 9.01605C8.50382 9.07086 8.46387 9.2833 8.42795 9.31984C8.3273 9.4242 8.06532 9.57161 7.92101 9.54838C7.80921 9.53135 7.76617 9.44495 7.78692 9.41182C7.83399 9.34286 7.96387 9.17678 8.03438 9.08662L8.0344 9.0866L8.0344 9.08659ZM7.55661 9.88185C7.55226 9.88679 7.54704 9.8927 7.54159 9.89925L7.54128 9.90018C7.40278 10.1272 7.28365 10.3654 7.18515 10.6124C7.22365 10.6311 7.26753 10.6356 7.30902 10.6251C7.41899 10.6006 7.58571 10.4299 7.73196 10.2802C7.78668 10.2241 7.83853 10.171 7.88347 10.1296C7.90252 10.1114 7.94919 10.0837 8.00274 10.0519C8.11283 9.98663 8.25199 9.90406 8.23991 9.85094C8.22195 9.77197 8.06185 9.71375 7.94324 9.73233L7.92159 9.73568C7.80453 9.75368 7.64763 9.77781 7.56636 9.87045C7.56436 9.87306 7.56091 9.87698 7.55661 9.88185ZM10.1088 15.1672C10.0172 15.5274 9.91061 15.6604 9.8192 15.7744L9.81523 15.7794C9.72294 15.8946 9.38168 16.0448 9.1649 16.0287C8.94813 16.0126 8.91716 15.4326 8.91716 15.134C8.91716 15.1047 8.9053 15.1086 8.88657 15.1147C8.83963 15.1301 8.74958 15.1595 8.69512 14.7157C8.66824 14.4959 8.57818 14.5319 8.50001 14.5632C8.43682 14.5884 8.3814 14.6106 8.37337 14.4921C8.36177 14.3209 8.30445 14.2825 8.22943 14.2322C8.18829 14.2046 8.14182 14.1735 8.09466 14.1149C7.99495 13.9911 7.87649 14.0617 7.745 14.1401C7.70088 14.1664 7.6553 14.1936 7.60847 14.2146C7.5585 14.237 7.52749 14.2564 7.50381 14.2713C7.43912 14.3118 7.42908 14.3181 7.23685 14.2573C7.23262 14.256 7.2297 14.2548 7.22654 14.2534L7.22013 14.2508C6.97031 13.6622 6.84161 13.0292 6.84171 12.3897C6.84171 12.2283 6.85038 12.0695 6.86555 11.9128C6.87394 11.897 6.88379 11.8821 6.89497 11.8682C7.14767 11.569 7.14271 11.499 7.14271 11.499L7.42142 11.4024C7.42142 11.4024 7.86798 11.4712 8.20429 11.5978C8.25916 11.6184 8.32022 11.6441 8.38484 11.6712L8.38492 11.6713C8.64672 11.7814 8.96702 11.9161 9.17141 11.8332C9.35505 11.7576 9.49843 11.6573 9.48109 11.5046C9.46065 11.3129 9.30952 11.2674 9.12681 11.3965C9.09485 11.4192 9.04557 11.3549 8.99054 11.2832C8.92991 11.2041 8.8623 11.1159 8.8032 11.125C8.74456 11.134 8.78464 11.2405 8.82318 11.343C8.85872 11.4375 8.89294 11.5285 8.84718 11.5362C8.75768 11.5513 8.58228 11.1907 8.53388 11.0912L8.52604 11.0751C8.49321 11.0085 8.34488 10.8441 8.21141 10.9698C8.02231 11.1496 7.75401 11.2013 7.57016 11.2368C7.48002 11.2541 7.41018 11.2676 7.37992 11.2903C7.10121 11.4997 7.02627 11.2213 7.03247 11.0519C7.04361 11.0132 7.05507 10.9741 7.06746 10.9357C7.15881 10.8351 7.48676 10.8017 7.59949 10.8766C7.71739 10.9553 7.80331 10.8651 7.85297 10.813L7.86023 10.8054C7.90854 10.7552 7.8912 10.6769 7.86023 10.6112C7.82927 10.5455 7.92217 10.496 7.98596 10.479C8.03016 10.4672 8.14617 10.3919 8.24159 10.33L8.2417 10.3299C8.28395 10.3025 8.32215 10.2777 8.34829 10.2622C8.43345 10.2117 8.87474 10.1591 9.07386 10.2582C9.23559 10.3436 9.43514 10.3034 9.55107 10.1619C9.64852 10.0457 9.76586 9.94791 9.8976 9.87293C9.96697 9.84196 9.72697 9.61683 9.53001 9.86085C9.33306 10.1049 9.2318 10.1259 9.13889 10.1259C9.04599 10.1259 8.49414 9.98844 8.42663 9.81409C8.35912 9.63974 8.59943 9.50937 8.80289 9.41151C8.93736 9.34683 9.22646 9.32585 9.44817 9.30976C9.56191 9.3015 9.65792 9.29453 9.70622 9.28361C9.76797 9.27008 9.8334 9.2528 9.89993 9.23524L9.89998 9.23523C10.1454 9.17044 10.4059 9.10167 10.5526 9.20155C10.6364 9.25863 10.4874 9.33399 10.3268 9.41522C10.1303 9.51466 9.9163 9.6229 10.0908 9.71716C10.1747 9.76324 10.4783 9.57843 10.7003 9.44329L10.7004 9.44327L10.7004 9.44322C10.7768 9.39674 10.8435 9.35615 10.8883 9.33285C11.0936 9.22703 10.9943 9.15661 10.8565 9.05895C10.7186 8.96114 10.5422 8.836 10.5947 8.6206C10.6964 8.20314 9.89335 8.28212 9.31233 8.33927C9.2158 8.34876 9.1254 8.35765 9.0463 8.36356C10.3484 7.53061 11.9729 7.37894 13.4067 7.95648C14.8404 8.53403 15.9062 9.76944 16.2674 11.2724C16.2702 11.3469 16.2623 11.4215 16.2441 11.4938C16.2008 11.666 15.8725 11.814 15.6845 11.5368C15.6362 11.4668 15.4312 11.2733 15.4368 11.6043C15.4391 11.739 15.4928 11.8245 15.5351 11.8919C15.5969 11.9903 15.6346 12.0503 15.4532 12.1683C15.2365 12.3092 15.1456 12.3261 15.0607 12.3419C15.0258 12.3484 14.992 12.3546 14.9509 12.3692C14.8097 12.4194 14.6722 12.7604 14.7072 12.9428C14.7185 13.0014 14.7711 13.0929 14.8265 13.1892L14.8266 13.1892C14.9435 13.3923 15.073 13.6173 14.8537 13.603C14.7778 13.5971 14.2068 13.2072 14.1126 12.9564C14.0532 12.7989 13.9907 12.6436 13.9335 12.5016L13.9335 12.5016L13.9335 12.5015C13.8948 12.4053 13.8585 12.3152 13.8274 12.2348C13.7503 12.0357 13.5487 11.9871 13.3771 12.1026C13.2894 12.1617 13.3038 12.2211 13.3224 12.2984C13.3402 12.3723 13.362 12.4624 13.3022 12.5842L13.2776 12.6346C13.1676 12.8614 13.0806 13.0405 12.9135 12.8492C12.7013 12.6062 12.4452 12.5282 12.2191 12.4593C11.948 12.3767 11.72 12.3072 11.6628 11.9821C11.625 11.7698 11.4917 11.7108 11.3387 11.643C11.2594 11.6079 11.1747 11.5704 11.0954 11.508C10.8632 11.3253 10.7322 11.2293 10.6929 11.3591C10.6741 11.4221 10.8931 11.6311 11.1049 11.8334L11.1049 11.8334C11.2815 12.002 11.4531 12.1658 11.4779 12.2364C11.5593 12.4674 11.249 12.6699 11.0217 12.7257C10.8377 12.7708 10.7381 12.6594 10.5885 12.4921L10.5885 12.4921C10.5533 12.4528 10.5154 12.4103 10.473 12.3661C10.4236 12.3147 10.3804 12.2665 10.3428 12.2247L10.3428 12.2247C10.2111 12.0779 10.1497 12.0095 10.1376 12.1512C10.1153 12.4141 10.3491 12.8015 10.5758 12.9446C10.6168 12.9705 10.6589 12.9935 10.6991 13.0154C10.8487 13.0969 10.9728 13.1645 10.9233 13.3212C10.9128 13.3541 10.9059 13.3785 10.9005 13.3973C10.8917 13.4281 10.8873 13.4437 10.879 13.4569C10.8705 13.4706 10.8579 13.4817 10.8324 13.5043L10.8324 13.5043L10.8324 13.5043C10.8067 13.5271 10.7677 13.5616 10.7065 13.6222C10.4897 13.8365 10.4482 13.9068 10.464 14.2044C10.474 14.3922 10.4467 14.4686 10.4135 14.5618C10.394 14.6163 10.3726 14.6765 10.3553 14.768C10.3339 14.8813 10.2998 14.8981 10.2601 14.9175C10.213 14.9407 10.158 14.9677 10.1076 15.1653L10.1088 15.1672ZM15.5436 13.5556C15.6387 13.4701 15.3965 13.2475 15.2361 13.2605C15.1636 13.267 14.9667 13.4199 15.0878 13.5147C15.2089 13.6095 15.4485 13.6411 15.5436 13.5556ZM15.0327 13.1137C14.9813 13.0945 14.9358 13.0456 14.8968 12.9279C14.8577 12.8102 14.9565 12.7421 15.0516 12.7907C15.1467 12.8393 15.277 12.9867 15.277 13.0648C15.277 13.1428 15.0841 13.1338 15.0315 13.1131L15.0327 13.1137ZM12.4655 13.0638C12.5862 13.158 12.8278 13.1889 12.9222 13.1047H12.9232C13.0161 13.0198 12.7742 12.795 12.6135 12.8096C12.5416 12.8161 12.3447 12.9697 12.4655 13.0638ZM10.9723 14.0539C10.9514 14.088 10.9191 14.1922 10.8808 14.3156C10.7984 14.581 10.6885 14.9353 10.6062 14.8714C10.4858 14.7779 10.6552 13.9393 10.6898 13.8755C10.8787 13.5293 11.2869 13.5463 10.9723 14.0539ZM10.2795 16.9763C10.7157 17.104 11.168 17.1687 11.6226 17.1686C12.6696 17.17 13.688 16.8262 14.5199 16.1903C14.4921 16.1799 14.4715 16.1686 14.4509 16.1573C14.3899 16.1237 14.3294 16.0905 14.0839 16.081C13.7218 16.0675 13.4462 16.3058 13.2631 16.4641C13.2031 16.516 13.153 16.5593 13.113 16.5824C13.0486 16.6196 12.8487 16.5505 12.5824 16.4585L12.5824 16.4585L12.5824 16.4585C12.1791 16.3191 11.6238 16.1272 11.1574 16.1727C10.81 16.2061 10.3693 16.3573 10.2216 16.7428C10.1855 16.8247 10.2093 16.9207 10.2795 16.9763ZM14.9934 15.7775C14.9418 15.7641 14.8915 15.7455 14.8436 15.7221C14.6869 15.6424 14.6355 15.6869 14.5918 15.7248C14.5626 15.7501 14.5368 15.7724 14.4856 15.7531C14.4356 15.7342 14.4466 15.6775 14.4558 15.6304C14.4701 15.5566 14.4799 15.5063 14.245 15.6602C13.9678 15.8418 13.9444 15.7418 13.8908 15.513C13.8699 15.4238 13.8444 15.315 13.7975 15.1957C13.6302 14.7702 13.9901 14.2843 14.293 14.1737C14.6005 14.0625 14.8217 14.0168 14.9945 13.9811C15.0551 13.9686 15.1097 13.9573 15.1601 13.9449C15.4375 13.8756 15.6092 13.7602 15.7244 13.6829C15.8475 13.6002 15.9059 13.561 15.9596 13.668C15.9795 13.7067 15.9984 13.7439 16.0157 13.7786C16.0622 13.8769 16.0869 13.9841 16.0882 14.0929C15.8465 14.7261 15.473 15.3008 14.9925 15.7788L14.9934 15.7775ZM16.0612 12.1011C15.637 12.5891 16.1736 13.3311 16.3018 13.3661V13.3676C16.3682 13.0467 16.4017 12.7199 16.4018 12.3922C16.4018 12.2974 16.3981 12.2063 16.3935 12.1134C16.3325 11.906 16.2092 11.762 15.977 11.7799C15.9524 11.7819 15.9761 11.825 16.0064 11.8802C16.0479 11.956 16.1021 12.0546 16.0612 12.1011Z" fill="#44546F"/>
</svg>
