<svg width="24" height="25" viewBox="0 0 24 25" fill="none" xmlns="http://www.w3.org/2000/svg">
<path fill-rule="evenodd" clip-rule="evenodd" d="M19.9443 11.4048C19.9443 9.1574 18.1565 7.32156 15.9293 7.24028C15.3412 5.57415 13.7664 4.45996 11.9995 4.45996C10.2327 4.45996 8.65785 5.57415 8.06977 7.24028C5.8429 7.32156 4.05569 9.15772 4.05569 11.4048C4.05581 12.6894 4.64943 13.9019 5.66401 14.6899C5.55518 15.066 5.49981 15.4555 5.49953 15.847C5.49953 18.144 7.3693 20.0137 9.66786 20.0137C10.5077 20.0145 11.3279 19.7601 12.0199 19.2841C12.7038 19.7427 13.5088 19.9871 14.3322 19.9862C16.6304 19.9862 18.5002 18.1164 18.5002 15.8192C18.5001 15.4358 18.447 15.0542 18.3424 14.6854C19.353 13.8969 19.9439 12.6868 19.9443 11.4051V11.4048ZM15.328 8.62781C15.328 10.2963 14.0931 11.6774 12.4902 11.9161C12.4623 11.7469 12.4478 11.5757 12.4467 11.4041C12.4492 9.75705 13.6554 8.35925 15.2844 8.11581C15.3121 8.2851 15.3267 8.45628 15.328 8.62781ZM11.003 15.8392C11.0091 16.7311 11.3738 17.5832 12.0151 18.2032C12.6482 17.5747 13.0016 16.7178 12.9956 15.8257C12.9896 14.9337 12.6246 14.0816 11.9831 13.4617C11.3502 14.0903 10.997 14.9472 11.003 15.8392ZM8.71462 8.11613L8.7155 8.11627C8.68787 8.28541 8.67335 8.45643 8.67206 8.62782C8.67206 10.2963 9.90598 11.6774 11.5082 11.9168C11.5362 11.7475 11.5508 11.5763 11.5521 11.4048C11.5521 9.73629 10.318 8.35504 8.7155 8.11627L8.71558 8.11581L8.71462 8.11613ZM9.25304 14.5704C10.0998 14.295 10.8001 13.6906 11.1966 12.8934C10.407 12.4819 9.48508 12.4053 8.63837 12.6807C7.79165 12.9561 7.09127 13.5605 6.69482 14.3577C7.48443 14.7692 8.40633 14.8458 9.25304 14.5704ZM12.7923 12.871C13.5863 12.454 14.5153 12.3762 15.3675 12.6553C16.2198 12.9344 16.9227 13.5467 17.3162 14.3526C16.5222 14.7696 15.5932 14.8475 14.741 14.5683C13.8887 14.2892 13.1858 13.6769 12.7923 12.871ZM15.0512 7.30078C14.5222 6.0866 13.3244 5.30095 12 5.2995C10.6756 5.30103 9.4778 6.08665 8.94876 7.30078C10.286 7.53928 11.4239 8.41274 12 9.64286C12.5765 8.41308 13.7142 7.53979 15.0512 7.30078ZM4.89601 11.4047C4.89822 9.70534 6.17848 8.27965 7.86785 8.09531C7.69073 9.44372 8.18613 10.7933 9.19361 11.7068C7.83859 11.8633 6.64543 12.6718 5.99777 13.8723C5.29701 13.2434 4.89648 12.3463 4.89601 11.4047ZM6.41153 15.1571C6.36321 15.3839 6.33886 15.6151 6.33889 15.847C6.3373 17.0389 6.97426 18.1403 8.00811 18.7334C9.04196 19.3265 10.3143 19.3204 11.3424 18.7174C10.3983 17.7491 9.98549 16.3814 10.2362 15.0524C9.05391 15.7063 7.62776 15.7453 6.41153 15.1571ZM17.6612 15.8192C17.6629 17.0043 17.0334 18.1007 16.009 18.6966C14.9845 19.2925 13.7203 19.2978 12.6909 18.7104C13.6195 17.7354 14.0172 16.3704 13.7578 15.0493C14.9429 15.7074 16.3745 15.7465 17.5937 15.1539C17.6386 15.3728 17.6612 15.5957 17.6612 15.8192ZM16.1677 8.62779C16.168 9.78773 15.6837 10.8951 14.8317 11.6822C16.1839 11.8472 17.3706 12.6614 18.0112 13.8636C18.9831 12.9847 19.3476 11.6166 18.9419 10.3706C18.5361 9.12457 17.4359 8.23343 16.1328 8.09531C16.1556 8.27189 16.1673 8.44974 16.1677 8.62779Z" fill="#44546F"/>
</svg>
