<svg width="24" height="25" viewBox="0 0 24 25" fill="none" xmlns="http://www.w3.org/2000/svg">
<path fill-rule="evenodd" clip-rule="evenodd" d="M15.9923 11.2902L19.6154 13.3812C19.6912 13.4247 19.7383 13.5052 19.7391 13.5927V17.9203C19.7387 18.0083 19.6916 18.0896 19.6154 18.1336L15.8689 20.2974C15.7924 20.3413 15.6983 20.3413 15.6218 20.2974L12 18.2065L8.37756 20.2993C8.30102 20.3432 8.20694 20.3432 8.1304 20.2993L4.38457 18.1354C4.3083 18.0914 4.26118 18.0102 4.26083 17.9221V13.5945C4.26112 13.5064 4.30826 13.4251 4.38457 13.3812L8.00758 11.2902V7.10672C8.00742 7.019 8.05383 6.93778 8.12948 6.89338L11.8778 4.73018C11.9542 4.68597 12.0485 4.68597 12.1249 4.73018L15.8704 6.89399C15.9461 6.93839 15.9925 7.01961 15.9923 7.10733V11.2902ZM8.74814 15.758L11.7525 17.493L11.7528 14.0233L8.74814 15.758ZM15.2511 11.4331L12.2468 13.1669V9.6981L15.2511 11.4331ZM8.74846 11.4328L11.7528 13.1672V9.6981L8.74846 11.4328ZM12.4943 13.5939L15.7455 11.7184L18.9976 13.5951L15.7455 15.4727L12.4943 13.5939ZM12.4943 9.2684L15.4983 11.0034V7.534L12.4943 9.2684ZM11.5059 9.26838L8.5013 11.0034V7.53551L11.5059 9.26838ZM4.75578 17.7783L8.00759 19.6553V15.9021L4.75578 14.0233V17.7783ZM8.5016 19.6553V16.1862L11.5062 17.9212L8.5016 19.6553ZM15.9923 19.6553L19.2453 17.7783L19.2447 14.0245L15.9923 15.9021V19.6553Z" fill="#44546F"/>
</svg>
