<svg width="24" height="25" viewBox="0 0 24 25" fill="none" xmlns="http://www.w3.org/2000/svg">
<path d="M21.1216 7.62071C19.7235 6.51637 18.0469 6.3974 17.391 6.3974C17.0451 6.3974 16.7248 6.42826 16.4903 6.48414L16.3984 6.5054C15.5128 6.71454 14.0307 7.0646 12.3051 9.20609L12.2543 9.26883C12.2268 9.30648 12.2117 9.35179 12.2111 9.39843C12.2113 9.43827 12.2218 9.47738 12.2416 9.51191L12.2807 9.57603C12.5655 10.0526 12.8021 10.4664 12.9904 10.8175C13.0243 10.8834 13.0881 10.9287 13.1615 10.939C13.2348 10.9493 13.3086 10.9233 13.3594 10.8693C13.3714 10.8535 13.3837 10.8367 13.3936 10.824C14.8823 8.76311 16.0501 8.48883 16.8229 8.30609L16.9199 8.28311C17.0758 8.25319 17.2344 8.23974 17.3931 8.243C17.7524 8.243 19.0014 8.30266 19.9758 9.07203C20.8429 9.75774 21.2824 10.8494 21.2824 12.3206C21.2824 14.7864 20.0896 15.7492 19.0882 16.1208C18.6966 16.2653 18.2822 16.3382 17.8648 16.3361C17.2295 16.3329 16.6027 16.1902 16.0285 15.9182L15.9568 15.8839C15.0959 15.5102 13.8106 14.7309 12.5951 12.2904C10.1039 7.28471 8.01112 6.81226 6.6253 6.49854L6.55261 6.48243C6.44632 6.45809 6.14667 6.4022 5.66118 6.4022C4.8589 6.4022 3.31535 6.55991 1.99261 7.61591C1.08953 8.33591 0.0122681 9.7358 0.0122681 12.3131C0.0122681 13.8823 0.335582 14.9188 1.16427 16.0087C1.31993 16.2213 2.7637 18.0857 5.5357 18.0857C5.96061 18.0843 6.38443 18.0428 6.80152 17.9616C7.30758 17.8649 8.08861 17.6147 8.96152 16.9749L9.6901 17.6325C9.77717 17.7059 9.90607 17.6999 9.98598 17.6188C10.0209 17.5818 10.0398 17.5325 10.0384 17.4816L10.6021 14.0092V13.9687C10.6016 13.9108 10.5767 13.8558 10.5335 13.8172C10.4939 13.7805 10.4414 13.7612 10.3875 13.7633L7.00484 14.6945L6.94038 14.7052C6.89886 14.7138 6.86122 14.7355 6.83307 14.7672C6.79523 14.8084 6.77546 14.863 6.77816 14.9189C6.78087 14.9747 6.80583 15.0272 6.84747 15.0645L7.54792 15.6981C7.1797 15.924 6.81147 16.0752 6.45352 16.1438C6.15797 16.2012 5.85767 16.2305 5.55661 16.2316C3.64107 16.2316 2.69855 14.9743 2.65981 14.9212L2.64095 14.8951C2.0581 14.1295 1.8613 13.4777 1.8613 12.312C1.8613 10.8357 2.2933 9.7406 3.1453 9.06174C4.0933 8.3054 5.31318 8.24643 5.66495 8.24643C5.8259 8.24352 5.98672 8.25696 6.14495 8.28654L6.2197 8.30334C7.32575 8.55397 8.8405 8.89683 10.9408 13.1153C12.05 15.3439 13.441 16.799 15.1892 17.567C15.3925 17.6699 16.477 18.1879 17.8669 18.1879C18.5046 18.19 19.1374 18.0777 19.7355 17.8564C20.7565 17.4755 23.1325 16.1729 23.1325 12.322C23.1315 9.7478 22.0384 8.34483 21.1216 7.62071Z" fill="#44546F"/>
</svg>
