<svg width="24" height="25" viewBox="0 0 24 25" fill="none" xmlns="http://www.w3.org/2000/svg">
<path d="M9.81149 9.10883L3.6073 5.52621V17.1154L9.81149 18.9873V9.10883Z" fill="#44546F"/>
<path d="M10.494 9.13235V18.9915L16.7383 17.114V5.52655L10.494 9.13235Z" fill="#44546F"/>
<path d="M21.6089 5.23285C21.6147 4.96685 21.4761 4.71854 21.2466 4.58384C21.0172 4.44914 20.7328 4.44914 20.5033 4.58384C20.2739 4.71854 20.1353 4.96685 20.141 5.23285V6.02334H21.6089V5.23285Z" fill="#44546F"/>
<path d="M20.3234 16.9099H20.1411L20.8755 19.4755L21.6086 16.9099H21.4263H21.6086V6.599H21.4263H21.2439H21.0509H20.6856H20.5053H20.3234H20.1407V16.9099H20.3234Z" fill="#44546F"/>
<path d="M18.0713 6.02403L17.406 5.49854V17.4299L10.5124 19.6574H10.1934H10.1301H9.81147L2.94859 17.7398V5.49854L2.28299 6.02403V18.2065L9.77999 20.2822H10.1301H10.1934H10.5435L17.4603 18.0861L18.0713 17.9062V6.02403Z" fill="#44546F"/>
</svg>
