<svg width="24" height="25" viewBox="0 0 24 25" fill="none" xmlns="http://www.w3.org/2000/svg">
<path d="M23.6614 12.8185C23.6614 11.8706 23.0551 11.1006 22.1322 11.1006C21.6717 11.1006 21.1159 11.6058 20.8141 11.9154C20.5109 11.6045 19.9936 11.0999 19.5341 11.0999C18.6132 11.0999 17.9674 11.8682 17.9674 12.8178C17.966 13.2703 18.1414 13.7054 18.4562 14.0304L20.8175 16.3961L23.1754 14.0331L23.1733 14.0314C23.4879 13.7061 23.663 13.2709 23.6614 12.8185Z" fill="#44546F"/>
<path d="M13.6084 20.2586H13.5841C13.4046 20.2478 13.2561 20.1146 13.2261 19.9373L12.0266 12.9508L10.2097 16.3193C10.1302 16.4664 9.96526 16.546 9.80058 16.5167C9.63591 16.4874 9.50859 16.3558 9.48477 16.1902L8.7134 10.7991L7.30237 13.9688C7.24007 14.1088 7.10129 14.1992 6.94801 14.1995H1.46321C1.25813 14.1874 1.09802 14.0176 1.09802 13.8121C1.09802 13.6067 1.25813 13.4369 1.46321 13.4248H6.69605L8.55239 9.25567C8.62239 9.09785 8.78833 9.00533 8.95939 9.02876C9.13044 9.05218 9.2654 9.18589 9.29041 9.35672L10.0857 14.9146L11.8774 11.5923C11.9561 11.447 12.1182 11.3675 12.2813 11.3942C12.4444 11.421 12.5727 11.5481 12.6009 11.7109L13.7125 18.1806L17.7596 4.73424C17.8059 4.58117 17.9413 4.47215 18.1007 4.45963C18.2601 4.44712 18.4109 4.53367 18.4805 4.67765L20.6103 9.09331C20.6736 9.21847 20.6644 9.36805 20.5862 9.48448C20.508 9.60091 20.373 9.66602 20.2332 9.65476C20.0934 9.64349 19.9706 9.5576 19.9121 9.43016L18.215 5.91319L13.9792 19.9824C13.9302 20.1463 13.7794 20.2585 13.6084 20.2586Z" fill="#44546F"/>
</svg>
