<svg width="20" height="21" viewBox="0 0 20 21" fill="none" xmlns="http://www.w3.org/2000/svg">
<path fill-rule="evenodd" clip-rule="evenodd" d="M13.6967 12.9682L16.98 16.3099C17.1271 16.4689 17.2065 16.6789 17.2014 16.8954C17.1963 17.1119 17.1071 17.318 16.9528 17.4699C16.7984 17.6218 16.5909 17.7076 16.3743 17.7091C16.1578 17.7107 15.9491 17.6279 15.7925 17.4782L12.5108 14.1399C11.2446 15.0938 9.66325 15.5308 8.08691 15.3626C6.51056 15.1943 5.05705 14.4334 4.02069 13.2337C2.98433 12.0341 2.44256 10.4855 2.50508 8.90139C2.5676 7.31732 3.22975 5.81621 4.35744 4.70199C5.48513 3.58777 6.99409 2.94372 8.57879 2.90023C10.1635 2.85675 11.7055 3.41709 12.8926 4.4678C14.0797 5.51851 14.8232 6.98106 14.9724 8.55931C15.1217 10.1376 14.6657 11.7136 13.6967 12.9682V12.9682ZM8.75001 13.7307C9.96559 13.7307 11.1314 13.2478 11.9909 12.3883C12.8505 11.5288 13.3333 10.363 13.3333 9.1474C13.3333 7.93182 12.8505 6.76603 11.9909 5.90649C11.1314 5.04695 9.96559 4.56406 8.75001 4.56406C7.53443 4.56406 6.36865 5.04695 5.5091 5.90649C4.64956 6.76603 4.16668 7.93182 4.16668 9.1474C4.16668 10.363 4.64956 11.5288 5.5091 12.3883C6.36865 13.2478 7.53443 13.7307 8.75001 13.7307V13.7307Z" fill="#626F86"/>
</svg>
